SubSource-HROTd_VROTdd.ufo
<glyph name="exclam" format="2">
  <advance width="261"/>
  <unicode hex="0021"/>
  <outline>
    <contour>
      <point x="177.2500118534252" y="639.9999926891819" type="curve" smooth="yes"/>
      <point x="177.2500010395069" y="284.99999809614116" type="line" smooth="yes"/>
      <point x="177.24999898333934" y="217.49999809614118"/>
      <point x="87.2499989833394" y="217.5000008376979"/>
      <point x="87.25000103950697" y="285.0000008376979" type="curve" smooth="yes"/>
      <point x="87.25001185342526" y="639.9999954307386" type="line" smooth="yes"/>
      <point x="87.25001390959285" y="707.4999954307386"/>
      <point x="177.25001390959278" y="707.4999926891819"/>
    </contour>
    <contour>
      <point x="133.70276385355731" y="-4.521157888713667" type="curve" smooth="yes"/>
      <point x="48.7721068194704" y="7.968644672249283"/>
      <point x="48.772107456282" y="116.03136106300195"/>
      <point x="133.70276525129108" y="128.5211636239648" type="curve" smooth="yes"/>
      <point x="200.48450689475146" y="138.34200793930302"/>
      <point x="213.5789659818691" y="49.29968574802251"/>
      <point x="146.7972243384087" y="39.47884143268431" type="curve" smooth="yes"/>
      <point x="144.232946014293" y="39.10174168082717"/>
      <point x="144.23294475436774" y="84.89826403753658"/>
      <point x="146.79722305550922" y="84.52116428567945" type="curve" smooth="yes"/>
      <point x="213.57896468630406" y="74.70031988421557"/>
      <point x="200.48450548435216" y="-14.342002290177545"/>
    </contour>
  </outline>
</glyph>
<glyph name="numbersign" format="2">
  <advance width="700"/>
  <unicode hex="0023"/>
  <outline>
    <contour>
      <point x="299.8567007525197" y="636.4114576995067" type="curve" smooth="yes"/>
      <point x="251.8566832065565" y="36.41146683802939" type="line" smooth="yes"/>
      <point x="246.47387866587627" y="-30.873564300232196"/>
      <point x="156.76050381486084" y="-23.696491579325205"/>
      <point x="162.14330835554108" y="43.58853955893638" type="curve" smooth="yes"/>
      <point x="210.14332590150423" y="643.5885304204138" type="line" smooth="yes"/>
      <point x="215.52613044218444" y="710.8735615586754"/>
      <point x="305.2395052931999" y="703.6964888377684"/>
    </contour>
    <contour>
      <point x="537.8566971275725" y="636.4114576995067" type="curve" smooth="yes"/>
      <point x="489.8566795816093" y="36.41146683802939" type="line" smooth="yes"/>
      <point x="484.47387504092904" y="-30.873564300232196"/>
      <point x="394.76050018991356" y="-23.696491579325205"/>
      <point x="400.1433047305938" y="43.58853955893638" type="curve" smooth="yes"/>
      <point x="448.143322276557" y="643.5885304204138" type="line" smooth="yes"/>
      <point x="453.5261268172372" y="710.8735615586754"/>
      <point x="543.2395016682527" y="703.6964888377684"/>
    </contour>
    <contour>
      <point x="615.0000024217085" y="416.9999967710554" type="curve" smooth="yes"/>
      <point x="85.00001049407" y="416.9999967710554" type="line" smooth="yes"/>
      <point x="17.500010494069997" y="416.9999967710554"/>
      <point x="17.500010494070025" y="506.9999967710554"/>
      <point x="85.00001049407003" y="506.9999967710554" type="curve" smooth="yes"/>
      <point x="615.0000024217085" y="506.9999967710554" type="line" smooth="yes"/>
      <point x="682.5000024217085" y="506.9999967710554"/>
      <point x="682.5000024217085" y="416.9999967710554"/>
    </contour>
    <contour>
      <point x="614.9999949890434" y="173.00000048738787" type="curve" smooth="yes"/>
      <point x="85.00000306140502" y="173.00000048738787" type="line" smooth="yes"/>
      <point x="17.500003061405025" y="173.0000004873879"/>
      <point x="17.500003061405053" y="263.00000048738787"/>
      <point x="85.00000306140505" y="263.00000048738787" type="curve" smooth="yes"/>
      <point x="614.9999949890434" y="263.00000048738787" type="line" smooth="yes"/>
      <point x="682.4999949890434" y="263.00000048738787"/>
      <point x="682.4999949890434" y="173.00000048738784"/>
    </contour>
  </outline>
</glyph>
<glyph name="percent" format="2">
  <advance width="1023"/>
  <unicode hex="0025"/>
  <outline>
    <contour>
      <point x="709.5499630740802" y="3.9657790756160693" type="curve" smooth="yes"/>
      <point x="645.8282328073177" y="32.577411791240976"/>
      <point x="602.9790494064665" y="100.19626126333701"/>
      <point x="602.979052020836" y="186.02094629647178" type="curve" smooth="yes"/>
      <point x="602.9790554910151" y="299.9401965774182"/>
      <point x="677.8270258782788" y="382.0209426258318"/>
      <point x="783.9790545491605" y="382.0209426258318" type="curve" smooth="yes"/>
      <point x="890.0765704863343" y="382.0209426258318"/>
      <point x="966.9790513159745" y="299.8816923655401"/>
      <point x="966.9790478475775" y="186.02094355491488" type="curve" smooth="yes"/>
      <point x="966.9790452371257" y="100.32486691950271"/>
      <point x="923.0254922171347" y="32.26781419537947"/>
      <point x="856.8091950348148" y="3.699056047116663" type="curve" smooth="yes"/>
      <point x="794.83159448335" y="-23.040933292504803"/>
      <point x="759.1782753638547" y="59.59586744278159"/>
      <point x="821.1558759153195" y="86.33585678240306" type="curve" smooth="yes"/>
      <point x="856.7865768323371" y="101.70858102804624"/>
      <point x="876.9790464429046" y="139.9082609563215"/>
      <point x="876.9790478475775" y="186.02094629647178" type="curve" smooth="yes"/>
      <point x="876.9790497373849" y="248.05966569282256"/>
      <point x="841.7878612593965" y="292.0209426258318"/>
      <point x="783.9790545491605" y="292.0209426258318" type="curve" smooth="yes"/>
      <point x="726.2569176996112" y="292.0209426258318"/>
      <point x="692.9790539078102" y="247.96665139345583"/>
      <point x="692.979052020836" y="186.02094355491488" type="curve" smooth="yes"/>
      <point x="692.9790506216373" y="140.0879677318467"/>
      <point x="712.3115349422036" y="101.38194769872523"/>
      <point x="746.4151112573076" y="86.06913375390366" type="curve" smooth="yes"/>
      <point x="807.9926272660232" y="58.42027261648306"/>
      <point x="771.1274790827958" y="-23.683082061804527"/>
    </contour>
    <contour>
      <point x="418.8213407108429" y="516.8231632287908" type="curve" smooth="yes"/>
      <point x="430.39189428784584" y="380.49931984283654"/>
      <point x="340.582254413031" y="297.02094254967744"/>
      <point x="238.97906300229397" y="297.02094254967744" type="curve" smooth="yes"/>
      <point x="131.69498581774874" y="297.02094254967744"/>
      <point x="56.979066254177106" y="380.27396820488207"/>
      <point x="56.97906971910802" y="494.02094160536353" type="curve" smooth="yes"/>
      <point x="56.97907318750473" y="607.881690415989"/>
      <point x="132.88013630190838" y="690.0234467453778"/>
      <point x="238.98013629468127" y="690.0209379221433" type="curve" smooth="yes"/>
      <point x="317.3146004902183" y="690.0190856382239"/>
      <point x="390.2594982562356" y="647.2874433634558"/>
      <point x="511.72963540535886" y="648.0040983818994" type="curve" smooth="yes"/>
      <point x="768.0089525276087" y="649.516106707974"/>
      <point x="842.3417205575096" y="748.9872047685838"/>
      <point x="642.1074470089244" y="456.5949103735089" type="curve" smooth="yes"/>
      <point x="563.9697155866468" y="342.4942114047967"/>
      <point x="513.2172740414908" y="270.31317081045364"/>
      <point x="433.91978918920364" y="156.32304213637596" type="curve" smooth="yes"/>
      <point x="401.05353182229294" y="109.07779957580514"/>
      <point x="364.64947825078855" y="60.93430767946907"/>
      <point x="331.8153922378789" y="14.160927664571485" type="curve" smooth="yes"/>
      <point x="293.0332169922295" y="-41.08572728589351"/>
      <point x="219.37101039160945" y="10.623839708305667"/>
      <point x="258.15318563725884" y="65.87049465877067" type="curve" smooth="yes"/>
      <point x="291.1046892342873" y="112.8111404011276"/>
      <point x="327.2900219999559" y="160.64316861643766"/>
      <point x="360.03832225467175" y="207.7188478368577" type="curve" smooth="yes"/>
      <point x="439.1698065388208" y="321.47035070638054"/>
      <point x="489.8765177054891" y="393.58512876380246"/>
      <point x="567.8506763759536" y="507.4469704612021" type="curve" smooth="yes"/>
      <point x="626.2152719009011" y="592.6739283368182"/>
      <point x="586.9613036877014" y="558.4463872326277"/>
      <point x="512.2606122417872" y="558.0056647088672" type="curve" smooth="yes"/>
      <point x="371.5318148489469" y="557.1753865741906"/>
      <point x="306.5924092578952" y="600.0193391482422"/>
      <point x="238.97800816972213" y="600.020937947304" type="curve" smooth="yes"/>
      <point x="181.1967530650065" y="600.0223042334052"/>
      <point x="146.97907160797052" y="556.0286389004593"/>
      <point x="146.97906971910797" y="494.0209388638067" type="curve" smooth="yes"/>
      <point x="146.97906782743522" y="431.92098551622627"/>
      <point x="180.40751609491696" y="387.02094254967744"/>
      <point x="238.97906300229397" y="387.02094254967744" type="curve" smooth="yes"/>
      <point x="295.1750061012316" y="387.02094254967744"/>
      <point x="335.54335703759887" y="433.8120668935105"/>
      <point x="329.1437729161916" y="509.2117353446337" type="curve" smooth="yes"/>
      <point x="323.4352020030738" y="576.4699111906222"/>
      <point x="413.1127697977251" y="584.0813390747793"/>
    </contour>
  </outline>
</glyph>
<glyph name="ampersand" format="2">
  <advance width="634"/>
  <unicode hex="0026"/>
  <outline>
    <contour>
      <point x="575.9999990404551" y="302.99999850737464" type="curve" smooth="yes"/>
      <point x="378.00000205616755" y="302.99999850737464" type="line" smooth="yes"/>
      <point x="233.76330666825373" y="302.99999850737464"/>
      <point x="153.0000037211351" y="267.6576598758828"/>
      <point x="153.00000105093005" y="179.99999969538257" type="curve" smooth="yes"/>
      <point x="152.9999990822529" y="115.37214081911453"/>
      <point x="209.418392728315" y="79.00000328986818"/>
      <point x="287.99999386195907" y="79.00000328986812" type="curve" smooth="yes"/>
      <point x="370.97066473256734" y="79.00000328986806"/>
      <point x="425.9999937053162" y="120.35772299946227"/>
      <point x="425.9999960704353" y="198.0000021627837" type="curve" smooth="yes"/>
      <point x="425.00030628956887" y="470.83516394572786" type="line" smooth="yes"/>
      <point x="424.75305725719437" y="538.3347111139569"/>
      <point x="514.7524534814999" y="538.6643764904563"/>
      <point x="514.9997025138744" y="471.16482932222715" type="curve" smooth="yes"/>
      <point x="515.9999960704353" y="197.9999994212269" type="line" smooth="yes"/>
      <point x="515.9999922243686" y="71.7410816451979"/>
      <point x="422.9237393284999" y="-10.999996710131963"/>
      <point x="287.99999386195907" y="-10.999996710131882" type="curve" smooth="yes"/>
      <point x="153.07199898582513" y="-10.9999967101318"/>
      <point x="62.999997670626584" y="69.03118422105341"/>
      <point x="63.0000010509301" y="180.00000243693935" type="curve" smooth="yes"/>
      <point x="63.00000503894486" y="310.91880437016863"/>
      <point x="162.57906432967198" y="392.99999850737464"/>
      <point x="378.00000205616755" y="392.99999850737464" type="curve" smooth="yes"/>
      <point x="575.9999990404551" y="392.99999850737464" type="line" smooth="yes"/>
      <point x="643.4999990404551" y="392.99999850737464"/>
      <point x="643.4999990404551" y="302.99999850737464"/>
    </contour>
    <contour>
      <point x="414.09698382772973" y="578.9037501948419" type="curve" smooth="yes"/>
      <point x="312.6585610055351" y="617.2249325908847"/>
      <point x="170.0000138813607" y="609.6981888981263"/>
      <point x="170.00001063114783" y="502.9999947758113" type="curve" smooth="yes"/>
      <point x="170.0000085087514" y="433.32582906417633"/>
      <point x="244.0707724104696" y="392.99999850737464"/>
      <point x="378.00000205616755" y="392.99999850737464" type="curve" smooth="yes"/>
      <point x="445.50000205616755" y="392.99999850737464"/>
      <point x="445.50000205616755" y="302.99999850737464"/>
      <point x="378.00000205616755" y="302.99999850737464" type="curve" smooth="yes"/>
      <point x="168.77172247145526" y="302.99999850737464"/>
      <point x="80.00000731547613" y="394.15291565248884"/>
      <point x="80.00001063114789" y="502.999997517368" type="curve" smooth="yes"/>
      <point x="80.00001598547591" y="678.7722163820357"/>
      <point x="278.7956460815831" y="726.2256973918662"/>
      <point x="445.90303533270577" y="663.096238503852" type="curve" smooth="yes"/>
      <point x="509.04740156446337" y="639.2416998751199"/>
      <point x="477.24135005948733" y="555.0492115661099"/>
    </contour>
  </outline>
</glyph>
<glyph name="quotesingle" format="2">
  <advance width="297"/>
  <unicode hex="0027"/>
  <outline>
    <contour>
      <point x="103.0000057344229" y="437.9999985073747" type="curve" smooth="yes"/>
      <point x="103.00001188769471" y="639.9999954307386" type="line" smooth="yes"/>
      <point x="103.00001394386229" y="707.4999954307386"/>
      <point x="193.00001394386223" y="707.4999926891819"/>
      <point x="193.00001188769465" y="639.9999926891819" type="curve" smooth="yes"/>
      <point x="193.00000573442284" y="437.99999576581786" type="line" smooth="yes"/>
      <point x="193.00000367825527" y="370.49999576581786"/>
      <point x="103.00000367825533" y="370.4999985073747"/>
    </contour>
  </outline>
</glyph>
<glyph name="parenright" format="2">
  <advance width="452"/>
  <unicode hex="0029"/>
  <outline>
    <contour>
      <point x="72" y="790" type="curve" smooth="yes"/>
      <point x="129" y="774"/>
      <point x="184" y="744"/>
      <point x="232" y="699" type="curve" smooth="yes"/>
      <point x="318" y="617"/>
      <point x="382" y="486"/>
      <point x="382" y="306" type="curve" smooth="yes"/>
      <point x="382" y="126"/>
      <point x="318" y="-5"/>
      <point x="232" y="-87" type="curve" smooth="yes"/>
      <point x="184" y="-132"/>
      <point x="129" y="-162"/>
      <point x="72" y="-178" type="curve" smooth="yes"/>
      <point x="7" y="-197"/>
      <point x="-17" y="-110"/>
      <point x="48" y="-92" type="curve" smooth="yes"/>
      <point x="91" y="-80"/>
      <point x="134" y="-56"/>
      <point x="170" y="-21" type="curve" smooth="yes"/>
      <point x="242" y="47"/>
      <point x="292" y="156"/>
      <point x="292" y="306" type="curve" smooth="yes"/>
      <point x="292" y="456"/>
      <point x="242" y="565"/>
      <point x="170" y="633" type="curve" smooth="yes"/>
      <point x="134" y="668"/>
      <point x="91" y="692"/>
      <point x="48" y="704" type="curve" smooth="yes"/>
      <point x="-17" y="722"/>
      <point x="7" y="809"/>
    </contour>
  </outline>
</glyph>
<glyph name="asterisk" format="2">
  <advance width="614"/>
  <unicode hex="002A"/>
  <outline>
    <contour>
      <point x="85.00000990006606" y="508.9999967405936" type="curve" smooth="yes"/>
      <point x="133.73820883480107" y="508.9999967405936"/>
      <point x="154.2945368840686" y="508.9999967405936"/>
      <point x="187.00000834651723" y="508.9999967405936" type="curve" smooth="yes"/>
      <point x="263.7811542607072" y="508.9999967405936"/>
      <point x="353.6718760076807" y="453.01328764164543"/>
      <point x="389.1839142149976" y="390.12738162598373" type="curve" smooth="yes"/>
      <point x="409.2747042886348" y="354.54993802853875"/>
      <point x="419.23327211506836" y="338.04078208428626"/>
      <point x="439.3370774315525" y="301.85393053044874" type="curve" smooth="yes"/>
      <point x="472.1179739126147" y="242.84831362919192"/>
      <point x="393.4438180442723" y="199.14045165444224"/>
      <point x="360.6629215632101" y="258.14606855569906" type="curve" smooth="yes"/>
      <point x="340.7610565036846" y="293.9694276270803"/>
      <point x="331.1102113188516" y="309.93510835346535"/>
      <point x="310.81609166411846" y="345.87261477953075" type="curve" smooth="yes"/>
      <point x="290.85810814612375" y="381.2148800825722"/>
      <point x="230.15148378991796" y="418.9999967405936"/>
      <point x="187.00000834651723" y="418.9999967405936" type="curve" smooth="yes"/>
      <point x="138.26180941178217" y="418.9999967405936"/>
      <point x="117.70548136251459" y="418.9999967405936"/>
      <point x="85.00000990006606" y="418.9999967405936" type="curve" smooth="yes"/>
      <point x="17.50000990006606" y="418.9999967405936"/>
      <point x="17.50000990006606" y="508.9999967405936"/>
    </contour>
    <contour>
      <point x="439.3161436734707" y="626.167005070329" type="curve" smooth="yes"/>
      <point x="419.2627969355228" y="590.0709829212085"/>
      <point x="410.467243976287" y="573.849029167411"/>
      <point x="390.1629750756944" y="537.8935539961026" type="curve" smooth="yes"/>
      <point x="354.6331770104959" y="474.9762050174571"/>
      <point x="263.79860088306566" y="419.0209406915112"/>
      <point x="186.9790643959186" y="419.0209406915112" type="curve" smooth="yes"/>
      <point x="138.2408654611836" y="419.0209406915112"/>
      <point x="117.68453741191598" y="419.0209406915112"/>
      <point x="84.97906594946745" y="419.0209406915112" type="curve" smooth="yes"/>
      <point x="17.479065949467454" y="419.0209406915112"/>
      <point x="17.479065949467483" y="509.0209406915112"/>
      <point x="84.97906594946748" y="509.0209406915112" type="curve" smooth="yes"/>
      <point x="133.7172648842025" y="509.0209406915112"/>
      <point x="154.27359293347" y="509.0209406915112"/>
      <point x="186.9790643959186" y="509.0209406915112" type="curve" smooth="yes"/>
      <point x="230.13053983931934" y="509.0209406915112"/>
      <point x="291.8371688947383" y="546.8060591539476"/>
      <point x="311.7951545690716" y="582.1483244625929" type="curve" smooth="yes"/>
      <point x="331.9864007669405" y="617.9036552700995"/>
      <point x="340.70026905897674" y="633.9797752701747"/>
      <point x="360.6419898399364" y="669.8748707077332" type="curve" smooth="yes"/>
      <point x="393.4228890679895" y="728.880486082884"/>
      <point x="472.0970429015238" y="685.1726204454798"/>
    </contour>
    <contour>
      <point x="504.00000351833114" y="418.9999967405936" type="curve" smooth="yes"/>
      <point x="455.261804583596" y="418.9999967405936"/>
      <point x="434.70547653432857" y="418.9999967405936"/>
      <point x="402.00000507187997" y="418.9999967405936" type="curve" smooth="yes"/>
      <point x="325.21885915769" y="418.9999967405936"/>
      <point x="235.32813741071666" y="474.98670583954174"/>
      <point x="199.81609920339957" y="537.8726118552037" type="curve" smooth="yes"/>
      <point x="179.7253091297625" y="573.4500554526485"/>
      <point x="169.76674130332876" y="589.9592113969012"/>
      <point x="149.6629359868447" y="626.1460629507387" type="curve" smooth="yes"/>
      <point x="116.88203950578264" y="685.1516798519956"/>
      <point x="195.55619537412514" y="728.859541826745"/>
      <point x="228.3370918551872" y="669.8539249254882" type="curve" smooth="yes"/>
      <point x="248.23895691471265" y="634.0305658541071"/>
      <point x="257.8898020995456" y="618.064885127722"/>
      <point x="278.18392175427874" y="582.1273787016565" type="curve" smooth="yes"/>
      <point x="298.14190527227345" y="546.7851133986152"/>
      <point x="358.8485296284792" y="508.9999967405936"/>
      <point x="402.00000507187997" y="508.9999967405936" type="curve" smooth="yes"/>
      <point x="450.7382040066151" y="508.9999967405936"/>
      <point x="471.29453205588254" y="508.9999967405936"/>
      <point x="504.00000351833114" y="508.9999967405936" type="curve" smooth="yes"/>
      <point x="571.5000035183311" y="508.9999967405936"/>
      <point x="571.5000035183311" y="418.9999967405936"/>
    </contour>
    <contour>
      <point x="149.64198184372924" y="301.8748763126936" type="curve" smooth="yes"/>
      <point x="170.18372399625272" y="338.85001015984733"/>
      <point x="184.13072731365787" y="358.3259123337887"/>
      <point x="203.79515045673642" y="393.1483273412274" type="curve" smooth="yes"/>
      <point x="239.30719250091283" y="456.03423336686"/>
      <point x="325.1979152070914" y="509.0209406915112"/>
      <point x="401.9790611212814" y="509.0209406915112" type="curve" smooth="yes"/>
      <point x="450.71726005601647" y="509.0209406915112"/>
      <point x="471.2735881052839" y="509.0209406915112"/>
      <point x="503.9790595677325" y="509.0209406915112" type="curve" smooth="yes"/>
      <point x="571.4790595677325" y="509.0209406915112"/>
      <point x="571.4790595677325" y="419.0209406915112"/>
      <point x="503.9790595677325" y="419.0209406915112" type="curve" smooth="yes"/>
      <point x="455.24086063299745" y="419.0209406915112"/>
      <point x="434.68453258373" y="419.0209406915112"/>
      <point x="401.9790611212814" y="419.0209406915112" type="curve" smooth="yes"/>
      <point x="358.7849939646973" y="419.0209406915112"/>
      <point x="302.1406557277659" y="384.27070598774384"/>
      <point x="282.16297096335927" y="348.8935568747371" type="curve" smooth="yes"/>
      <point x="261.36419548703424" y="312.0623930000901"/>
      <point x="247.73754393483318" y="293.1255436220986"/>
      <point x="228.31613567726356" y="258.16701067528936" type="curve" smooth="yes"/>
      <point x="195.53523644921043" y="199.16139530013862"/>
      <point x="116.86108261567611" y="242.86926093754283"/>
    </contour>
    <contour>
      <point x="229.316147858896" y="668.8748688916367" type="curve" smooth="yes"/>
      <point x="249.22796882890646" y="633.0335891803999"/>
      <point x="258.7804166357636" y="616.9224692597434"/>
      <point x="279.07795640749737" y="581.298210321546" type="curve" smooth="yes"/>
      <point x="307.6516228310761" y="531.148502379858"/>
      <point x="361.13869628559263" y="438.50010738335817"/>
      <point x="389.965044421381" y="388.49521489595327" type="curve" smooth="yes"/>
      <point x="410.1513411712606" y="353.4781675078602"/>
      <point x="419.1580832977787" y="337.15804645380575"/>
      <point x="439.0499974550715" y="302.3471948228447" type="curve" smooth="yes"/>
      <point x="472.5393744483514" y="243.74078196041148"/>
      <point x="394.39749063177374" y="199.08827930270502"/>
      <point x="360.90811363849383" y="257.69469216513824" type="curve" smooth="yes"/>
      <point x="340.92481561197644" y="292.6654655757672"/>
      <point x="332.0870931337177" y="308.68969447570595"/>
      <point x="311.9930734042292" y="343.5466694723199" type="curve" smooth="yes"/>
      <point x="283.07735261687606" y="393.7065961600944"/>
      <point x="229.5424322232545" y="486.43847704252295"/>
      <point x="200.88017655759847" y="536.7436681676112" type="curve" smooth="yes"/>
      <point x="180.40741132733842" y="572.6754657128175"/>
      <point x="170.72570856952942" y="589.016315092547"/>
      <point x="150.6419919905535" y="625.1670069168872" type="curve" smooth="yes"/>
      <point x="117.86109550949149" y="684.1726238181441"/>
      <point x="196.535251377834" y="727.8804857928935"/>
    </contour>
  </outline>
</glyph>
<glyph name="plus" format="2">
  <advance width="540"/>
  <unicode hex="002B"/>
  <outline>
    <contour>
      <point x="315.0000077372824" y="503.9999947605804" type="curve" smooth="yes"/>
      <point x="314.99999585720315" y="114.00000070062008" type="line" smooth="yes"/>
      <point x="314.99999380103554" y="46.500000700620106"/>
      <point x="224.9999938010356" y="46.50000344217686"/>
      <point x="224.99999585720317" y="114.00000344217683" type="curve" smooth="yes"/>
      <point x="225.0000077372824" y="503.99999750213715" type="line" smooth="yes"/>
      <point x="225.00000979344998" y="571.4999975021371"/>
      <point x="315.00000979345" y="571.4999947605804"/>
    </contour>
    <contour>
      <point x="459.99999887291557" y="262.9999991166095" type="curve" smooth="yes"/>
      <point x="80.00000466064647" y="262.9999991166095" type="line" smooth="yes"/>
      <point x="12.500004660646468" y="262.9999991166095"/>
      <point x="12.500004660646496" y="352.9999991166095"/>
      <point x="80.0000046606465" y="352.9999991166095" type="curve" smooth="yes"/>
      <point x="459.99999887291557" y="352.9999991166095" type="line" smooth="yes"/>
      <point x="527.4999988729155" y="352.9999991166095"/>
      <point x="527.4999988729155" y="262.9999991166095"/>
    </contour>
  </outline>
</glyph>
<glyph name="comma" format="2">
  <advance width="269"/>
  <unicode hex="002C"/>
  <outline>
    <contour>
      <point x="66.00961763971145" y="-91.48084767437773" type="curve" smooth="yes"/>
      <point x="90.54411314496716" y="-48.98572437611156"/>
      <point x="114.48078191355584" y="24.34912038493894"/>
      <point x="88.74933095815814" y="47.68665714024734" type="curve" smooth="yes"/>
      <point x="38.750514874991694" y="93.03385540300329"/>
      <point x="99.21344589199961" y="159.6989435138919"/>
      <point x="149.21226197516606" y="114.35174525113592" type="curve" smooth="yes"/>
      <point x="207.4485469137623" y="61.53344741775998"/>
      <point x="199.47925896009912" y="-40.30435218526891"/>
      <point x="143.9519638399979" y="-136.48074399419934" type="curve" smooth="yes"/>
      <point x="110.20204160013164" y="-194.93750364441414"/>
      <point x="32.2596953998452" y="-149.93760732459253"/>
    </contour>
  </outline>
</glyph>
<glyph name="period" format="2">
  <advance width="260"/>
  <unicode hex="002E"/>
  <outline>
    <contour>
      <point x="88.97904981909556" y="36.01533929341169" type="curve" smooth="yes"/>
      <point x="88.97730375691353" y="50.026388103646646"/>
      <point x="88.97730447328757" y="75.01796407195242"/>
      <point x="88.9790514194471" y="90.02618435579448" type="curve" smooth="yes"/>
      <point x="88.98690837135338" y="157.52618389852267"/>
      <point x="178.98690776165765" y="157.51570796264764"/>
      <point x="178.97905080975136" y="90.01570841991942" type="curve" smooth="yes"/>
      <point x="178.97730577647042" y="75.02392190116254"/>
      <point x="178.9773049699634" y="50.022262059461056"/>
      <point x="178.97904912023483" y="36.02655512723627" type="curve" smooth="yes"/>
      <point x="178.9874609956033" y="-31.473444348618195"/>
      <point x="88.98746169446402" y="-31.484660182442774"/>
    </contour>
  </outline>
</glyph>
<glyph name="slash" format="2">
  <advance width="490"/>
  <unicode hex="002F"/>
  <outline>
    <contour>
      <point x="420.74077735624286" y="715.9206806426502" type="curve" smooth="yes"/>
      <point x="140.74075572840627" y="-134.07930641110957" type="line" smooth="yes"/>
      <point x="119.6217876586086" y="-198.19045355157857"/>
      <point x="34.14025813798324" y="-170.031829458515"/>
      <point x="55.25922620778091" y="-105.920682318046" type="curve" smooth="yes"/>
      <point x="335.2592478356175" y="744.0793047357137" type="line" smooth="yes"/>
      <point x="356.3782159054151" y="808.1904518761827"/>
      <point x="441.8597454260405" y="780.0318277831192"/>
    </contour>
  </outline>
</glyph>
<glyph name="zero" format="2">
  <advance width="592"/>
  <unicode hex="0030"/>
  <outline>
    <contour>
      <point x="337.83195949495547" y="86.05077050484918" type="curve" smooth="yes"/>
      <point x="364.8808947109928" y="94.31743500362869"/>
      <point x="383.94987364317114" y="111.72060545934974"/>
      <point x="401.3029162402682" y="132.70135384706043" type="curve" smooth="yes"/>
      <point x="439.43518905451634" y="178.8052930779315"/>
      <point x="461.97905298837674" y="255.0334319614688"/>
      <point x="461.97905560770613" y="341.0209439356867" type="curve" smooth="yes"/>
      <point x="461.97906005057666" y="486.8717816838515"/>
      <point x="400.0411826549182" y="600.0209379347236"/>
      <point x="295.97906808178936" y="600.0209379347236" type="curve" smooth="yes"/>
      <point x="191.04509979559523" y="600.0209379347236"/>
      <point x="129.97906648022678" y="486.9447408421188"/>
      <point x="129.97906203513364" y="341.02094119413" type="curve" smooth="yes"/>
      <point x="129.97905941580424" y="255.03342921991208"/>
      <point x="152.51830722541004" y="178.8067828658582"/>
      <point x="190.65394040860846" y="132.70286093156687" type="curve" smooth="yes"/>
      <point x="208.00853100835198" y="111.72209770761512"/>
      <point x="227.08388831014196" y="94.31779136222214"/>
      <point x="254.13544588851795" y="86.05112686344262" type="curve" smooth="yes"/>
      <point x="318.6885695097142" y="66.3243878844184"/>
      <point x="292.3862508710152" y="-19.746443610509928"/>
      <point x="227.83312724981892" y="-0.019704631485701896" type="curve" smooth="yes"/>
      <point x="183.0226618670992" y="13.673890729146244"/>
      <point x="150.05176427499288" y="40.58473819718965"/>
      <point x="121.30416706000963" y="75.33903141768265" type="curve" smooth="yes"/>
      <point x="71.68513894682957" y="135.32575794182316"/>
      <point x="39.97905862707228" y="229.14088799076833"/>
      <point x="39.97906203513369" y="341.0209439356867" type="curve" smooth="yes"/>
      <point x="39.979068401777994" y="550.0255465950197"/>
      <point x="145.68362347283076" y="690.0209379347236"/>
      <point x="295.97906808178936" y="690.0209379347236" type="curve" smooth="yes"/>
      <point x="445.1748901604644" y="690.0209379347236"/>
      <point x="551.9790619775338" y="550.1300461547927"/>
      <point x="551.9790556077061" y="341.02094119413" type="curve" smooth="yes"/>
      <point x="551.9790521996448" y="229.14088524921158"/>
      <point x="520.2698385696049" y="135.3272875312523"/>
      <point x="470.6551826990622" y="75.34053850218909" type="curve" smooth="yes"/>
      <point x="441.9101497252987" y="40.58626985768827"/>
      <point x="408.942731774724" y="13.674247087739687"/>
      <point x="364.13661029258975" y="-0.019348272892258933" type="curve" smooth="yes"/>
      <point x="299.58402120928366" y="-19.747836371117995"/>
      <point x="273.2793704116494" y="66.32228240662344"/>
    </contour>
  </outline>
</glyph>
<glyph name="one" format="2">
  <advance width="344"/>
  <unicode hex="0031"/>
  <outline>
    <contour>
      <point x="51.04386063086383" y="632.7927061344835" type="curve" smooth="yes"/>
      <point x="117.36231226284448" y="654.412282202692"/>
      <point x="139.27689968852107" y="667.0051872265421"/>
      <point x="170.99049244679114" y="667.0069755795405" type="curve" smooth="yes"/>
      <point x="236.3361453729053" y="667.0106604693369"/>
      <point x="263.9790669377056" y="630.9628860446375"/>
      <point x="263.97906355822073" y="520.0209384678042" type="curve" smooth="yes"/>
      <point x="263.9790590300368" y="371.36943171686204"/>
      <point x="263.97905548403276" y="254.96099039649687"/>
      <point x="263.9790527443024" y="165.02094387476316" type="curve" smooth="yes"/>
      <point x="263.9790509256056" y="105.31665017971275"/>
      <point x="263.97939473583045" y="82.67168564672568"/>
      <point x="263.9842846284832" y="40.02087038703616" type="curve" smooth="yes"/>
      <point x="263.9920234665308" y="-27.479129169337064"/>
      <point x="173.9920240580332" y="-27.48944762006723"/>
      <point x="173.98428521998557" y="40.010551936305994" type="curve" smooth="yes"/>
      <point x="173.9810038873122" y="68.63112167040443"/>
      <point x="173.979051523877" y="124.95674407482059"/>
      <point x="173.97905274430244" y="165.02094661632006" type="curve" smooth="yes"/>
      <point x="173.97905682709114" y="299.05099368684137"/>
      <point x="173.97906051961067" y="420.26925324889277"/>
      <point x="173.97906355822076" y="520.0209412093609" type="curve" smooth="yes"/>
      <point x="173.97906372593243" y="525.5265975864751"/>
      <point x="174.2384411938227" y="577.0071585906816"/>
      <point x="170.99556761347398" y="577.0069757226368" type="curve" smooth="yes"/>
      <point x="160.76812403755906" y="577.0063989895142"/>
      <point x="100.3260131944131" y="554.196920497019"/>
      <point x="78.93871005036138" y="547.2247368009557" type="curve" smooth="yes"/>
      <point x="14.762733050215516" y="526.3035997363326"/>
      <point x="-13.13211636928203" y="611.8715690698604"/>
    </contour>
  </outline>
</glyph>
<glyph name="two" format="2">
  <advance width="505"/>
  <unicode hex="0032"/>
  <outline>
    <contour>
      <point x="80.2538574805777" y="656.3762281754117" type="curve" smooth="yes"/>
      <point x="135.04516887874198" y="679.8637948931596"/>
      <point x="189.64319337145355" y="696.6327401591385"/>
      <point x="274.6413415593816" y="687.7787663638766" type="curve" smooth="yes"/>
      <point x="362.9231835501417" y="678.5827411298272"/>
      <point x="456.97906473748645" y="614.9839488522758"/>
      <point x="456.9790612964364" y="502.02093874195975" type="curve" smooth="yes"/>
      <point x="456.9790587114421" y="417.1605788116796"/>
      <point x="414.12107976185894" y="361.7892941289345"/>
      <point x="324.459084700382" y="261.95289169604075" type="curve" smooth="yes"/>
      <point x="260.29000696716605" y="190.50221893409278"/>
      <point x="225.0257646198227" y="153.27119782450345"/>
      <point x="177.7019501898285" y="103.13421670012312" type="curve" smooth="yes"/>
      <point x="173.63717103261052" y="98.8278065272557"/>
      <point x="144.70995228228628" y="90.01064963071164"/>
      <point x="149.98934880828625" y="90.01064963071164" type="curve" smooth="yes"/>
      <point x="226.5313508085893" y="90.01064963071164"/>
      <point x="269.4336181851361" y="90.02094707324613"/>
      <point x="335.97904853296666" y="90.02094707324613" type="curve" smooth="yes"/>
      <point x="365.55866512543497" y="90.02094707324613"/>
      <point x="403.3923589905089" y="90.01937371896983"/>
      <point x="421.9871783920831" y="90.01745617548944" type="curve" smooth="yes"/>
      <point x="489.48717803317743" y="90.01049540968218"/>
      <point x="489.4778970121009" y="0.010495888223014298"/>
      <point x="421.9778973710066" y="0.017456654030283403" type="curve" smooth="yes"/>
      <point x="396.5879662838967" y="0.020074926129225245"/>
      <point x="376.36795528418395" y="0.020947073246125887"/>
      <point x="335.97904853296666" y="0.020947073246134096" type="curve" smooth="yes"/>
      <point x="256.196586205122" y="0.020947073246141867"/>
      <point x="213.83194078650962" y="0.010649630711633674"/>
      <point x="149.98934880828625" y="0.010649630711640157" type="curve" smooth="yes"/>
      <point x="39.17888121699481" y="0.010649630711651403"/>
      <point x="26.936083100648514" y="74.52293208996443"/>
      <point x="112.25266745805436" y="164.9111653937604" type="curve" smooth="yes"/>
      <point x="159.12454420666037" y="214.56934337697226"/>
      <point x="193.94275930762518" y="251.32066892306952"/>
      <point x="257.49902878443" y="322.08899492640126" type="curve" smooth="yes"/>
      <point x="320.73038778197844" y="392.4955411886124"/>
      <point x="366.9790594734487" y="442.17578769529644"/>
      <point x="366.9790612964364" y="502.0209414835165" type="curve" smooth="yes"/>
      <point x="366.97906314897665" y="562.8362525419711"/>
      <point x="312.844632276509" y="593.3122930597107"/>
      <point x="265.31679394926965" y="598.2631095664941" type="curve" smooth="yes"/>
      <point x="198.33695679268305" y="605.2401759572128"/>
      <point x="158.89009539356198" y="592.1647846339224"/>
      <point x="115.71370633940498" y="573.6562238299747" type="curve" smooth="yes"/>
      <point x="53.673703080327186" y="547.0613371858542"/>
      <point x="18.2138542214999" y="629.7813415312912"/>
    </contour>
  </outline>
</glyph>
<glyph name="three" format="2">
  <advance width="488"/>
  <unicode hex="0033"/>
  <outline>
    <contour>
      <point x="107.81944208350515" y="105.33262745134863" type="curve" smooth="yes"/>
      <point x="146.20677485550922" y="88.75697114645357"/>
      <point x="189.0352915221756" y="80.72055000737524"/>
      <point x="232.66573015329337" y="81.02214109787386" type="curve" smooth="yes"/>
      <point x="302.49567844482914" y="81.50483370687472"/>
      <point x="364.97776673022753" y="126.92854669932687"/>
      <point x="364.9839389775132" y="196.02007789740432" type="curve" smooth="yes"/>
      <point x="364.9891145598986" y="253.95503987989898"/>
      <point x="318.6144509170205" y="287.71876713799685"/>
      <point x="240.66015008687822" y="300.6037928941546" type="curve" smooth="yes"/>
      <point x="226.25072854661565" y="302.98551867067295"/>
      <point x="211.4401515203167" y="304.1359932548333"/>
      <point x="196.19158453054925" y="305.08902871236853" type="curve" smooth="yes"/>
      <point x="182.24608701621165" y="305.96062232592277"/>
      <point x="165.79879638107465" y="307.00140702538516"/>
      <point x="149.99797174757367" y="307.0015692451415" type="curve" smooth="yes"/>
      <point x="82.49797175113099" y="307.00226223753793"/>
      <point x="82.49889574099291" y="397.0022622327948"/>
      <point x="149.9988957374356" y="397.0015692403984" type="curve" smooth="yes"/>
      <point x="168.1860381105745" y="397.00138252142165"/>
      <point x="185.7540157185971" y="395.91698670796217"/>
      <point x="201.805630405831" y="394.91376076824633" type="curve" smooth="yes"/>
      <point x="220.51562845442191" y="393.7443858648414"/>
      <point x="237.65669681977647" y="392.32137525872054"/>
      <point x="255.33706305225923" y="389.39899673876903" type="curve" smooth="yes"/>
      <point x="386.3516145731694" y="367.7436697997629"/>
      <point x="454.9926370044632" y="293.38091906920886"/>
      <point x="454.983938618385" y="196.0120378056034" type="curve" smooth="yes"/>
      <point x="454.97332913329876" y="77.25050154567234"/>
      <point x="353.3186338927218" y="-8.146007774014612"/>
      <point x="233.28783138700013" y="-8.975708821193763" type="curve" smooth="yes"/>
      <point x="176.88724108812414" y="-9.36557232169205"/>
      <point x="121.76434066413964" y="1.2793041748647185"/>
      <point x="72.14145590138449" y="22.70647358958155" type="curve" smooth="yes"/>
      <point x="10.171840505059208" y="49.46496322617212"/>
      <point x="45.84982668717987" y="132.0911170879392"/>
    </contour>
    <contour>
      <point x="403.99686769824143" y="590.0031357287523" type="curve" smooth="yes"/>
      <point x="389.87707571202014" y="590.0031357287523"/>
      <point x="366.40154735668034" y="590.002673859467"/>
      <point x="340.9960505491358" y="590.003135736189" type="curve" smooth="yes"/>
      <point x="326.2783029818949" y="590.0034033076146"/>
      <point x="296.4336386463827" y="590.0044741230536"/>
      <point x="275.9914346412061" y="590.00575381079" type="curve" smooth="yes"/>
      <point x="219.2215640702269" y="590.0093076206988"/>
      <point x="153.31024643365066" y="590.021143348646"/>
      <point x="90.97921829650899" y="590.0209380872764" type="curve" smooth="yes"/>
      <point x="23.47921829687499" y="590.0207158037557"/>
      <point x="23.478921918847362" y="680.0207158032678"/>
      <point x="90.97892191848136" y="680.0209380867884" type="curve" smooth="yes"/>
      <point x="136.0408780772539" y="680.0210864796376"/>
      <point x="197.4714450779667" y="680.0106693606275"/>
      <point x="275.99706866672994" y="680.0057536344442" type="curve" smooth="yes"/>
      <point x="306.46035694596117" y="680.0038466240064"/>
      <point x="319.06507192401267" y="680.0035344603884"/>
      <point x="340.9976867664368" y="680.0031357213156" type="curve" smooth="yes"/>
      <point x="375.75614467782924" y="680.0025038059971"/>
      <point x="393.67572091932243" y="680.0031357287523"/>
      <point x="403.99686769824143" y="680.0031357287523" type="curve" smooth="yes"/>
      <point x="471.49686769824143" y="680.0031357287523"/>
      <point x="471.49686769824143" y="590.0031357287523"/>
    </contour>
    <contour>
      <point x="118.15925601083475" y="386.84074798971403" type="curve" smooth="yes"/>
      <point x="129.57050830348913" y="398.2519999347619"/>
      <point x="142.53080383183806" y="411.036199431884"/>
      <point x="154.8071246791163" y="424.4285497129477" type="curve" smooth="yes"/>
      <point x="163.67477574969013" y="434.1023510728807"/>
      <point x="173.63282966256608" y="445.4411405414827"/>
      <point x="183.95983125681875" y="456.5943024347018" type="curve" smooth="yes"/>
      <point x="223.54603235316424" y="499.3474002758781"/>
      <point x="265.71885234235356" y="545.6601942549883"/>
      <point x="304.0749258838935" y="589.6099475682319" type="curve" smooth="yes"/>
      <point x="313.4264427068089" y="600.3252481588063"/>
      <point x="322.72758078689765" y="610.8605998823676"/>
      <point x="332.0218018749106" y="621.5489645411523" type="curve" smooth="yes"/>
      <point x="343.41520253544996" y="634.6513880589812"/>
      <point x="354.08213243993913" y="645.6368663517995"/>
      <point x="363.4091081544026" y="656.8292368000286" type="curve" smooth="yes"/>
      <point x="406.621556063973" y="708.6841723960031"/>
      <point x="475.761470191939" y="651.0675751832425"/>
      <point x="432.5490222823686" y="599.2126395872681" type="curve" smooth="yes"/>
      <point x="421.8881816412946" y="586.419631285616"/>
      <point x="409.9042089964644" y="573.9559880057293"/>
      <point x="399.936327343391" y="562.4929129427672" type="curve" smooth="yes"/>
      <point x="390.576052118498" y="551.7285859526039"/>
      <point x="381.1687128023453" y="541.0715991625029"/>
      <point x="371.8832022377854" y="530.4319308904636" type="curve" smooth="yes"/>
      <point x="332.92478040293685" y="485.7919854784145"/>
      <point x="290.20615984454173" y="438.8720776274719"/>
      <point x="249.99829238698413" y="395.44758010586685" type="curve" smooth="yes"/>
      <point x="240.1413191753959" y="384.8020488737278"/>
      <point x="230.44150398709849" y="373.74843155475855"/>
      <point x="221.15099789852562" y="363.61333380239665" type="curve" smooth="yes"/>
      <point x="207.62307518691605" y="348.85559964223097"/>
      <point x="194.37352358496472" y="335.7757945672196"/>
      <point x="181.7988653483375" y="323.2011367136382" type="curve" smooth="yes"/>
      <point x="134.06915689128064" y="275.4714297105112"/>
      <point x="70.4295475537779" y="339.111040986587"/>
    </contour>
  </outline>
</glyph>
<glyph name="four" format="2">
  <advance width="525"/>
  <unicode hex="0034"/>
  <outline>
    <contour>
      <point x="472" y="166" type="curve" smooth="yes"/>
      <point x="331" y="166"/>
      <point x="222" y="166"/>
      <point x="161" y="166" type="curve" smooth="yes"/>
      <point x="27" y="166"/>
      <point x="5" y="238"/>
      <point x="72" y="343" type="curve" smooth="yes"/>
      <point x="123" y="423"/>
      <point x="192" y="526"/>
      <point x="236" y="597" type="curve" smooth="yes"/>
      <point x="310" y="716"/>
      <point x="415" y="716"/>
      <point x="415" y="572" type="curve" smooth="yes"/>
      <point x="415" y="462"/>
      <point x="415" y="213"/>
      <point x="415" y="157" type="curve" smooth="yes"/>
      <point x="415" y="95"/>
      <point x="415" y="69"/>
      <point x="415" y="40" type="curve" smooth="yes"/>
      <point x="415" y="-28"/>
      <point x="325" y="-27"/>
      <point x="325" y="40" type="curve" smooth="yes"/>
      <point x="325" y="83"/>
      <point x="325" y="115"/>
      <point x="325" y="157" type="curve" smooth="yes"/>
      <point x="325" y="241"/>
      <point x="325" y="498"/>
      <point x="325" y="572" type="curve" smooth="yes"/>
      <point x="325" y="579"/>
      <point x="316" y="555"/>
      <point x="312" y="549" type="curve" smooth="yes"/>
      <point x="268" y="478"/>
      <point x="198" y="373"/>
      <point x="148" y="295" type="curve" smooth="yes"/>
      <point x="126" y="261"/>
      <point x="118" y="256"/>
      <point x="161" y="256" type="curve" smooth="yes"/>
      <point x="252" y="256"/>
      <point x="377" y="256"/>
      <point x="472" y="256" type="curve" smooth="yes"/>
      <point x="540" y="256"/>
      <point x="540" y="166"/>
    </contour>
  </outline>
</glyph>
<glyph name="five" format="2">
  <advance width="501"/>
  <unicode hex="0035"/>
  <outline>
    <contour>
      <point x="390.09478344997046" y="589.9999941361148" type="curve" smooth="yes"/>
      <point x="142.0947872272264" y="589.9999941361148" type="line"/>
      <point x="186.86986887974888" y="630.5064361905726" type="line"/>
      <point x="158.86986080738734" y="351.5064404399855" type="line"/>
      <point x="103.72479033633066" y="399.78884778698466" type="line"/>
      <point x="310.3993337899642" y="448.7331049205948"/>
      <point x="466.09477515205634" y="378.09554283591507"/>
      <point x="466.0947698792645" y="204.9999993146108" type="curve" smooth="yes"/>
      <point x="466.09476407702846" y="14.523829627085465"/>
      <point x="277.6779056379425" y="-55.7698133733446"/>
      <point x="78.81599500282385" y="22.097803165580856" type="curve" smooth="yes"/>
      <point x="15.962695501782164" y="46.709035191474086"/>
      <point x="48.77767153630647" y="130.51343452619636"/>
      <point x="111.63097103734816" y="105.90220250030312" type="curve" smooth="yes"/>
      <point x="243.91434755007268" y="54.10449421182578"/>
      <point x="376.0947660196045" y="78.29483870435374"/>
      <point x="376.0947698792645" y="205.00000205616757" type="curve" smooth="yes"/>
      <point x="376.09477340255444" y="320.6627857626254"/>
      <point x="262.56510568756084" y="344.9157981700345"/>
      <point x="124.46476797339905" y="312.21114898407075" type="curve" smooth="yes"/>
      <point x="94.37699196661129" y="305.08582130294263"/>
      <point x="66.23212688135008" y="329.7281298386829"/>
      <point x="69.31969750234238" y="360.4935563310699" type="curve" smooth="yes"/>
      <point x="97.31970557470392" y="639.493552081657" type="line" smooth="yes"/>
      <point x="99.62766700075106" y="662.4907321680182"/>
      <point x="118.98208557059063" y="679.9999941361148"/>
      <point x="142.0947872272264" y="679.9999941361148" type="curve" smooth="yes"/>
      <point x="390.09478344997046" y="679.9999941361148" type="line" smooth="yes"/>
      <point x="457.59478344997046" y="679.9999941361148"/>
      <point x="457.59478344997046" y="589.9999941361148"/>
    </contour>
  </outline>
</glyph>
<glyph name="six" format="2">
  <advance width="534"/>
  <unicode hex="0036"/>
  <outline>
    <contour>
      <point x="98.37530025629965" y="345.1547179522392" type="curve" smooth="yes"/>
      <point x="135.8975092656685" y="397.69943201560255"/>
      <point x="201.92927978311695" y="440.010071980605"/>
      <point x="281.9865822535065" y="440.01221508010195" type="curve" smooth="yes"/>
      <point x="405.3310820761407" y="440.015516959223"/>
      <point x="500.97905619657763" y="349.3524526477441"/>
      <point x="500.97905228737625" y="221.0209430218344" type="curve" smooth="yes"/>
      <point x="500.9790483144419" y="90.59720272260027"/>
      <point x="412.32444028530534" y="-7.9790528049069"/>
      <point x="276.97904940874173" y="-7.9790528049069" type="curve" smooth="yes"/>
      <point x="161.8515646551184" y="-7.9790528049069"/>
      <point x="39.97905361386155" y="79.06689382932181"/>
      <point x="39.97906077097138" y="314.0209443469203" type="curve" smooth="yes"/>
      <point x="39.97906892978994" y="581.8591525421059"/>
      <point x="181.7830578679329" y="687.0227594768102"/>
      <point x="313.97968731714815" y="687.0209379761445" type="curve" smooth="yes"/>
      <point x="358.46032917861373" y="687.0203250897259"/>
      <point x="402.8594252337704" y="676.1624532469086"/>
      <point x="442.53498333344436" y="654.5193319516975" type="curve" smooth="yes"/>
      <point x="501.79173665204246" y="622.1946171634922"/>
      <point x="458.6921169344355" y="543.1856127386948"/>
      <point x="399.4353636158374" y="575.5103275269" type="curve" smooth="yes"/>
      <point x="373.096155817653" y="589.8784346563262"/>
      <point x="343.50758116480614" y="597.0205311109474"/>
      <point x="313.9784472319582" y="597.0209379846879" type="curve" smooth="yes"/>
      <point x="216.6907610019315" y="597.0222784847139"/>
      <point x="129.9790667753043" y="511.13156135316854"/>
      <point x="129.97906077097133" y="314.0209416053635" type="curve" smooth="yes"/>
      <point x="129.97905577898183" y="150.14359582090876"/>
      <point x="196.67914997435895" y="82.0209471950931"/>
      <point x="276.97904940874173" y="82.0209471950931" type="curve" smooth="yes"/>
      <point x="361.634965840731" y="82.0209471950931"/>
      <point x="410.9790498023828" y="139.44342629256536"/>
      <point x="410.97905228737625" y="221.0209457633913" type="curve" smooth="yes"/>
      <point x="410.97905465316063" y="298.68506232319163"/>
      <point x="356.6350518561145" y="350.01421335522576"/>
      <point x="281.9889915144407" y="350.01221511234934" type="curve" smooth="yes"/>
      <point x="234.0444025916255" y="350.0109316563593"/>
      <point x="194.08896701206396" y="324.3201553599368"/>
      <point x="171.6177266515044" y="292.8522612628731" type="curve" smooth="yes"/>
      <point x="132.39088413447985" y="237.92044146646958"/>
      <point x="59.14845773927509" y="290.22289815583565"/>
    </contour>
  </outline>
</glyph>
<glyph name="seven" format="2">
  <advance width="483"/>
  <unicode hex="0037"/>
  <outline>
    <contour>
      <point x="75.00001426371057" y="679.9999941361148" type="curve" smooth="yes"/>
      <point x="413.0000091156762" y="679.9999941361148" type="line" smooth="yes"/>
      <point x="437.85282339338517" y="679.9999941361148"/>
      <point x="458.00000987273626" y="659.8528070430452"/>
      <point x="458.0000091156762" y="634.9999927653363" type="curve" smooth="yes"/>
      <point x="458.0000078972065" y="594.9999933745711" type="line" smooth="yes"/>
      <point x="458.00000770936214" y="588.8334268575422"/>
      <point x="456.7325945897562" y="582.7326639929989"/>
      <point x="454.2764322647481" y="577.076356960831" type="curve" smooth="yes"/>
      <point x="213.27641902912134" y="22.07636541396438" type="line" smooth="yes"/>
      <point x="186.3909623523436" y="-39.83827113734799"/>
      <point x="103.83811361726042" y="-3.9909955683109786"/>
      <point x="130.72357029403818" y="57.92364098300139" type="curve" smooth="yes"/>
      <point x="371.7235835296649" y="612.9236325298681" type="line"/>
      <point x="368.0000078972065" y="594.999996116128" type="line"/>
      <point x="368.0000091156762" y="634.9999955068932" type="line"/>
      <point x="413.0000091156762" y="589.9999941361148" type="line"/>
      <point x="75.00001426371057" y="589.9999941361148" type="line" smooth="yes"/>
      <point x="7.500014263710568" y="589.9999941361148"/>
      <point x="7.500014263710568" y="679.9999941361148"/>
    </contour>
  </outline>
</glyph>
<glyph name="eight" format="2">
  <advance width="535"/>
  <unicode hex="0038"/>
  <outline>
    <contour>
      <point x="198.23499892475473" y="-0.41573452038773695" type="curve" smooth="yes"/>
      <point x="105.02015242724836" y="24.77265412271682"/>
      <point x="44.97906945052124" y="101.24179350192831"/>
      <point x="44.98080262658873" y="202.01997325960016" type="curve" smooth="yes"/>
      <point x="44.98301072899223" y="330.4134729822592"/>
      <point x="143.09221183941642" y="404.00523432756444"/>
      <point x="268.9947673098339" y="404.0052343275645" type="curve" smooth="yes"/>
      <point x="333.5328495075949" y="404.00523432756455"/>
      <point x="379.9832680232679" y="437.15043295470264"/>
      <point x="379.9808065126851" y="496.0173132060087" type="curve" smooth="yes"/>
      <point x="379.97815207153025" y="559.4981166947588"/>
      <point x="334.6212558277677" y="599.0209379499545"/>
      <point x="268.9790680284813" y="599.0209379499545" type="curve" smooth="yes"/>
      <point x="202.7812805065392" y="599.0209379499545"/>
      <point x="155.9795615331467" y="557.9006179665168"/>
      <point x="155.97906592517782" y="496.0205797913108" type="curve" smooth="yes"/>
      <point x="155.97855455817643" y="432.1729188346223"/>
      <point x="202.69087142880772" y="404.02617827848206"/>
      <point x="267.9738233744661" y="404.02617827848206" type="curve" smooth="yes"/>
      <point x="393.87637884488373" y="404.02617827848206"/>
      <point x="489.97844351900727" y="330.4174859780587"/>
      <point x="489.9790518832531" y="202.02115789986527" type="curve" smooth="yes"/>
      <point x="489.97953059328427" y="100.98857644263"/>
      <point x="428.6225812528792" y="22.427532448638704"/>
      <point x="335.1612379089136" y="-1.5609884107693048" type="curve" smooth="yes"/>
      <point x="269.7804806327574" y="-18.342125976391852"/>
      <point x="247.4056305452607" y="68.83221705848308"/>
      <point x="312.7863878214169" y="85.61335462410563" type="curve" smooth="yes"/>
      <point x="367.32249448295653" y="99.61101917111014"/>
      <point x="399.97933121880294" y="143.066692911913"/>
      <point x="399.9790518842633" y="202.02073146413352" type="curve" smooth="yes"/>
      <point x="399.9786849937883" y="279.4536018546791"/>
      <point x="343.9027569000587" y="314.02617827848206"/>
      <point x="267.9738233744661" y="314.02617827848206" type="curve" smooth="yes"/>
      <point x="151.58061534196108" y="314.02617827848206"/>
      <point x="65.97815421001246" y="382.1870780115209"/>
      <point x="65.97906592806444" y="496.0213006169359" type="curve" smooth="yes"/>
      <point x="65.97994735429903" y="606.0733830381898"/>
      <point x="151.24797762672353" y="689.0209379499545"/>
      <point x="268.9790680284813" y="689.0209379499545" type="curve" smooth="yes"/>
      <point x="385.31410854073016" y="689.0209379499545"/>
      <point x="469.97610207344445" y="608.5255815458553"/>
      <point x="469.98080643400334" y="496.02107654375175" type="curve" smooth="yes"/>
      <point x="469.9852770212053" y="389.10724757247687"/>
      <point x="386.20861409038275" y="314.00523432756455"/>
      <point x="268.9947673098339" y="314.0052343275645" type="curve" smooth="yes"/>
      <point x="193.1037982510043" y="314.00523432756444"/>
      <point x="134.98213360319073" y="279.41087453799315"/>
      <point x="134.98080261327914" y="202.0184254459124" type="curve" smooth="yes"/>
      <point x="134.9797841881191" y="142.80053306146033"/>
      <point x="166.9390001565354" y="101.2689563209345"/>
      <point x="221.7126303391379" y="86.46810070326228" type="curve" smooth="yes"/>
      <point x="286.8755067568754" y="68.85987714247489"/>
      <point x="263.3978753424922" y="-18.02395808117513"/>
    </contour>
  </outline>
</glyph>
<glyph name="colon" format="2">
  <advance width="260"/>
  <unicode hex="003A"/>
  <outline>
    <contour>
      <point x="133.45276384974957" y="-4.521157888713667" type="curve" smooth="yes"/>
      <point x="48.5221068156627" y="7.968644672249283"/>
      <point x="48.52210745247429" y="116.03136106300195"/>
      <point x="133.45276524748337" y="128.5211636239648" type="curve" smooth="yes"/>
      <point x="200.23450689094375" y="138.34200793930302"/>
      <point x="213.32896597806138" y="49.29968574802251"/>
      <point x="146.547224334601" y="39.47884143268431" type="curve" smooth="yes"/>
      <point x="143.98294601048528" y="39.10174168082717"/>
      <point x="143.98294475055997" y="84.89826403753658"/>
      <point x="146.54722305170148" y="84.52116428567945" type="curve" smooth="yes"/>
      <point x="213.32896468249632" y="74.70031988421557"/>
      <point x="200.2345054805444" y="-14.342002290177545"/>
    </contour>
    <contour>
      <point x="133.4527748159765" y="355.4788366281728" type="curve" smooth="yes"/>
      <point x="48.52211778188964" y="367.96863918913573"/>
      <point x="48.52211841870116" y="476.0313555798884"/>
      <point x="133.4527762137103" y="488.5211581408513" type="curve" smooth="yes"/>
      <point x="200.23451785717066" y="498.3420024561896"/>
      <point x="213.3289769442884" y="409.2996802649091"/>
      <point x="146.54723530082805" y="399.4788359495708" type="curve" smooth="yes"/>
      <point x="143.98295697671233" y="399.10173619771376"/>
      <point x="143.9829557167871" y="444.89825855442297"/>
      <point x="146.5472340179286" y="444.52115880256594" type="curve" smooth="yes"/>
      <point x="213.3289756487234" y="434.70031440110193"/>
      <point x="200.23451644677132" y="345.6579922267088"/>
    </contour>
  </outline>
</glyph>
<glyph name="semicolon" format="2">
  <advance width="279"/>
  <unicode hex="003B"/>
  <outline>
    <contour>
      <point x="89" y="395" type="curve" smooth="yes"/>
      <point x="89.0" y="425.0"/>
      <point x="89.0" y="418.0"/>
      <point x="89" y="449" type="curve" smooth="yes"/>
      <point x="89.0" y="516.0"/>
      <point x="179.0" y="516.0"/>
      <point x="179" y="449" type="curve" smooth="yes"/>
      <point x="179.0" y="418.0"/>
      <point x="179.0" y="425.0"/>
      <point x="179" y="395" type="curve" smooth="yes"/>
      <point x="179.0" y="327.0"/>
      <point x="89.0" y="327.0"/>
    </contour>
    <contour>
      <point x="78.0" y="-86.0" type="curve" smooth="yes"/>
      <point x="108.0" y="-34.0"/>
      <point x="130.0" y="10.0"/>
      <point x="100.0" y="39.0" type="curve" smooth="yes"/>
      <point x="40.0" y="93.0"/>
      <point x="109.0" y="160.0"/>
      <point x="159.0" y="114.0" type="curve" smooth="yes"/>
      <point x="217.0" y="61.0"/>
      <point x="209.0" y="-40.0"/>
      <point x="154.0" y="-137.0" type="curve" smooth="yes"/>
      <point x="120.0" y="-195.0"/>
      <point x="37.0" y="-156.0"/>
    </contour>
  </outline>
</glyph>
<glyph name="less" format="2">
  <advance width="447"/>
  <unicode hex="003C"/>
  <outline>
    <contour>
      <point x="379.0" y="436.0" type="curve" smooth="yes"/>
      <point x="319.0" y="401.0"/>
      <point x="240.0" y="352.0"/>
      <point x="180.0" y="317.0" type="curve" smooth="yes"/>
      <point x="160.0" y="305.0"/>
      <point x="162.0" y="309.0"/>
      <point x="183.0" y="297.0" type="curve" smooth="yes"/>
      <point x="245.0" y="262.0"/>
      <point x="318.0" y="216.0"/>
      <point x="379.0" y="180.0" type="curve" smooth="yes"/>
      <point x="437.0" y="145.0"/>
      <point x="391.0" y="68.0"/>
      <point x="333.0" y="102.0" type="curve" smooth="yes"/>
      <point x="272.0" y="138.0"/>
      <point x="211.0" y="171.0"/>
      <point x="92.0" y="246.0" type="curve" smooth="yes"/>
      <point x="27.0" y="287.0"/>
      <point x="30.0" y="335.0"/>
      <point x="88.0" y="367.0" type="curve" smooth="yes"/>
      <point x="211.0" y="435.0"/>
      <point x="272.0" y="477.0"/>
      <point x="333.0" y="514.0" type="curve" smooth="yes"/>
      <point x="391.0" y="548.0"/>
      <point x="437.0" y="471.0"/>
    </contour>
  </outline>
</glyph>
<glyph name="greater" format="2">
  <advance width="447"/>
  <unicode hex="003E"/>
  <outline>
    <contour>
      <point x="66.79458258215416" y="179.59947349786205" type="curve" smooth="yes"/>
      <point x="343.794583419852" y="345.5994709695375" type="line"/>
      <point x="343.4891999337665" y="268.5851866284175" type="line"/>
      <point x="66.48920930075207" y="437.5851840544003" type="line" smooth="yes"/>
      <point x="8.866990545617796" y="472.74097882191273"/>
      <point x="55.74138356896765" y="549.5706038287584"/>
      <point x="113.36360232410192" y="514.414809061246" type="curve" smooth="yes"/>
      <point x="390.36359295711634" y="345.4148116352632" type="line" smooth="yes"/>
      <point x="419.24769221935406" y="327.79238251598866"/>
      <point x="419.0811540950779" y="285.79333855639044"/>
      <point x="390.0582094710308" y="268.4005272941432" type="curve" smooth="yes"/>
      <point x="113.0582086333329" y="102.40052982246777" type="line" smooth="yes"/>
      <point x="55.15900087678719" y="67.70281028408372"/>
      <point x="8.895374825608457" y="144.90175395947801"/>
    </contour>
  </outline>
</glyph>
<glyph name="question" format="2">
  <advance width="511"/>
  <unicode hex="003F"/>
  <outline>
    <contour>
      <point x="70.72707455947322" y="652.582563387315" type="curve" smooth="yes"/>
      <point x="129.72851270573364" y="677.0737260817447"/>
      <point x="188.65703884906827" y="688.0209379651853"/>
      <point x="240.9790682417135" y="688.0209379651853" type="curve" smooth="yes"/>
      <point x="377.8370161480658" y="688.0209379651853"/>
      <point x="471.97601627810093" y="612.6292068395717"/>
      <point x="471.9815047246631" y="509.0208803313432" type="curve" smooth="yes"/>
      <point x="471.9852135529285" y="439.0073554618975"/>
      <point x="425.2088306192465" y="372.8246675754272"/>
      <point x="338.35675090693235" y="336.49438632873495" type="curve" smooth="yes"/>
      <point x="276.9917706392023" y="310.8253753020679"/>
      <point x="270.979058007575" y="299.5539869165692"/>
      <point x="270.9790569860999" y="266.0209423364453" type="curve" smooth="yes"/>
      <point x="270.9790549299323" y="198.5209423364453"/>
      <point x="180.9790549299324" y="198.52094507800203"/>
      <point x="180.97905698609998" y="266.020945078002" type="curve" smooth="yes"/>
      <point x="180.97905879965492" y="325.5564406484744"/>
      <point x="194.67671700219114" y="373.9495903480012"/>
      <point x="303.6258016038639" y="419.5230630645935" type="curve" smooth="yes"/>
      <point x="350.1318176072759" y="438.97655970697235"/>
      <point x="381.98349078872286" y="471.526508378573"/>
      <point x="381.98150485093953" y="509.01611275902013" type="curve" smooth="yes"/>
      <point x="381.9784661202878" y="566.379848374347"/>
      <point x="316.7517730535479" y="598.0209379651853"/>
      <point x="240.9790682417135" y="598.0209379651853" type="curve" smooth="yes"/>
      <point x="199.3132903099614" y="598.0209379651853"/>
      <point x="152.21587864154947" y="588.9624436135455"/>
      <point x="105.23106463504878" y="569.4593135178314" type="curve" smooth="yes"/>
      <point x="42.88862723293617" y="543.5813209611498"/>
      <point x="8.384637157360615" y="626.7045708306333"/>
    </contour>
    <contour>
      <point x="181.97905031409886" y="36.01533929341169" type="curve" smooth="yes"/>
      <point x="181.97730425191682" y="50.026388103646646"/>
      <point x="181.97730496829084" y="75.0179640719525"/>
      <point x="181.97905191445042" y="90.02618435579457" type="curve" smooth="yes"/>
      <point x="181.98690886635688" y="157.5261838985228"/>
      <point x="271.98690825666114" y="157.51570796264753"/>
      <point x="271.9790513047547" y="90.01570841991933" type="curve" smooth="yes"/>
      <point x="271.9773062714737" y="75.02392190116245"/>
      <point x="271.9773054649669" y="50.022262059461056"/>
      <point x="271.9790496152381" y="36.02655512723627" type="curve" smooth="yes"/>
      <point x="271.98746149060656" y="-31.473444348618195"/>
      <point x="181.98746218946732" y="-31.484660182442774"/>
    </contour>
  </outline>
</glyph>
<glyph name="at" format="2">
  <advance width="956"/>
  <unicode hex="0040"/>
  <outline>
    <contour>
      <point x="674.979059156499" y="428.0209398690441" type="curve" smooth="yes"/>
      <point x="674.9790575233834" y="374.4089210408358"/>
      <point x="674.9790561877663" y="330.56320537250065"/>
      <point x="674.9790541607733" y="264.0209423669069" type="curve" smooth="yes"/>
      <point x="674.9790504341528" y="141.68320236493958"/>
      <point x="591.5732768985691" y="57.02094620508649"/>
      <point x="481.97905148014013" y="57.02094620508649" type="curve" smooth="yes"/>
      <point x="371.221260084201" y="57.02094620508649"/>
      <point x="287.9790550528303" y="144.80545110863136"/>
      <point x="287.97905877572725" y="267.0209450627712" type="curve" smooth="yes"/>
      <point x="287.97906254493324" y="390.75667951757566"/>
      <point x="374.82871971030164" y="477.02079553345845"/>
      <point x="481.9864351887951" y="477.01570514039605" type="curve" smooth="yes"/>
      <point x="590.3114247220292" y="477.0105592974416"/>
      <point x="674.9965114011488" y="393.6155804434118"/>
      <point x="674.9965076357093" y="270.0034889830905" type="curve" smooth="yes"/>
      <point x="674.9965054119644" y="197.0022458752255"/>
      <point x="701.4785377166857" y="162.01323038254006"/>
      <point x="738.9813088206621" y="162.01570989054122" type="curve" smooth="yes"/>
      <point x="792.7437867953947" y="162.01926441439045"/>
      <point x="821.979049384108" y="225.7122712173423"/>
      <point x="821.9790520132206" y="312.0209443773821" type="curve" smooth="yes"/>
      <point x="821.9790572345914" y="483.42842660592123"/>
      <point x="691.6038427204618" y="599.0209379499545"/>
      <point x="499.97906771624844" y="599.0209379499545" type="curve" smooth="yes"/>
      <point x="300.1185502599659" y="599.0209379499545"/>
      <point x="156.9790679083841" y="456.32838401822363"/>
      <point x="156.97906192851755" y="260.0209424278305" type="curve" smooth="yes"/>
      <point x="156.9790558464212" y="60.357498375293694"/>
      <point x="295.4147455862141" y="-63.97905058119969"/>
      <point x="487.9790449613274" y="-63.979050581199715" type="curve"/>
      <point x="487.9790449613274" y="-63.979050581199715" type="line"/>
      <point x="541.4850217771381" y="-63.979050581199715"/>
      <point x="599.5946586075055" y="-53.64838353575696"/>
      <point x="659.5646943155957" y="-33.359453401997115" type="curve" smooth="yes"/>
      <point x="723.5045628137865" y="-11.727458199656915"/>
      <point x="752.3472230835733" y="-96.98061619724464"/>
      <point x="688.4073545853826" y="-118.61261139958484" type="curve" smooth="yes"/>
      <point x="618.371187345765" y="-142.30709293829133"/>
      <point x="550.466143665617" y="-153.97905058119971"/>
      <point x="487.9790449613274" y="-153.97905058119971" type="curve"/>
      <point x="487.9790449613274" y="-153.97905058119971"/>
      <point x="487.9790449613274" y="-153.97905058119971"/>
      <point x="487.9790449613274" y="-153.97905058119971" type="curve"/>
      <point x="246.5278476194875" y="-153.9790505811997"/>
      <point x="66.97905430234051" y="9.668321197433443"/>
      <point x="66.97906192851761" y="260.02094516938723" type="curve" smooth="yes"/>
      <point x="66.97906941152998" y="505.6737502979996"/>
      <point x="249.88005796992377" y="689.0209379499545"/>
      <point x="499.97906771624844" y="689.0209379499545" type="curve" smooth="yes"/>
      <point x="744.2497887102745" y="689.0209379499545"/>
      <point x="911.9790586690824" y="530.5199810570869"/>
      <point x="911.9790520132206" y="312.0209416358251" type="curve" smooth="yes"/>
      <point x="911.9790472844034" y="156.78303702141298"/>
      <point x="835.6863987201652" y="72.0221033825445"/>
      <point x="738.9872592001021" y="72.01571008724684" type="curve" smooth="yes"/>
      <point x="665.5476353330838" y="72.01085460244873"/>
      <point x="584.9965032810711" y="127.0491532091686"/>
      <point x="584.9965076357093" y="270.00349172464723" type="curve" smooth="yes"/>
      <point x="584.996509777782" y="340.3235870830365"/>
      <point x="543.6057721024335" y="387.01277788942474"/>
      <point x="481.982159851534" y="387.0157052419433" type="curve" smooth="yes"/>
      <point x="421.26513244803186" y="387.0185895282841"/>
      <point x="377.97906091141095" y="337.1313020478798"/>
      <point x="377.97905877572725" y="267.02094232121436" type="curve" smooth="yes"/>
      <point x="377.97905665361617" y="197.35614902240906"/>
      <point x="418.84533255309776" y="147.0209462050865"/>
      <point x="481.97905148014013" y="147.0209462050865" type="curve" smooth="yes"/>
      <point x="544.324703035001" y="147.0209462050865"/>
      <point x="584.9790520407839" y="194.42579918675892"/>
      <point x="584.9790541607733" y="264.0209451084639" type="curve" smooth="yes"/>
      <point x="584.979055520975" y="308.6737252961448"/>
      <point x="584.9790580606066" y="392.0449240019077"/>
      <point x="584.979059156499" y="428.0209426106011" type="curve" smooth="yes"/>
      <point x="584.9790612126667" y="495.5209426106011"/>
      <point x="674.9790612126667" y="495.5209398690441"/>
    </contour>
  </outline>
</glyph>
<glyph name="A" format="2">
  <advance width="651"/>
  <unicode hex="0041"/>
  <outline>
    <contour>
      <point x="42.0" y="55.0" type="curve" smooth="yes"/>
      <point x="56" y="95"/>
      <point x="67" y="125"/>
      <point x="81.0" y="165.0" type="curve" smooth="yes"/>
      <point x="103.0" y="228.0"/>
      <point x="141.0" y="263.0"/>
      <point x="216.0" y="263.0" type="curve" smooth="yes"/>
      <point x="260" y="263"/>
      <point x="307" y="263"/>
      <point x="390.0" y="263.0" type="curve" smooth="yes"/>
      <point x="458" y="263.0"/>
      <point x="458" y="173"/>
      <point x="390.0" y="173.0" type="curve" smooth="yes"/>
      <point x="356" y="173"/>
      <point x="283.0" y="173.0"/>
      <point x="266.0" y="173.0" type="curve" smooth="yes"/>
      <point x="152.0" y="173.0"/>
      <point x="112" y="261"/>
      <point x="150.0" y="371.0" type="curve" smooth="yes"/>
      <point x="175" y="443"/>
      <point x="203" y="520"/>
      <point x="234.0" y="610.0" type="curve" smooth="yes"/>
      <point x="273.0" y="723.0"/>
      <point x="373" y="724"/>
      <point x="415.0" y="609.0" type="curve" smooth="yes"/>
      <point x="465" y="472"/>
      <point x="526.0" y="284.0"/>
      <point x="565.0" y="173.0" type="curve" smooth="yes"/>
      <point x="576" y="143"/>
      <point x="593.0" y="95.0"/>
      <point x="607.0" y="55.0" type="curve" smooth="yes"/>
      <point x="630.0" y="-8.0"/>
      <point x="545.0" y="-39.0"/>
      <point x="523.0" y="25.0" type="curve" smooth="yes"/>
      <point x="510" y="63"/>
      <point x="492.0" y="111.0"/>
      <point x="481.0" y="143.0" type="curve" smooth="yes"/>
      <point x="441.0" y="254.0"/>
      <point x="379.0" y="443.0"/>
      <point x="334.0" y="566.0" type="curve" smooth="yes"/>
      <point x="323" y="595"/>
      <point x="324" y="592"/>
      <point x="314.0" y="563.0" type="curve" smooth="yes"/>
      <point x="289.0" y="490.0"/>
      <point x="260.0" y="413.0"/>
      <point x="236.0" y="341.0" type="curve" smooth="yes"/>
      <point x="221" y="295"/>
      <point x="218.0" y="263.0"/>
      <point x="266.0" y="263.0" type="curve" smooth="yes"/>
      <point x="292.0" y="263.0"/>
      <point x="360.0" y="263.0"/>
      <point x="390.0" y="263.0" type="curve" smooth="yes"/>
      <point x="458.0" y="263.0"/>
      <point x="458.0" y="173.0"/>
      <point x="390.0" y="173.0" type="curve" smooth="yes"/>
      <point x="326" y="173"/>
      <point x="261" y="173"/>
      <point x="216.0" y="173.0" type="curve" smooth="yes"/>
      <point x="183.0" y="173.0"/>
      <point x="176.0" y="163.0"/>
      <point x="165.0" y="135.0" type="curve" smooth="yes"/>
      <point x="150" y="96"/>
      <point x="140.0" y="65.0"/>
      <point x="126.0" y="25.0" type="curve" smooth="yes"/>
      <point x="104.0" y="-39.0"/>
      <point x="19.0" y="-9.0"/>
    </contour>
  </outline>
</glyph>
<glyph name="C" format="2">
  <advance width="600"/>
  <unicode hex="0043"/>
  <outline>
    <contour>
      <point x="539.586673518854" y="46.33650647278645" type="curve" smooth="yes"/>
      <point x="482.9731018219114" y="9.37104512951514"/>
      <point x="412.5036796088183" y="-7.373039993880184"/>
      <point x="352.4312854960601" y="-7.976780324668816" type="curve" smooth="yes"/>
      <point x="183.19110356741936" y="-9.677680129469927"/>
      <point x="44.979055396480604" y="123.58681825612156"/>
      <point x="44.97906198944104" y="340.0209439509176" type="curve" smooth="yes"/>
      <point x="44.979068575813464" y="556.2387977374638"/>
      <point x="187.14453836126933" y="688.8742312099828"/>
      <point x="356.2063422366563" y="688.0203640286713" type="curve" smooth="yes"/>
      <point x="415.13704713601777" y="687.7227273435558"/>
      <point x="482.43031795797367" y="672.8620306043481"/>
      <point x="539.0438874377982" y="637.0438004588594" type="curve" smooth="yes"/>
      <point x="596.0860341546659" y="600.9544183925046"/>
      <point x="547.9668580661928" y="524.8982227700143"/>
      <point x="490.9247113493251" y="560.9876048363691" type="curve" smooth="yes"/>
      <point x="449.5521598697356" y="587.1631592876765"/>
      <point x="398.8176797402755" y="597.804002403706"/>
      <point x="355.7517920992179" y="598.0215119016993" type="curve" smooth="yes"/>
      <point x="230.8992018849275" y="598.6520950780407"/>
      <point x="134.9790668534945" y="499.6983992573234"/>
      <point x="134.979061989441" y="340.0209412093608" type="curve" smooth="yes"/>
      <point x="134.97905713267994" y="180.5828796103363"/>
      <point x="226.85457532914126" y="80.7656922335523"/>
      <point x="351.5268120420301" y="82.01867471485502" type="curve" smooth="yes"/>
      <point x="395.427033150999" y="82.45988126913805"/>
      <point x="449.0093407928414" y="94.68097657198045"/>
      <point x="490.3818938926754" y="121.69491451023904" type="curve" smooth="yes"/>
      <point x="546.9006999207649" y="158.598499229873"/>
      <point x="596.1054795469435" y="83.24009119242041"/>
    </contour>
  </outline>
</glyph>
<glyph name="D" format="2">
  <advance width="660"/>
  <unicode hex="0044"/>
  <outline>
    <contour>
      <point x="80" y="49" type="curve" smooth="yes"/>
      <point x="80" y="77"/>
      <point x="80" y="109"/>
      <point x="80" y="197" type="curve" smooth="yes"/>
      <point x="80" y="279"/>
      <point x="80" y="374"/>
      <point x="80" y="496" type="curve" smooth="yes"/>
      <point x="80" y="653"/>
      <point x="95" y="680"/>
      <point x="173" y="680" type="curve" smooth="yes"/>
      <point x="217" y="680"/>
      <point x="234" y="680"/>
      <point x="312" y="680" type="curve" smooth="yes"/>
      <point x="508" y="680"/>
      <point x="615" y="537"/>
      <point x="615" y="341" type="curve" smooth="yes"/>
      <point x="615" y="143"/>
      <point x="489" y="0"/>
      <point x="303" y="0" type="curve" smooth="yes"/>
      <point x="277" y="0"/>
      <point x="251" y="0"/>
      <point x="225" y="0" type="curve" smooth="yes"/>
      <point x="157" y="0"/>
      <point x="157" y="90"/>
      <point x="225" y="90" type="curve" smooth="yes"/>
      <point x="253" y="90"/>
      <point x="275" y="90"/>
      <point x="303" y="90" type="curve" smooth="yes"/>
      <point x="441" y="90"/>
      <point x="525" y="195"/>
      <point x="525" y="341" type="curve" smooth="yes"/>
      <point x="525" y="487"/>
      <point x="458" y="590"/>
      <point x="312" y="590" type="curve" smooth="yes"/>
      <point x="253" y="590"/>
      <point x="231" y="590"/>
      <point x="184" y="590.0" type="curve" smooth="yes"/>
      <point x="163" y="590"/>
      <point x="170" y="549"/>
      <point x="170" y="496" type="curve" smooth="yes"/>
      <point x="170" y="414"/>
      <point x="170" y="319"/>
      <point x="170" y="197" type="curve" smooth="yes"/>
      <point x="170" y="99"/>
      <point x="170" y="81"/>
      <point x="170" y="49" type="curve" smooth="yes"/>
      <point x="170" y="-19"/>
      <point x="80" y="-19"/>
    </contour>
  </outline>
</glyph>
<glyph name="E" format="2">
  <advance width="523"/>
  <unicode hex="0045"/>
  <outline>
    <contour>
      <point x="422.97949325853045" y="590.0157023561619" type="curve" smooth="yes"/>
      <point x="363.2688197481906" y="590.022082171549"/>
      <point x="346.3726311370089" y="590.0209380870324"/>
      <point x="293.9790672821686" y="590.0209380870324" type="curve" smooth="yes"/>
      <point x="250.11468824090701" y="590.0209380870324"/>
      <point x="237.0492665118114" y="590.0209380870324"/>
      <point x="205.97906862248527" y="590.0209380870324" type="curve" smooth="yes"/>
      <point x="168.3259595216154" y="590.0209380870324"/>
      <point x="169.9790682137681" y="581.1035455500896"/>
      <point x="169.9790670841673" y="544.0209381022632" type="curve" smooth="yes"/>
      <point x="169.9790654792664" y="491.3351471088994"/>
      <point x="169.98110716367654" y="461.1490493854093"/>
      <point x="169.98604436210314" y="426.0202845117699" type="curve" smooth="yes"/>
      <point x="169.98801439046343" y="412.003294088651"/>
      <point x="176.6534474917939" y="394.9999984769129"/>
      <point x="189.0000041504123" y="394.9999984769129" type="curve" smooth="yes"/>
      <point x="242.6120229786209" y="394.9999984769129"/>
      <point x="298.11816253772105" y="394.9999984769129"/>
      <point x="339.00000186578166" y="394.9999984769129" type="curve" smooth="yes"/>
      <point x="345.3352776969817" y="394.9999984769129"/>
      <point x="345.31433374638317" y="305.0209424278305"/>
      <point x="338.9790579151831" y="305.0209424278305" type="curve" smooth="yes"/>
      <point x="285.3670390869747" y="305.0209424278305"/>
      <point x="232.49617308576603" y="305.0209424278305"/>
      <point x="189.97906018458283" y="305.0209424278305" type="curve" smooth="yes"/>
      <point x="177.20346511598603" y="305.0209424278305"/>
      <point x="169.97905987631515" y="307.40111285752334"/>
      <point x="169.9790595601171" y="297.0209418642883" type="curve" smooth="yes"/>
      <point x="169.9790574073739" y="226.35055340892248"/>
      <point x="169.9790556026141" y="167.10377854432065"/>
      <point x="169.9790542293123" y="122.0209445296907" type="curve" smooth="yes"/>
      <point x="169.97905323612497" y="89.41652752524556"/>
      <point x="174.58162551257703" y="90.02094707324613"/>
      <point x="203.97905068051944" y="90.02094707324613" type="curve" smooth="yes"/>
      <point x="240.53269988157066" y="90.02094707324613"/>
      <point x="253.6383043655553" y="90.02094707324613"/>
      <point x="287.9790494011263" y="90.02094707324613" type="curve" smooth="yes"/>
      <point x="319.0492472904525" y="90.02094707324613"/>
      <point x="377.1965492458299" y="90.01999202510056"/>
      <point x="422.9884904294394" y="90.01571088885379" type="curve" smooth="yes"/>
      <point x="490.48849013444504" y="90.00940024360712"/>
      <point x="490.4800759407829" y="0.00940063693298896"/>
      <point x="422.9800762357773" y="0.01571128217965878" type="curve" smooth="yes"/>
      <point x="354.74021791185874" y="0.02209109756622018"/>
      <point x="334.2803383891244" y="0.02094707324612544"/>
      <point x="287.9790494011263" y="0.020947073246134096" type="curve" smooth="yes"/>
      <point x="236.80394051965433" y="0.020947073246142752"/>
      <point x="228.50815427735586" y="0.020947073246128288"/>
      <point x="203.97905068051944" y="0.020947073246134096" type="curve" smooth="yes"/>
      <point x="124.96871047475607" y="0.020947073246144296"/>
      <point x="79.9790515599606" y="34.391297224855386"/>
      <point x="79.97905422931237" y="122.02094727124745" type="curve" smooth="yes"/>
      <point x="79.97905515085807" y="152.2735083740124"/>
      <point x="79.979058115532" y="249.59801098529462"/>
      <point x="79.97905956011715" y="297.02094460584505" type="curve" smooth="yes"/>
      <point x="79.97906144450575" y="358.88177227878674"/>
      <point x="113.84265689480854" y="395.0209424278305"/>
      <point x="189.97906018458283" y="395.0209424278305" type="curve" smooth="yes"/>
      <point x="253.33871879973847" y="395.0209424278305"/>
      <point x="303.00303930648965" y="395.0209424278305"/>
      <point x="338.9790579151831" y="395.0209424278305" type="curve" smooth="yes"/>
      <point x="496.18602664835356" y="395.0209424278305"/>
      <point x="496.2069705989522" y="304.9999984769129"/>
      <point x="339.00000186578166" y="304.9999984769129" type="curve" smooth="yes"/>
      <point x="278.0772531973627" y="304.9999984769129"/>
      <point x="224.97602275910575" y="304.9999984769129"/>
      <point x="189.0000041504123" y="304.9999984769129" type="curve" smooth="yes"/>
      <point x="128.4483628023798" y="304.9999984769129"/>
      <point x="79.99570692865872" y="357.26362843425346"/>
      <point x="79.9860452509929" y="426.00763539485365" type="curve" smooth="yes"/>
      <point x="79.98255210762923" y="450.8617735694925"/>
      <point x="79.97906594867534" y="506.74493828866554"/>
      <point x="79.97906708416735" y="544.02094084382" type="curve" smooth="yes"/>
      <point x="79.97906983828236" y="634.433203194543"/>
      <point x="114.1758483894435" y="680.0209380870324"/>
      <point x="205.97906862248527" y="680.0209380870324" type="curve" smooth="yes"/>
      <point x="252.28035761048355" y="680.0209380870324"/>
      <point x="264.5441429659649" y="680.0209380870324"/>
      <point x="293.9790672821686" y="680.0209380870324" type="curve" smooth="yes"/>
      <point x="329.1374491043008" y="680.0209380870324"/>
      <point x="382.9206256738603" y="680.0199829786911"/>
      <point x="422.98910935154146" y="680.0157018424438" type="curve" smooth="yes"/>
      <point x="490.48910896625296" y="680.0084897726856"/>
      <point x="490.47949287324195" y="590.0084902864037"/>
    </contour>
  </outline>
</glyph>
<glyph name="F" format="2">
  <advance width="503"/>
  <unicode hex="0046"/>
  <outline>
    <contour>
      <point x="79.9790538942332" y="116.02094736263268" type="curve" smooth="yes"/>
      <point x="79.97905812836214" y="255.0192010780391"/>
      <point x="79.9774742534765" y="478.07146814515784"/>
      <point x="79.97906712565657" y="550.0219356121273" type="curve" smooth="yes"/>
      <point x="79.980969594512" y="635.9569686946932"/>
      <point x="112.96044022558618" y="680.0139567700598"/>
      <point x="209.9860497261193" y="680.0139567700598" type="curve" smooth="yes"/>
      <point x="262.37961358095953" y="680.0139567700598"/>
      <point x="364.98490553107723" y="680.0209380870324"/>
      <point x="422.9790651650776" y="680.0209380870324" type="curve" smooth="yes"/>
      <point x="490.4790651650776" y="680.0209380870324"/>
      <point x="490.4790651650776" y="590.0209380870324"/>
      <point x="422.9790651650776" y="590.0209380870324" type="curve" smooth="yes"/>
      <point x="336.55527235903196" y="590.0209380870324"/>
      <point x="245.14443154825145" y="590.0139567700598"/>
      <point x="209.9860497261193" y="590.0139567700598" type="curve" smooth="yes"/>
      <point x="168.75597041980353" y="590.0139567700598"/>
      <point x="169.97987553904645" y="586.5371909935253"/>
      <point x="169.97906710360155" y="550.0199431511854" type="curve" smooth="yes"/>
      <point x="169.976693380866" y="442.798244761096"/>
      <point x="169.97906020399748" y="323.1582900937"/>
      <point x="169.97905389423315" y="116.0209446210759" type="curve" smooth="yes"/>
      <point x="169.97905183806557" y="48.52094462107593"/>
      <point x="79.97905183806563" y="48.52094736263271"/>
    </contour>
    <contour>
      <point x="169.9790538637714" y="115.0209446363068" type="curve" smooth="yes"/>
      <point x="169.97905363402916" y="107.478949599164"/>
      <point x="79.9998229016949" y="102.5336029492533"/>
      <point x="79.99982312913971" y="110.00017803602464" type="curve" smooth="yes"/>
      <point x="79.9998245986315" y="158.2407484431363"/>
      <point x="79.99982501243358" y="171.82506743346428"/>
      <point x="79.9998265713165" y="223.00017631493623" type="curve" smooth="yes"/>
      <point x="79.99982945416107" y="317.63838227135517"/>
      <point x="144.83186016486735" y="375.01326342860915"/>
      <point x="233.9778087203782" y="375.01919730351375" type="curve" smooth="yes"/>
      <point x="277.3097043151826" y="375.022081630306"/>
      <point x="370.9113072901802" y="375.0207670957355"/>
      <point x="401.98307492943957" y="375.01919734577837" type="curve" smooth="yes"/>
      <point x="469.48307484329996" y="375.01578723658577"/>
      <point x="469.4785280310432" y="285.0157873514386"/>
      <point x="401.9785281171828" y="285.0191974606312" type="curve" smooth="yes"/>
      <point x="355.6748998635785" y="285.02153672627276"/>
      <point x="298.55765981931444" y="285.02349577124966"/>
      <point x="233.98379944381682" y="285.0191975028958" type="curve" smooth="yes"/>
      <point x="193.2417141337334" y="285.0164855631892"/>
      <point x="169.99982788885362" y="266.25236756701554"/>
      <point x="169.99982657131648" y="223.00017357337944" type="curve" smooth="yes"/>
      <point x="169.99982552523755" y="188.65942853780845"/>
      <point x="169.9998253189991" y="181.88901872320204"/>
      <point x="169.99982312913966" y="110.00017529446785" type="curve" smooth="yes"/>
      <point x="169.99981781554996" y="-64.43468660764958"/>
      <point x="79.97904849650904" y="-61.175882826295435"/>
      <point x="79.97905386377147" y="115.02094737786355" type="curve" smooth="yes"/>
      <point x="79.97905591993906" y="182.52094737786354"/>
      <point x="169.979055919939" y="182.52094463630675"/>
    </contour>
  </outline>
</glyph>
<glyph name="G" format="2">
  <advance width="653"/>
  <unicode hex="0047"/>
  <outline>
    <contour>
      <point x="517.6736609399786" y="568.479486812389" type="curve" smooth="yes"/>
      <point x="464.13470966178147" y="590.7892003049137"/>
      <point x="413.9958427630084" y="601.4246672192406"/>
      <point x="369.384455288866" y="601.022763948628" type="curve" smooth="yes"/>
      <point x="222.41522903927688" y="599.6987205585091"/>
      <point x="134.9790668222545" y="485.42284882126"/>
      <point x="134.97906242352084" y="341.02094119413" type="curve" smooth="yes"/>
      <point x="134.97905798384699" y="195.27504717231963"/>
      <point x="216.08547012256972" y="80.02094722555493"/>
      <point x="360.9790489746619" y="80.02094722555483" type="curve" smooth="yes"/>
      <point x="417.71507984002807" y="80.02094722555478"/>
      <point x="497.90066650589057" y="102.76346107053347"/>
      <point x="505.2426258744008" y="125.07680465621362" type="curve" smooth="yes"/>
      <point x="515.5245128990367" y="156.32504049824863"/>
      <point x="512.9916794935173" y="195.3467720823652"/>
      <point x="512.9903971457495" y="249.00852396703675" type="curve" smooth="yes"/>
      <point x="512.9900680939775" y="262.77818535670406"/>
      <point x="514.8526770321818" y="275.01570689702726"/>
      <point x="505.9842914354316" y="275.01570689702726" type="curve" smooth="yes"/>
      <point x="457.24609250069653" y="275.01570689702726"/>
      <point x="409.8781232716192" y="275.01570689702726"/>
      <point x="386.98429324790527" y="275.01570689702726" type="curve" smooth="yes"/>
      <point x="319.48429324790527" y="275.01570689702726"/>
      <point x="319.48429324790527" y="365.01570689702726"/>
      <point x="386.98429324790527" y="365.01570689702726" type="curve" smooth="yes"/>
      <point x="421.1010325022199" y="365.01570689702726"/>
      <point x="473.278819972983" y="365.01570689702726"/>
      <point x="505.9842914354316" y="365.01570689702726" type="curve" smooth="yes"/>
      <point x="564.2293493862031" y="365.01570689702726"/>
      <point x="602.9882360007232" y="339.44593111977434"/>
      <point x="602.9903971200517" y="249.01067468509945" type="curve" smooth="yes"/>
      <point x="602.9921925788648" y="173.8770270296956"/>
      <point x="605.1296428719379" y="140.69865602661912"/>
      <point x="590.7336224326141" y="96.94693605567508" type="curve" smooth="yes"/>
      <point x="573.7826616863979" y="45.43035958700863"/>
      <point x="491.96999891369444" y="-9.979052774445247"/>
      <point x="360.9790489746619" y="-9.979052774445165" type="curve" smooth="yes"/>
      <point x="165.95096262315138" y="-9.97905277444505"/>
      <point x="44.97905644767915" y="144.84563354681453"/>
      <point x="44.979062423520894" y="341.0209439356867" type="curve" smooth="yes"/>
      <point x="44.979068317591334" y="534.5118602126994"/>
      <point x="171.6426922403039" y="689.2449637994187"/>
      <point x="368.5736796410122" y="691.0191118903575" type="curve" smooth="yes"/>
      <point x="423.89875431326885" y="691.517534596232"/>
      <point x="485.8948026026712" y="679.2229312657533"/>
      <point x="552.2914480568711" y="651.5554088062468" type="curve" smooth="yes"/>
      <point x="614.5983895522643" y="625.5920684685775"/>
      <point x="579.9806024353718" y="542.5161464747198"/>
    </contour>
  </outline>
</glyph>
<glyph name="H" format="2">
  <advance width="688"/>
  <unicode hex="0048"/>
  <outline>
    <contour>
      <point x="171.0" y="640.0" type="curve" smooth="yes"/>
      <point x="171.0" y="597.0"/>
      <point x="171.0" y="561.0"/>
      <point x="171.0" y="529.0" type="curve" smooth="yes"/>
      <point x="171.0" y="438.0"/>
      <point x="171.0" y="139.0"/>
      <point x="171.0" y="51.0" type="curve" smooth="yes"/>
      <point x="171.0" y="-39.0"/>
      <point x="81.0" y="-22.0"/>
      <point x="81.0" y="35.0" type="curve" smooth="yes"/>
      <point x="81.0" y="84.0"/>
      <point x="81.0" y="226.0"/>
      <point x="81.0" y="264.0" type="curve" smooth="yes"/>
      <point x="81.0" y="354.0"/>
      <point x="148.0" y="399.0"/>
      <point x="216.0" y="399.0" type="curve" smooth="yes"/>
      <point x="321.0" y="399.0"/>
      <point x="404.0" y="399.0"/>
      <point x="474.0" y="399.0" type="curve" smooth="yes"/>
      <point x="510.0" y="399.0"/>
      <point x="519.0" y="411.0"/>
      <point x="519.0" y="444.0" type="curve" smooth="yes"/>
      <point x="519.0" y="473.0"/>
      <point x="519.0" y="591.0"/>
      <point x="519.0" y="646.0" type="curve" smooth="yes"/>
      <point x="519.0" y="702.0"/>
      <point x="609.0" y="719.0"/>
      <point x="609.0" y="629.0" type="curve" smooth="yes"/>
      <point x="609.0" y="541.0"/>
      <point x="609.0" y="199.0"/>
      <point x="609.0" y="153.0" type="curve" smooth="yes"/>
      <point x="609.0" y="118.0"/>
      <point x="609.0" y="83.0"/>
      <point x="609.0" y="40.0" type="curve" smooth="yes"/>
      <point x="609.0" y="-28.0"/>
      <point x="519.0" y="-28.0"/>
      <point x="519.0" y="40.0" type="curve" smooth="yes"/>
      <point x="519.0" y="79.0"/>
      <point x="519.0" y="114.0"/>
      <point x="519.0" y="162.0" type="curve" smooth="yes"/>
      <point x="519.0" y="209.0"/>
      <point x="519.0" y="530.0"/>
      <point x="519.0" y="625.0" type="curve" smooth="yes"/>
      <point x="519.0" y="723.0"/>
      <point x="609.0" y="698.0"/>
      <point x="609.0" y="649.0" type="curve" smooth="yes"/>
      <point x="609.0" y="601.0"/>
      <point x="609.0" y="487.0"/>
      <point x="609.0" y="444.0" type="curve" smooth="yes"/>
      <point x="609.0" y="363.0"/>
      <point x="563.0" y="309.0"/>
      <point x="474.0" y="309.0" type="curve" smooth="yes"/>
      <point x="369.0" y="309.0"/>
      <point x="286.0" y="309.0"/>
      <point x="216.0" y="309.0" type="curve" smooth="yes"/>
      <point x="190.0" y="309.0"/>
      <point x="171.0" y="298.0"/>
      <point x="171.0" y="264.0" type="curve" smooth="yes"/>
      <point x="171.0" y="208.0"/>
      <point x="171.0" y="96.0"/>
      <point x="171.0" y="40.0" type="curve" smooth="yes"/>
      <point x="171.0" y="-28.0"/>
      <point x="81.0" y="-44.0"/>
      <point x="81.0" y="55.0" type="curve" smooth="yes"/>
      <point x="81.0" y="149.0"/>
      <point x="81.0" y="410.0"/>
      <point x="81.0" y="518.0" type="curve" smooth="yes"/>
      <point x="81.0" y="570.0"/>
      <point x="81.0" y="601.0"/>
      <point x="81.0" y="640.0" type="curve" smooth="yes"/>
      <point x="81.0" y="707.0"/>
      <point x="171.0" y="707.0"/>
    </contour>
  </outline>
</glyph>
<glyph name="J" format="2">
  <advance width="448"/>
  <unicode hex="004A"/>
  <outline>
    <contour>
      <point x="88.3644149406746" y="110.62956091383509" type="curve" smooth="yes"/>
      <point x="125.14187431785759" y="93.07774998141967"/>
      <point x="158.7225183172138" y="85.02078109329415"/>
      <point x="187.97879478546588" y="85.02094714867563" type="curve" smooth="yes"/>
      <point x="252.76273582317165" y="85.02131485514214"/>
      <point x="286.979050670976" y="127.45765106474312"/>
      <point x="286.97905300322725" y="204.02094602231602" type="curve" smooth="yes"/>
      <point x="286.9790554191713" y="283.3317143187539"/>
      <point x="286.9790573839264" y="347.8308096150953"/>
      <point x="286.97906098420356" y="466.0209420318279" type="curve" smooth="yes"/>
      <point x="286.97906242878884" y="513.4438756523786"/>
      <point x="286.980876275974" y="599.141059201984"/>
      <point x="286.98430243025126" y="640.0194736210476" type="curve" smooth="yes"/>
      <point x="286.9899598270997" y="707.5194733839651"/>
      <point x="376.9899595109897" y="707.5119301881671"/>
      <point x="376.98430211414126" y="640.0119304252496" type="curve" smooth="yes"/>
      <point x="376.9791964060964" y="579.0942856091397"/>
      <point x="376.9790631369467" y="536.6913277456371"/>
      <point x="376.97906098420356" y="466.02093929027114" type="curve" smooth="yes"/>
      <point x="376.9790585682595" y="386.7101709938333"/>
      <point x="376.97905660350443" y="322.2110756974919"/>
      <point x="376.97905300322725" y="204.0209432807593" type="curve" smooth="yes"/>
      <point x="376.97904900632574" y="72.81040381485744"/>
      <point x="299.00294764726607" y="-4.978422691992048"/>
      <point x="187.9793056160281" y="-4.9790528498746625" type="curve" smooth="yes"/>
      <point x="147.27269143088532" y="-4.9792838961035"/>
      <point x="100.77211406441134" y="4.984102720433869"/>
      <point x="49.60067223033732" y="29.405351154141073" type="curve" smooth="yes"/>
      <point x="-11.31748508943322" y="58.47815818689401"/>
      <point x="27.44625762090407" y="139.70236794658803"/>
    </contour>
  </outline>
</glyph>
<glyph name="L" format="2">
  <advance width="498"/>
  <unicode hex="004C"/>
  <anchor x="269" y="0" name="below"/>
  <anchor x="196" y="680" name="above"/>
  <anchor x="193" y="523" name="right"/>
  <outline>
    <contour>
      <point x="413" y="0" type="curve" smooth="yes"/>
      <point x="361" y="0"/>
      <point x="292" y="0"/>
      <point x="207" y="0" type="curve" smooth="yes"/>
      <point x="86" y="0"/>
      <point x="80" y="30"/>
      <point x="80" y="182" type="curve" smooth="yes"/>
      <point x="80" y="303"/>
      <point x="80" y="423"/>
      <point x="80" y="520" type="curve" smooth="yes"/>
      <point x="80" y="561"/>
      <point x="80" y="595"/>
      <point x="80" y="640" type="curve" smooth="yes"/>
      <point x="80" y="707"/>
      <point x="170" y="707"/>
      <point x="170" y="640" type="curve" smooth="yes"/>
      <point x="170" y="596"/>
      <point x="170" y="564"/>
      <point x="170" y="520" type="curve" smooth="yes"/>
      <point x="170" y="426"/>
      <point x="170" y="332"/>
      <point x="170" y="203" type="curve" smooth="yes"/>
      <point x="170" y="91"/>
      <point x="162" y="90"/>
      <point x="226" y="90" type="curve" smooth="yes"/>
      <point x="289" y="90"/>
      <point x="343" y="90"/>
      <point x="413" y="90" type="curve" smooth="yes"/>
      <point x="480" y="90"/>
      <point x="480" y="0"/>
    </contour>
  </outline>
</glyph>
<glyph name="M" format="2">
  <advance width="808"/>
  <unicode hex="004D"/>
  <outline>
    <contour>
      <point x="79.98394102374772" y="40.01181660321328" type="curve" smooth="yes"/>
      <point x="79.98079018815197" y="73.42372843597326"/>
      <point x="79.97905629587474" y="118.61218683489412"/>
      <point x="79.97905731356374" y="152.02094681432126" type="curve" smooth="yes"/>
      <point x="79.97906191598" y="303.10936351200013"/>
      <point x="79.97889111537164" y="425.6341541020786"/>
      <point x="79.97889420379519" y="527.0211156356692" type="curve" smooth="yes"/>
      <point x="79.97890056106527" y="735.717977417648"/>
      <point x="180.7220318455529" y="757.0866454393889"/>
      <point x="262.0664485455623" y="542.981984317476" type="curve" smooth="yes"/>
      <point x="308.1409797331675" y="421.71033118541715"/>
      <point x="357.19409748102254" y="286.53062234934094"/>
      <point x="401.3232038038146" y="164.28258685167128" type="curve" smooth="yes"/>
      <point x="404.56327066865435" y="155.30683723620274"/>
      <point x="403.2674013712294" y="154.64791716152456"/>
      <point x="406.52203561995634" y="163.92065306573144" type="curve" smooth="yes"/>
      <point x="449.4773046879341" y="286.3039487977597"/>
      <point x="500.9315029991476" y="424.48264971244237"/>
      <point x="545.8627146146232" y="543.8712880103575" type="curve" smooth="yes"/>
      <point x="627.3062959443797" y="760.278500802192"/>
      <point x="728.0001851408358" y="737.7370928326219"/>
      <point x="728.0001787518729" y="527.9998198621151" type="curve" smooth="yes"/>
      <point x="728.0001757132632" y="428.24813190164707"/>
      <point x="727.9807988244473" y="305.67070541830896"/>
      <point x="727.980794296263" y="157.01919866736708" type="curve" smooth="yes"/>
      <point x="727.9807929939745" y="114.26759680240004"/>
      <point x="727.9804560707697" y="82.77516542053039"/>
      <point x="727.9842812105802" y="40.01973711340628" type="curve" smooth="yes"/>
      <point x="727.990320138183" y="-27.480262616455605"/>
      <point x="637.9903204983673" y="-27.488314519926007"/>
      <point x="637.9842815707644" y="40.01168520993588" type="curve" smooth="yes"/>
      <point x="637.9811292147889" y="75.24708485587807"/>
      <point x="637.9807932230274" y="121.78695519224114"/>
      <point x="637.980794296263" y="157.01920140892386" type="curve" smooth="yes"/>
      <point x="637.9807973348727" y="256.77088936939197"/>
      <point x="638.0001742236885" y="379.3483158527301"/>
      <point x="638.0001787518729" y="527.9998226036721" type="curve" smooth="yes"/>
      <point x="638.0001791079736" y="539.6899149112437"/>
      <point x="634.634467410553" y="524.232794148691"/>
      <point x="630.0950597501042" y="512.1709404889622" type="curve" smooth="yes"/>
      <point x="585.4139554888155" y="393.44687310669934"/>
      <point x="534.1592109713437" y="255.8163118005164"/>
      <point x="491.4430502716625" y="134.1142565957671" type="curve" smooth="yes"/>
      <point x="431.3883476418368" y="-36.98681182994553"/>
      <point x="376.4557145021638" y="-31.896662412073525"/>
      <point x="316.66981009682576" y="133.7243975419372" type="curve" smooth="yes"/>
      <point x="272.7424408324566" y="255.41357379376444"/>
      <point x="223.797823583037" y="390.30040074179067"/>
      <point x="177.93392300104634" y="511.01765817877305" type="curve" smooth="yes"/>
      <point x="173.40683648910272" y="522.9332925004724"/>
      <point x="169.97889455759827" y="538.6357852513121"/>
      <point x="169.97889420379514" y="527.0211128941122" type="curve" smooth="yes"/>
      <point x="169.97888960137877" y="375.9326961964334"/>
      <point x="169.97906040198703" y="253.40790560635503"/>
      <point x="169.9790573135637" y="152.0209440727646" type="curve" smooth="yes"/>
      <point x="169.97905607744138" y="111.44144229613833"/>
      <point x="169.98011350340764" y="80.60363398478765"/>
      <point x="169.9839406235622" y="40.02030385182615" type="curve" smooth="yes"/>
      <point x="169.99030606002188" y="-27.47969584803473"/>
      <point x="79.99030646020739" y="-27.488183096647596"/>
    </contour>
  </outline>
</glyph>
<glyph name="N" format="2">
  <advance width="688"/>
  <unicode hex="004E"/>
  <outline>
    <contour>
      <point x="79.9832419410625" y="40.01292884551271" type="curve" smooth="yes"/>
      <point x="79.9800943638513" y="76.99960259347002"/>
      <point x="79.97905563866976" y="127.03742158743538"/>
      <point x="79.97905676525238" y="164.0209466315509" type="curve" smooth="yes"/>
      <point x="79.97906073669235" y="294.39562878196716"/>
      <point x="79.97906452158304" y="418.6462586172494"/>
      <point x="79.97906849302291" y="549.0209407676656" type="curve" smooth="yes"/>
      <point x="79.97907307856738" y="699.5554877547605"/>
      <point x="134.51895482007" y="716.1986327800297"/>
      <point x="224.40879591696824" y="592.4461755129023" type="curve" smooth="yes"/>
      <point x="310.79614762466986" y="473.51563875621287"/>
      <point x="454.2489676249278" y="259.9585769179839"/>
      <point x="535.6056295934361" y="146.1730304504358" type="curve" smooth="yes"/>
      <point x="540.2307335930683" y="139.70435322925056"/>
      <point x="517.979049138497" y="132.64933249063262"/>
      <point x="517.9790493935109" y="141.0209469818609" type="curve" smooth="yes"/>
      <point x="517.9790514358556" y="208.06716347988043"/>
      <point x="517.9790582263729" y="430.986715467918"/>
      <point x="517.979060816664" y="516.0209412702844" type="curve" smooth="yes"/>
      <point x="517.9790619432463" y="553.0044663143998"/>
      <point x="517.9801037168985" y="603.0402057880451"/>
      <point x="517.983253547275" y="640.0205821283189" type="curve" smooth="yes"/>
      <point x="517.9890029087117" y="707.5205818834659"/>
      <point x="607.989002582241" y="707.512916068217"/>
      <point x="607.9832532208044" y="640.01291631307" type="curve" smooth="yes"/>
      <point x="607.9794197147232" y="595.00589033798"/>
      <point x="607.9790621877737" y="561.031796638847"/>
      <point x="607.979060816664" y="516.0209385287275" type="curve" smooth="yes"/>
      <point x="607.9790569565728" y="389.30162129841614"/>
      <point x="607.9790524370446" y="240.93425205651104"/>
      <point x="607.9790493935109" y="141.02094424030417" type="curve" smooth="yes"/>
      <point x="607.9790443895399" y="-23.24972599378525"/>
      <point x="553.1497233778654" y="-33.1036136269117"/>
      <point x="462.39435776494105" y="93.82697350959066" type="curve" smooth="yes"/>
      <point x="383.16471766132304" y="204.6376640847146"/>
      <point x="240.28452103004565" y="417.44866025314195"/>
      <point x="151.5912280868842" y="539.5538148611872" type="curve" smooth="yes"/>
      <point x="147.0876191212926" y="545.7539890884557"/>
      <point x="169.9790687227651" y="556.5629330632519"/>
      <point x="169.97906849302285" y="549.0209380261089" type="curve" smooth="yes"/>
      <point x="169.97906582801235" y="461.5338018640588"/>
      <point x="169.9790594302629" y="251.50808005204397"/>
      <point x="169.97905676525232" y="164.02094388999407" type="curve" smooth="yes"/>
      <point x="169.97905539414322" y="119.01008577987459"/>
      <point x="169.9794108513073" y="85.03527811807066"/>
      <point x="169.98324161516973" y="40.02058787292122" type="curve" smooth="yes"/>
      <point x="169.98898588572612" y="-27.4794118826592"/>
      <point x="79.9889862116189" y="-27.487070910067708"/>
    </contour>
  </outline>
</glyph>
<glyph name="P" format="2">
  <advance width="555"/>
  <unicode hex="0050"/>
  <outline>
    <contour>
      <point x="224.97861363761922" y="343.01710329154463" type="curve" smooth="yes"/>
      <point x="243.57904102154234" y="343.01887421670034"/>
      <point x="278.22984342110396" y="343.020335012848"/>
      <point x="306.97810504452616" y="343.02094320976533" type="curve" smooth="yes"/>
      <point x="380.2469688648149" y="343.0224932825205"/>
      <point x="429.9804601892488" y="392.00272143648726"/>
      <point x="429.9825502974156" y="466.0187207395439" type="curve" smooth="yes"/>
      <point x="429.9846772262317" y="541.338632056735"/>
      <point x="378.6803654808751" y="590.0120633616647"/>
      <point x="294.9914718485988" y="590.009767996802" type="curve" smooth="yes"/>
      <point x="267.95818318432435" y="590.0090265452397"/>
      <point x="233.02536122306216" y="590.0087207823303"/>
      <point x="205.99128617069505" y="590.0087207823303" type="curve" smooth="yes"/>
      <point x="168.28164087940854" y="590.0087207823303"/>
      <point x="169.97906864192862" y="587.1592250401752"/>
      <point x="169.9790675106317" y="550.0209380108779" type="curve" smooth="yes"/>
      <point x="169.97906290821535" y="398.9325213131991"/>
      <point x="169.97905896840766" y="269.596263771618"/>
      <point x="169.97905617886377" y="178.0209436767619" type="curve" smooth="yes"/>
      <point x="169.97905464054625" y="127.52095652882298"/>
      <point x="169.97871190748293" y="90.52468891869836"/>
      <point x="169.98254250413703" y="40.020869635729426" type="curve" smooth="yes"/>
      <point x="169.98766222135984" y="-27.479130170111276"/>
      <point x="79.98766248023891" y="-27.4859564597417"/>
      <point x="79.9825427630161" y="40.014043346099" type="curve" smooth="yes"/>
      <point x="79.979395323193" y="81.51090307504604"/>
      <point x="79.97905491489307" y="136.52723539321343"/>
      <point x="79.97905617886383" y="178.0209464183187" type="curve" smooth="yes"/>
      <point x="79.97906033588508" y="314.4879034355767"/>
      <point x="79.97906442220825" y="448.63397921884416"/>
      <point x="79.97906751063175" y="550.0209407524349" type="curve" smooth="yes"/>
      <point x="79.97907026474678" y="640.4332031031576"/>
      <point x="114.18806593765325" y="680.0087207823303"/>
      <point x="205.99128617069505" y="680.0087207823303" type="curve" smooth="yes"/>
      <point x="238.9425360225376" y="680.0087207823303"/>
      <point x="262.0387120462454" y="680.0088642236644"/>
      <point x="294.9890033866364" y="680.0097679629504" type="curve" smooth="yes"/>
      <point x="431.2149876083254" y="680.0135042811645"/>
      <point x="519.986012405178" y="588.6194137611753"/>
      <point x="519.9825502615317" y="466.0161792655826" type="curve" smooth="yes"/>
      <point x="519.9790496888681" y="342.0520763843696"/>
      <point x="429.69278818484094" y="253.0235393358873"/>
      <point x="306.98000907998244" y="253.0209432299062" type="curve" smooth="yes"/>
      <point x="267.7649561901682" y="253.0201135980283"/>
      <point x="250.3597337613971" y="253.01951939069306"/>
      <point x="224.98718243330507" y="253.0171036994572" type="curve" smooth="yes"/>
      <point x="157.48718273923947" y="253.0106771026928"/>
      <point x="157.47861394355363" y="343.0106766947802"/>
    </contour>
  </outline>
</glyph>
<glyph name="Q" format="2">
  <advance width="732"/>
  <unicode hex="0051"/>
  <outline>
    <contour>
      <point x="525" y="-54" type="curve" smooth="yes"/>
      <point x="505" y="-23"/>
      <point x="462" y="51"/>
      <point x="423" y="111" type="curve" smooth="yes"/>
      <point x="397" y="151"/>
      <point x="377" y="184"/>
      <point x="363" y="208" type="curve" smooth="yes"/>
      <point x="330" y="265"/>
      <point x="407" y="310"/>
      <point x="441" y="254" type="curve" smooth="yes"/>
      <point x="455" y="231"/>
      <point x="474" y="200"/>
      <point x="499" y="160" type="curve" smooth="yes"/>
      <point x="538" y="98"/>
      <point x="581" y="26"/>
      <point x="601" y="-5" type="curve" smooth="yes"/>
      <point x="637" y="-61"/>
      <point x="562" y="-111"/>
    </contour>
    <contour>
      <point x="399" y="-8" type="curve" smooth="yes"/>
      <point x="206" y="-28"/>
      <point x="45" y="117"/>
      <point x="45" y="341" type="curve" smooth="yes"/>
      <point x="45" y="545"/>
      <point x="181" y="690"/>
      <point x="368" y="690" type="curve" smooth="yes"/>
      <point x="554" y="690"/>
      <point x="687" y="544"/>
      <point x="687" y="341" type="curve" smooth="yes"/>
      <point x="687" y="256"/>
      <point x="662" y="180"/>
      <point x="623" y="119" type="curve" smooth="yes"/>
      <point x="560" y="21"/>
      <point x="467" y="40"/>
      <point x="423" y="113" type="curve" smooth="yes"/>
      <point x="411" y="132"/>
      <point x="377" y="184"/>
      <point x="363" y="208" type="curve" smooth="yes"/>
      <point x="330" y="265"/>
      <point x="407" y="310"/>
      <point x="441" y="254" type="curve" smooth="yes"/>
      <point x="455" y="231"/>
      <point x="487" y="181"/>
      <point x="501" y="159" type="curve" smooth="yes"/>
      <point x="517" y="135"/>
      <point x="527" y="136"/>
      <point x="547" y="167" type="curve" smooth="yes"/>
      <point x="578" y="215"/>
      <point x="597" y="274"/>
      <point x="597" y="341" type="curve" smooth="yes"/>
      <point x="597" y="492"/>
      <point x="506" y="600"/>
      <point x="368" y="600" type="curve" smooth="yes"/>
      <point x="229" y="600"/>
      <point x="135" y="493"/>
      <point x="135" y="341" type="curve" smooth="yes"/>
      <point x="135" y="175"/>
      <point x="246" y="66"/>
      <point x="389" y="82" type="curve" smooth="yes"/>
      <point x="456" y="89"/>
      <point x="466" y="-1"/>
    </contour>
  </outline>
</glyph>
<glyph name="R" format="2">
  <advance width="595"/>
  <unicode hex="0052"/>
  <outline>
    <contour>
      <point x="79.98428865266163" y="40.009822817086814" type="curve" smooth="yes"/>
      <point x="79.97905302296638" y="80.02163443894102"/>
      <point x="79.9790550820959" y="132.0161799665218"/>
      <point x="79.97905596563163" y="161.0209466772435" type="curve" smooth="yes"/>
      <point x="79.97905775890975" y="219.89079530965088"/>
      <point x="79.97906237374909" y="371.3870321149044"/>
      <point x="79.97906674908819" y="515.0209412855152" type="curve" smooth="yes"/>
      <point x="79.97907020268356" y="628.3957917097703"/>
      <point x="105.73312223448649" y="680.0139567700598"/>
      <point x="196.98605062474064" y="680.0139567700598" type="curve" smooth="yes"/>
      <point x="227.44742495895014" y="680.0139567700598"/>
      <point x="254.12010961771435" y="680.0139567700598"/>
      <point x="279.98604936057836" y="680.0139567700598" type="curve" smooth="yes"/>
      <point x="413.7017529714723" y="680.0139567700598"/>
      <point x="499.97971144409195" y="592.2402251358698"/>
      <point x="499.97906053418706" y="476.02068847757147" type="curve" smooth="yes"/>
      <point x="499.9783892624936" y="356.16556782778207"/>
      <point x="411.8348394474607" y="273.02094291521837"/>
      <point x="291.97905820456964" y="273.02094291521837" type="curve" smooth="yes"/>
      <point x="254.97905876811183" y="273.02094291521837" type="line" smooth="yes"/>
      <point x="248.04042333394042" y="273.02094291521837"/>
      <point x="248.13678723491054" y="362.99999896430074"/>
      <point x="255.00000271871045" y="362.99999896430074" type="curve" smooth="yes"/>
      <point x="338.47778082488475" y="362.99999896430074"/>
      <point x="393.1512991533068" y="316.1576137405203"/>
      <point x="432.7771473345356" y="259.9287698400292" type="curve" smooth="yes"/>
      <point x="475.62790625568715" y="199.1237966978674"/>
      <point x="512.5798306165002" y="134.1998747840597"/>
      <point x="557.748365141606" y="64.48666609987404" type="curve" smooth="yes"/>
      <point x="594.4521795550457" y="7.8379237704650535"/>
      <point x="518.9205231158338" y="-41.100495447454605"/>
      <point x="482.21670870239404" y="15.548246881954384" type="curve" smooth="yes"/>
      <point x="435.5994694140993" y="87.49738946436744"/>
      <point x="400.7279468973529" y="149.17033059813318"/>
      <point x="359.2099332540047" y="208.08414608375782" type="curve" smooth="yes"/>
      <point x="335.3718592612913" y="241.9102319076971"/>
      <point x="305.2184722929454" y="272.99999896430074"/>
      <point x="255.00000271871045" y="272.99999896430074" type="curve" smooth="yes"/>
      <point x="89.98588354596208" y="272.99999896430074"/>
      <point x="88.15159762643226" y="363.02094291521837"/>
      <point x="254.97905876811183" y="363.02094291521837" type="curve" smooth="yes"/>
      <point x="291.97905820456964" y="363.02094291521837" type="line" smooth="yes"/>
      <point x="362.0567336756622" y="363.02094291521837"/>
      <point x="409.97866805423973" y="405.94390330658194"/>
      <point x="409.9790605355986" y="476.02119253991003" type="curve" smooth="yes"/>
      <point x="409.97945074139193" y="545.6921810531627"/>
      <point x="360.14559497730846" y="590.0139567700598"/>
      <point x="279.98604936057836" y="590.0139567700598" type="curve" smooth="yes"/>
      <point x="241.44022627806976" y="590.0139567700598"/>
      <point x="217.42697028877095" y="590.0139567700598"/>
      <point x="196.98605062474064" y="590.0139567700598" type="curve" smooth="yes"/>
      <point x="163.15394197633702" y="590.0139567700598"/>
      <point x="169.9790680295119" y="557.0547705010661"/>
      <point x="169.97906674908813" y="515.0209385439584" type="curve" smooth="yes"/>
      <point x="169.97906381304347" y="418.6362788705494"/>
      <point x="169.9790586380023" y="248.74970201820986"/>
      <point x="169.97905596563157" y="161.02094393568672" type="curve" smooth="yes"/>
      <point x="169.97905488926" y="125.68574970800371"/>
      <point x="169.97790955152038" y="88.766178256377"/>
      <point x="169.98428788215938" y="40.02159950625534" type="curve" smooth="yes"/>
      <point x="169.99312039903577" y="-27.478399915867953"/>
      <point x="79.99312116953801" y="-27.49017660503648"/>
    </contour>
  </outline>
</glyph>
<glyph name="S" format="2">
  <advance width="521"/>
  <unicode hex="0053"/>
  <outline>
    <contour>
      <point x="120.26154416641083" y="115.13483583102013" type="curve" smooth="yes"/>
      <point x="167.8171341139436" y="94.00243387667868"/>
      <point x="215.70191810248744" y="83.02048600525323"/>
      <point x="257.97855875007275" y="83.02094717718487" type="curve" smooth="yes"/>
      <point x="328.3409740584443" y="83.02171472092736"/>
      <point x="383.97904929867775" y="112.65776349053847"/>
      <point x="383.979051442063" y="183.0209463421644" type="curve" smooth="yes"/>
      <point x="383.9790536934025" y="256.92806187227814"/>
      <point x="307.7510449459792" y="281.92074188604977"/>
      <point x="247.9509209437323" y="306.3671009128748" type="curve" smooth="yes"/>
      <point x="149.65104819777352" y="346.5522012205033"/>
      <point x="62.979062579724406" y="388.1488016937382"/>
      <point x="62.97906610939162" y="504.02094145305483" type="curve" smooth="yes"/>
      <point x="62.97906955393297" y="617.0985640548552"/>
      <point x="147.4092583476491" y="687.1345157023959"/>
      <point x="270.6558480614366" y="688.0197771608936" type="curve" smooth="yes"/>
      <point x="317.55152204115063" y="688.3566216353812"/>
      <point x="371.1367132692039" y="679.3008954501549"/>
      <point x="426.9714864818686" y="658.0800566208982" type="curve" smooth="yes"/>
      <point x="490.06801783018153" y="634.0992782387988"/>
      <point x="458.0936466540491" y="549.9705697743815"/>
      <point x="394.9971153057362" y="573.9513481564809" type="curve" smooth="yes"/>
      <point x="350.8435828683229" y="590.7325571000174"/>
      <point x="308.3868774796123" y="598.2884717226543"/>
      <point x="271.30228766044684" y="598.0220987694771" type="curve" smooth="yes"/>
      <point x="200.94433931764428" y="597.5167283562959"/>
      <point x="152.9790680757816" y="568.5737149645383"/>
      <point x="152.97906610939157" y="504.020938711498" type="curve" smooth="yes"/>
      <point x="152.97906403920868" y="436.0608428782446"/>
      <point x="224.35340043232202" y="413.2437219179311"/>
      <point x="282.00719698849394" y="389.67478400370976" type="curve" smooth="yes"/>
      <point x="380.8154603375421" y="349.28185303659103"/>
      <point x="473.97905516197073" y="305.13831135712934"/>
      <point x="473.979051442063" y="183.0209436006075" type="curve" smooth="yes"/>
      <point x="473.9790477470783" y="61.72175557038611"/>
      <point x="379.27740537045213" y="-6.977729647743443"/>
      <point x="257.9795405091059" y="-6.9790528174604205" type="curve" smooth="yes"/>
      <point x="204.30318153053716" y="-6.979638342463681"/>
      <point x="144.09277008368636" y="6.058938883246422"/>
      <point x="83.71401533021049" y="32.889604139650295" type="curve" smooth="yes"/>
      <point x="22.030091561683072" y="60.30025076680046"/>
      <point x="58.577620397883415" y="142.54548245817028"/>
    </contour>
  </outline>
</glyph>
<glyph name="T" format="2">
  <advance width="498"/>
  <unicode hex="0054"/>
  <outline>
    <contour>
      <point x="423.0" y="590.0" type="curve" smooth="yes"/>
      <point x="373.0" y="590.0"/>
      <point x="139.0" y="590.0"/>
      <point x="75.0" y="590.0" type="curve" smooth="yes"/>
      <point x="7.0" y="590.0"/>
      <point x="7.0" y="680.0"/>
      <point x="75.0" y="680.0" type="curve" smooth="yes"/>
      <point x="179.0" y="680.0"/>
      <point x="294.0" y="636.0"/>
      <point x="294.0" y="510.0" type="curve" smooth="yes"/>
      <point x="294.0" y="403.0"/>
      <point x="294.0" y="254.0"/>
      <point x="294.0" y="191.0" type="curve" smooth="yes"/>
      <point x="294.0" y="130.0"/>
      <point x="294.0" y="83.0"/>
      <point x="294.0" y="40.0" type="curve" smooth="yes"/>
      <point x="294.0" y="-28.0"/>
      <point x="204.0" y="-27.0"/>
      <point x="204.0" y="40.0" type="curve" smooth="yes"/>
      <point x="204.0" y="83.0"/>
      <point x="204.0" y="130.0"/>
      <point x="204.0" y="191.0" type="curve" smooth="yes"/>
      <point x="204.0" y="255.0"/>
      <point x="204.0" y="424.0"/>
      <point x="204.0" y="510.0" type="curve" smooth="yes"/>
      <point x="204.0" y="592.0"/>
      <point x="139.0" y="590.0"/>
      <point x="75.0" y="590.0" type="curve" smooth="yes"/>
      <point x="7.0" y="590.0"/>
      <point x="7.0" y="680.0"/>
      <point x="75.0" y="680.0" type="curve" smooth="yes"/>
      <point x="179.0" y="680.0"/>
      <point x="389.0" y="680.0"/>
      <point x="423.0" y="680.0" type="curve" smooth="yes"/>
      <point x="491.0" y="680.0"/>
      <point x="491.0" y="590.0"/>
    </contour>
  </outline>
</glyph>
<glyph name="U" format="2">
  <advance width="668"/>
  <unicode hex="0055"/>
  <outline>
    <contour>
      <point x="159.98430674878395" y="640.0089676607638" type="curve" smooth="yes"/>
      <point x="159.97840924824632" y="600.6010020575802"/>
      <point x="159.97906832285935" y="543.4348006146939"/>
      <point x="159.9790671222445" y="504.02093871149805" type="curve" smooth="yes"/>
      <point x="159.97906381889726" y="395.57844608171234"/>
      <point x="159.97906323662065" y="376.46343493576927"/>
      <point x="159.97905993327345" y="268.02094230598357" type="curve" smooth="yes"/>
      <point x="159.97905660018583" y="158.60213033235507"/>
      <point x="231.23433516898925" y="80.02129115205598"/>
      <point x="334.9817010244878" y="80.01920188718707" type="curve" smooth="yes"/>
      <point x="442.2926364100425" y="80.01704085914074"/>
      <point x="507.9790499190477" y="158.27330142243383"/>
      <point x="507.979053262152" y="268.0209450475403" type="curve" smooth="yes"/>
      <point x="507.97905547884284" y="340.7906190514885"/>
      <point x="507.97905823443216" y="431.25126744910665"/>
      <point x="507.979060451123" y="504.02094145305483" type="curve" smooth="yes"/>
      <point x="507.9790615174593" y="539.026694379788"/>
      <point x="507.9790631707752" y="605.0219203072453"/>
      <point x="507.9843010854766" y="640.0224363855333" type="curve" smooth="yes"/>
      <point x="507.9944026290537" y="707.5224356296727"/>
      <point x="597.9944016212396" y="707.5089669049033"/>
      <point x="597.9843000776625" y="640.0089676607639" type="curve" smooth="yes"/>
      <point x="597.978402577125" y="600.6010020575803"/>
      <point x="597.9790616517374" y="543.4348006146939"/>
      <point x="597.979060451123" y="504.020938711498" type="curve" smooth="yes"/>
      <point x="597.9790571477757" y="395.5784460817123"/>
      <point x="597.9790565654991" y="376.46343493576927"/>
      <point x="597.979053262152" y="268.02094230598357" type="curve" smooth="yes"/>
      <point x="597.9790483824277" y="107.82904402121393"/>
      <point x="491.6150734548562" y="-9.983952414543166"/>
      <point x="334.9798886037375" y="-9.980798094563667" type="curve" smooth="yes"/>
      <point x="182.78712494122166" y="-9.977733236079843"/>
      <point x="69.97905504378248" y="107.50842259824776"/>
      <point x="69.9790599332735" y="268.0209450475403" type="curve" smooth="yes"/>
      <point x="69.97906214996452" y="340.7906190514885"/>
      <point x="69.97906490555347" y="431.2512674491066"/>
      <point x="69.97906712224454" y="504.0209414530548" type="curve" smooth="yes"/>
      <point x="69.97906818858078" y="539.026694379788"/>
      <point x="69.97906984189665" y="605.0219203072454"/>
      <point x="69.9843077565981" y="640.0224363855334" type="curve" smooth="yes"/>
      <point x="69.99440930017525" y="707.5224356296728"/>
      <point x="159.9944082923611" y="707.5089669049032"/>
    </contour>
  </outline>
</glyph>
<glyph name="V" format="2">
  <advance width="620"/>
  <unicode hex="0056"/>
  <outline>
    <contour>
      <point x="590.6720666890104" y="625.7765096285677" type="curve" smooth="yes"/>
      <point x="580.56941219497" y="595.4896967898298"/>
      <point x="561.3106845372662" y="545.4952628796486"/>
      <point x="541.7935400889509" y="485.16954966799034" type="curve" smooth="yes"/>
      <point x="517.4036058631881" y="409.782487731193"/>
      <point x="461.99759108077274" y="253.50942791310274"/>
      <point x="424.55671385517945" y="144.40110977549693" type="curve" smooth="yes"/>
      <point x="354.8862219514151" y="-58.62912772767829"/>
      <point x="281.6851416974459" y="-89.9639065314292"/>
      <point x="203.5742664084837" y="129.95993615167637" type="curve" smooth="yes"/>
      <point x="161.31034852082263" y="248.95544342659164"/>
      <point x="110.44371386245527" y="395.46304823752934"/>
      <point x="76.51860863169532" y="492.1176017116454" type="curve" smooth="yes"/>
      <point x="57.85882763859087" y="545.2803785857471"/>
      <point x="39.41952248758596" y="595.3969494803031"/>
      <point x="29.292068473495206" y="625.789925302315" type="curve" smooth="yes"/>
      <point x="7.953403392244873" y="689.8282839051886"/>
      <point x="93.3378815294096" y="718.2798373468557"/>
      <point x="114.67654661065994" y="654.2414787439822" type="curve" smooth="yes"/>
      <point x="124.52355224880507" y="624.6901419654629"/>
      <point x="142.24829307447337" y="576.6011889921066"/>
      <point x="161.4395249426354" y="521.9242783615222" type="curve" smooth="yes"/>
      <point x="194.01712481622096" y="429.10884425684526"/>
      <point x="244.3816761207293" y="283.9715568030047"/>
      <point x="288.3838412429048" y="160.0819549486417" type="curve" smooth="yes"/>
      <point x="317.14539274613674" y="79.10282234106384"/>
      <point x="313.7756352365863" y="98.85419224257612"/>
      <point x="339.42931577380574" y="173.61285563046658" type="curve" smooth="yes"/>
      <point x="377.36325821808316" y="284.15803958771244"/>
      <point x="432.09059618515414" y="438.4661222051275"/>
      <point x="456.1635342250002" y="512.8733778464169" type="curve" smooth="yes"/>
      <point x="476.1264421692999" y="574.5769053633489"/>
      <point x="495.4194699762101" y="624.6443810133683"/>
      <point x="505.29653389535554" y="654.2548944177295" type="curve" smooth="yes"/>
      <point x="526.6553224872268" y="718.2865440129707"/>
      <point x="612.0308552808817" y="689.808159223809"/>
    </contour>
  </outline>
</glyph>
<glyph name="W" format="2">
  <advance width="888"/>
  <unicode hex="0057"/>
  <outline>
    <contour>
      <point x="122.97112640167818" y="653.3209624511076" type="curve" smooth="yes"/>
      <point x="135.8459600314131" y="611.7176280618634"/>
      <point x="162.18265353834212" y="531.215873776316"/>
      <point x="175.1033040296561" y="487.8778545055931" type="curve" smooth="yes"/>
      <point x="210.23601539887824" y="370.0368740243341"/>
      <point x="239.24385574739102" y="275.0319932686707"/>
      <point x="275.0395139119719" y="157.08987699323794" type="curve" smooth="yes"/>
      <point x="278.22005204396856" y="146.61041056025147"/>
      <point x="270.64260444953857" y="144.9803437908192"/>
      <point x="273.566555676619" y="155.7701344373301" type="curve" smooth="yes"/>
      <point x="305.70381691056" y="274.3611415153418"/>
      <point x="342.1936600014404" y="428.3119639130345"/>
      <point x="371.34160647028597" y="544.9148649364901" type="curve" smooth="yes"/>
      <point x="421.37910471823335" y="745.08393900498"/>
      <point x="464.79314647895546" y="738.0999967132402"/>
      <point x="514.6473447348685" y="537.892726133969" type="curve" smooth="yes"/>
      <point x="543.9806153289808" y="420.0945416628373"/>
      <point x="582.4175326970812" y="266.02023335933495"/>
      <point x="612.5742141984324" y="148.17718696728122" type="curve" smooth="yes"/>
      <point x="615.1999806233488" y="137.9164984823015"/>
      <point x="612.8334765391313" y="152.0913947024057"/>
      <point x="616.0279249953797" y="162.3640563019246" type="curve" smooth="yes"/>
      <point x="652.5920855403488" y="279.94656016552995"/>
      <point x="684.7585128998351" y="388.1501054535395"/>
      <point x="719.854557094169" y="505.8769649262487" type="curve" smooth="yes"/>
      <point x="732.7355785979097" y="549.0853162731694"/>
      <point x="751.944792795124" y="611.1768411133761"/>
      <point x="764.9960101474072" y="653.3274860379096" type="curve" smooth="yes"/>
      <point x="784.9610681756841" y="717.8073003826139"/>
      <point x="870.9341539686233" y="691.187223011578"/>
      <point x="850.9690959403464" y="626.7074086668737" type="curve" smooth="yes"/>
      <point x="838.0164587392917" y="584.8751414720857"/>
      <point x="818.8872869896614" y="523.0468999849339"/>
      <point x="806.1035600917446" y="480.1649155733832" type="curve" smooth="yes"/>
      <point x="770.8815764264962" y="362.01560226763485"/>
      <point x="738.6639398827866" y="253.64387712077726"/>
      <point x="701.968571643641" y="135.63943743319763" type="curve" smooth="yes"/>
      <point x="643.5540179300942" y="-52.20924787345807"/>
      <point x="573.3993665526197" y="-61.76503729945238"/>
      <point x="525.383887208299" y="125.86470437673081" type="curve" smooth="yes"/>
      <point x="495.16394357673914" y="243.95495973787166"/>
      <point x="456.709079463813" y="398.1003633417689"/>
      <point x="427.3142740757053" y="516.1456626714777" type="curve" smooth="yes"/>
      <point x="424.70212255827767" y="526.6356864596279"/>
      <point x="461.27667672746054" y="533.5766395215703"/>
      <point x="458.65492105694074" y="523.0886170708615" type="curve" smooth="yes"/>
      <point x="429.3438157787545" y="405.8330185917893"/>
      <point x="392.7505947928382" y="251.4847019657132"/>
      <point x="360.43344173413305" y="132.22986879161448" type="curve" smooth="yes"/>
      <point x="307.07207675694616" y="-64.68106165875417"/>
      <point x="246.9626088096727" y="-60.29557847539354"/>
      <point x="188.91859818683093" y="130.9520141375419" type="curve" smooth="yes"/>
      <point x="153.06577496242141" y="249.08248197511705"/>
      <point x="124.04364899524064" y="344.134856011099"/>
      <point x="88.85483128099382" y="462.1640265423501" type="curve" smooth="yes"/>
      <point x="76.10848376953489" y="504.9174045130874"/>
      <point x="50.044911799619726" y="584.5416303953101"/>
      <point x="36.99400186222324" y="626.7139322536757" type="curve" smooth="yes"/>
      <point x="17.038729214149235" y="691.1967756582669"/>
      <point x="103.01585375360418" y="717.8038058556988"/>
    </contour>
  </outline>
</glyph>
<glyph name="X" format="2">
  <advance width="617"/>
  <unicode hex="0058"/>
  <outline>
    <contour>
      <point x="138.9027802641397" y="665.7455744761054" type="curve" smooth="yes"/>
      <point x="161.79789936586943" y="632.894543342724"/>
      <point x="186.37936732859956" y="598.7507970575111"/>
      <point x="209.62339646986763" y="566.1397663419602" type="curve" smooth="yes"/>
      <point x="253.3074274818042" y="504.8517138941124"/>
      <point x="301.8916491373219" y="433.85255721856333"/>
      <point x="345.69971456419773" y="372.03450668146513" type="curve" smooth="yes"/>
      <point x="391.9519097580032" y="306.767517325019"/>
      <point x="434.6191216084433" y="251.38902610308062"/>
      <point x="479.64463899322345" y="188.1099215186181" type="curve" smooth="yes"/>
      <point x="508.2048241250443" y="147.9712835444323"/>
      <point x="537.4960244269341" y="106.31792651277014"/>
      <point x="566.4115167589373" y="66.43448713770509" type="curve" smooth="yes"/>
      <point x="606.0318267413943" y="11.785781417495926"/>
      <point x="533.1668857811153" y="-41.04129855911329"/>
      <point x="493.54657579865835" y="13.607407161095878" type="curve" smooth="yes"/>
      <point x="464.45468716972067" y="53.734151783534685"/>
      <point x="435.04787755712385" y="95.54846902674888"/>
      <point x="406.31346364720844" y="135.93196906385035" type="curve" smooth="yes"/>
      <point x="361.08744906957645" y="199.49285348277738"/>
      <point x="318.3183840582118" y="255.0159301189089"/>
      <point x="272.26887534332786" y="319.9969063205841" type="curve" smooth="yes"/>
      <point x="229.3703324990528" y="380.53151938040577"/>
      <point x="180.93936871624035" y="451.3224716372233"/>
      <point x="136.33473742431133" y="513.9021127259698" type="curve" smooth="yes"/>
      <point x="112.89004624665458" y="546.7946693246774"/>
      <point x="88.1586029132648" y="581.1512006679112"/>
      <point x="65.06583386047058" y="614.2858295701918" type="curve" smooth="yes"/>
      <point x="26.47102518103543" y="669.6635393729437"/>
      <point x="100.30797158470455" y="721.1232842788572"/>
    </contour>
    <contour>
      <point x="558.3721879440001" y="613.5532108904177" type="curve" smooth="yes"/>
      <point x="534.4301522988303" y="580.6329132571727"/>
      <point x="510.2771620976095" y="546.811100027312"/>
      <point x="486.5197537197362" y="513.7573163669958" type="curve" smooth="yes"/>
      <point x="441.25885658849967" y="450.78563703849323"/>
      <point x="391.3883624147392" y="382.60005100588995"/>
      <point x="345.31175365012706" y="319.4951329392254" type="curve" smooth="yes"/>
      <point x="298.07613253513506" y="254.8028719371768"/>
      <point x="256.0863441320102" y="195.80782399669334"/>
      <point x="212.40303801784316" y="135.59570188085615" type="curve" smooth="yes"/>
      <point x="182.6257626120038" y="94.551351017682"/>
      <point x="152.5851043409342" y="52.467517045517205"/>
      <point x="124.41152243619808" y="13.607405706221307" type="curve" smooth="yes"/>
      <point x="84.7912102714293" y="-41.041298431811796"/>
      <point x="11.9262714207185" y="11.785784454546565"/>
      <point x="51.54658358548728" y="66.43448859257967" type="curve" smooth="yes"/>
      <point x="80.49101554317815" y="106.35784133955349"/>
      <point x="110.56645073974578" y="148.4889005732104"/>
      <point x="139.55507275587385" y="188.4461887016123" type="curve" smooth="yes"/>
      <point x="184.36629113645515" y="250.21300063290875"/>
      <point x="226.57183835787535" y="309.4943146132237"/>
      <point x="272.6254203315006" y="372.56769598920016" type="curve" smooth="yes"/>
      <point x="318.53727790593297" y="435.446976565684"/>
      <point x="368.3393091428471" y="503.53804445514044"/>
      <point x="413.4383717365404" y="566.2845627009342" type="curve" smooth="yes"/>
      <point x="437.30488634504314" y="599.4901463255334"/>
      <point x="461.53395163227" y="633.4171805702583"/>
      <point x="485.5859414113794" y="666.488665131338" type="curve" smooth="yes"/>
      <point x="525.2875320920697" y="721.0783500308034"/>
      <point x="598.0737786246904" y="668.1428957898831"/>
    </contour>
  </outline>
</glyph>
<glyph name="Y" format="2">
  <advance width="582"/>
  <unicode hex="0059"/>
  <outline>
    <contour>
      <point x="541.3664023797976" y="618.2479137092545" type="curve" smooth="yes"/>
      <point x="520.1301895619532" y="579.8289117082644"/>
      <point x="500.038404094208" y="541.8727456075604"/>
      <point x="479.4160331869544" y="504.34779234347104" type="curve" smooth="yes"/>
      <point x="439.42219120240486" y="431.5740526958284"/>
      <point x="410.60943683720626" y="380.5885204474868"/>
      <point x="371.65599944228944" y="307.7902973404585" type="curve" smooth="yes"/>
      <point x="353.0943511325254" y="273.1013172335389"/>
      <point x="335.9790555773965" y="234.5259372758963"/>
      <point x="335.9790541607734" y="188.02094352445326" type="curve" smooth="yes"/>
      <point x="335.9790533442155" y="161.214934110349"/>
      <point x="335.97905278657845" y="142.9087793731176"/>
      <point x="335.9790518152193" y="111.02094469723018" type="curve" smooth="yes"/>
      <point x="335.9790515969642" y="103.8560494119445"/>
      <point x="245.99999566021984" y="107.53342834017467"/>
      <point x="245.99999588766488" y="115.00000342694601" type="curve" smooth="yes"/>
      <point x="245.9999971125016" y="155.20901754810245"/>
      <point x="245.99999728815973" y="160.97553791238886"/>
      <point x="245.9999981418338" y="189.00000229986148" type="curve" smooth="yes"/>
      <point x="246.00000120503248" y="289.55888203352816"/>
      <point x="215.15167488727317" y="301.9132461558266"/>
      <point x="164.0107244574551" y="390.5204275404793" type="curve" smooth="yes"/>
      <point x="120.77021291067385" y="465.43925125394884"/>
      <point x="95.63167319595544" y="516.1816294991233"/>
      <point x="40.373837585289145" y="618.6598031481717" type="curve" smooth="yes"/>
      <point x="8.337371278959274" y="678.0728894726793"/>
      <point x="87.55481971163603" y="720.7881778811192"/>
      <point x="119.5912860179659" y="661.3750915566116" type="curve" smooth="yes"/>
      <point x="174.34879359451233" y="559.8247990414403"/>
      <point x="199.11027499604742" y="509.7500638566984"/>
      <point x="241.95926849118135" y="435.50958715723857" type="curve" smooth="yes"/>
      <point x="306.1781922559498" y="324.24341438321284"/>
      <point x="336.0000019883661" y="315.27420794144825"/>
      <point x="335.99999814183377" y="188.99999955830475" type="curve" smooth="yes"/>
      <point x="335.99999756898103" y="170.19435346739687"/>
      <point x="335.99999670958385" y="141.98201464190922"/>
      <point x="335.99999588766485" y="115.00000068538914" type="curve" smooth="yes"/>
      <point x="335.99999052865445" y="-60.92592943052446"/>
      <point x="245.9790466727346" y="-57.796864288604745"/>
      <point x="245.97905181521932" y="111.0209474387871" type="curve" smooth="yes"/>
      <point x="245.9790532627535" y="158.54069140015375"/>
      <point x="245.97905361282733" y="170.03293696166335"/>
      <point x="245.97905416077342" y="188.02094626600993" type="curve" smooth="yes"/>
      <point x="245.97905609052944" y="251.37109973234178"/>
      <point x="267.0170194135917" y="302.9974755082181"/>
      <point x="292.30211622053713" y="350.25158815489914" type="curve" smooth="yes"/>
      <point x="331.4344478221206" y="423.3841381208757"/>
      <point x="360.3645769240682" y="474.58613308496257"/>
      <point x="400.5420911879302" y="547.6940871509233" type="curve" smooth="yes"/>
      <point x="421.3603687070437" y="585.5755167138449"/>
      <point x="441.5607625192863" y="623.7266690833019"/>
      <point x="462.5987083686024" y="661.7869809955288" type="curve" smooth="yes"/>
      <point x="495.2530088333081" y="720.8627515039252"/>
      <point x="574.0207028445034" y="677.3236842176509"/>
    </contour>
  </outline>
</glyph>
<glyph name="Z" format="2">
  <advance width="595"/>
  <unicode hex="005A"/>
  <outline>
    <contour>
      <point x="104.98006790188454" y="680.0174473594642" type="curve" smooth="yes"/>
      <point x="156.4883313644534" y="680.0203014502953"/>
      <point x="288.29757679979315" y="680.0209380870324"/>
      <point x="356.9790668709351" y="680.0209380870324" type="curve" smooth="yes"/>
      <point x="561.4715660393804" y="680.0209380870324"/>
      <point x="571.0399471457241" y="639.1752424254331"/>
      <point x="460.3477473355089" y="487.4782544821424" type="curve" smooth="yes"/>
      <point x="376.44029032851876" y="372.48814211862515"/>
      <point x="296.40379510317103" y="262.56761785497326"/>
      <point x="212.44525116691065" y="146.6124103213111" type="curve" smooth="yes"/>
      <point x="164.28650166635052" y="80.10032553410299"/>
      <point x="159.16150956308167" y="90.02094707324625"/>
      <point x="274.97905014743895" y="90.02094707324613" type="curve" smooth="yes"/>
      <point x="333.8488987798464" y="90.02094707324609"/>
      <point x="456.4604060758845" y="90.02031034252795"/>
      <point x="489.986368415682" y="90.0174562516968" type="curve" smooth="yes"/>
      <point x="557.4863681710874" y="90.01170992502598"/>
      <point x="557.478706402193" y="0.011710251152111236"/>
      <point x="489.9787066467876" y="0.017456577822926533" type="curve" smooth="yes"/>
      <point x="440.0177995284912" y="0.021709788080634115"/>
      <point x="362.70780822996215" y="0.02094707324608215"/>
      <point x="274.97905014743895" y="0.020947073246134096" type="curve" smooth="yes"/>
      <point x="21.908586890318325" y="0.020947073246276524"/>
      <point x="34.31709952622625" y="54.06042080811422"/>
      <point x="139.54776652621652" y="199.39457334121553" type="curve" smooth="yes"/>
      <point x="223.59834452300856" y="315.476889184393"/>
      <point x="303.6458485111961" y="425.4125560423334"/>
      <point x="387.64528357801413" y="540.5287187929301" type="curve" smooth="yes"/>
      <point x="431.2829299394456" y="600.3314829019943"/>
      <point x="437.5951480182757" y="590.0209380870324"/>
      <point x="356.9790668709351" y="590.0209380870324" type="curve" smooth="yes"/>
      <point x="254.62884910799133" y="590.0209380870324"/>
      <point x="181.74346494522567" y="590.0217007078853"/>
      <point x="104.98505483321081" y="590.017447497628" type="curve" smooth="yes"/>
      <point x="37.48505493683366" y="590.0137072991333"/>
      <point x="37.48006800550739" y="680.0137071609695"/>
    </contour>
  </outline>
</glyph>
<glyph name="backslash" format="2">
  <advance width="490"/>
  <unicode hex="005C"/>
  <outline>
    <contour>
      <point x="349.42016124286056" y="-134.07930406209022" type="curve" smooth="yes"/>
      <point x="69.42019139998482" y="715.9206829916694" type="line" smooth="yes"/>
      <point x="48.3012268537161" y="780.0318312928304"/>
      <point x="133.78275792193068" y="808.1904506878553"/>
      <point x="154.90172246819938" y="744.0793023866944" type="curve" smooth="yes"/>
      <point x="434.90169231107507" y="-105.92068466706534" type="line" smooth="yes"/>
      <point x="456.02065685734374" y="-170.03183296822627"/>
      <point x="370.53912578912923" y="-198.19045236325115"/>
    </contour>
  </outline>
</glyph>
<glyph name="bracketright" format="2">
  <advance width="430"/>
  <unicode hex="005D"/>
  <outline>
    <contour>
      <point x="84.999990922401" y="-67.99999447119387" type="curve" smooth="yes"/>
      <point x="271.99998807422816" y="-67.99999447119387" type="line"/>
      <point x="226.99998807422818" y="-112.99999310041548" type="line"/>
      <point x="227.00001354024417" y="722.9999941665765" type="line"/>
      <point x="272.00001354024414" y="677.9999927957981" type="line"/>
      <point x="85.00001638841702" y="677.9999927957981" type="line" smooth="yes"/>
      <point x="17.500016388417023" y="677.9999927957981"/>
      <point x="17.500016388417052" y="767.9999927957981"/>
      <point x="85.00001638841705" y="767.9999927957981" type="curve" smooth="yes"/>
      <point x="272.00001354024414" y="767.9999927957981" type="line" smooth="yes"/>
      <point x="296.8528278179521" y="767.9999927957981"/>
      <point x="317.0000142973042" y="747.8528057027277"/>
      <point x="317.00001354024414" y="722.9999914250197" type="curve" smooth="yes"/>
      <point x="316.99998807422816" y="-112.99999584197226" type="line" smooth="yes"/>
      <point x="316.9999873171682" y="-137.85280904903587"/>
      <point x="296.85280128129176" y="-157.99999447119387"/>
      <point x="271.99998807422816" y="-157.99999447119387" type="curve" smooth="yes"/>
      <point x="84.999990922401" y="-157.99999447119387" type="line" smooth="yes"/>
      <point x="17.499990922400997" y="-157.99999447119384"/>
      <point x="17.499990922400997" y="-67.99999447119386"/>
    </contour>
  </outline>
</glyph>
<glyph name="asciicircum" format="2">
  <advance width="560"/>
  <unicode hex="005E"/>
  <outline>
    <contour>
      <point x="71.58428272570731" y="322.78811329881097" type="curve" smooth="yes"/>
      <point x="236.58429047822054" y="659.7881081660074" type="line" smooth="yes"/>
      <point x="252.93427595061547" y="693.1817127805011"/>
      <point x="300.4313295160736" y="693.4642644662706"/>
      <point x="317.1774492227411" y="660.2675428078504" type="curve" smooth="yes"/>
      <point x="487.17743636788606" y="323.26754794065397" type="line" smooth="yes"/>
      <point x="517.5787594897214" y="263.0013919952001"/>
      <point x="437.2238848957829" y="222.46629449941983"/>
      <point x="406.8225617739476" y="282.7324504448737" type="curve" smooth="yes"/>
      <point x="236.82257462880258" y="619.7324453120701" type="line"/>
      <point x="317.4157333733232" y="620.2118799539131" type="line"/>
      <point x="152.41572562080992" y="283.2118850867167" type="line" smooth="yes"/>
      <point x="122.73355446173919" y="222.58830291538973"/>
      <point x="41.90211156663658" y="262.16453112748405"/>
    </contour>
  </outline>
</glyph>
<glyph name="underscore" format="2">
  <advance width="535"/>
  <unicode hex="005F"/>
  <outline>
    <contour>
      <point x="536.9999859038289" y="-122.99999500427435" type="curve" smooth="yes"/>
      <point x="-2.00000588673158" y="-122.99999500427435" type="line" smooth="yes"/>
      <point x="-69.50000588673159" y="-122.99999500427434"/>
      <point x="-69.50000588673156" y="-32.99999500427434"/>
      <point x="-2.000005886731563" y="-32.99999500427435" type="curve" smooth="yes"/>
      <point x="536.9999859038289" y="-32.99999500427435" type="line" smooth="yes"/>
      <point x="604.4999859038289" y="-32.999995004274375"/>
      <point x="604.4999859038289" y="-122.99999500427438"/>
    </contour>
  </outline>
</glyph>
<glyph name="a" format="2">
  <advance width="584"/>
  <unicode hex="0061"/>
  <anchor x="302" y="507" name="above"/>
  <anchor x="302" y="-10" name="below"/>
  <outline>
    <contour>
      <point x="519.0" y="452.0" type="curve" smooth="yes"/>
      <point x="519.0" y="384.0"/>
      <point x="519.0" y="343.0"/>
      <point x="519.0" y="227.0" type="curve" smooth="yes"/>
      <point x="519.0" y="76.0"/>
      <point x="417.0" y="-11.0"/>
      <point x="280.0" y="-11.0" type="curve" smooth="yes"/>
      <point x="143.0" y="-11.0"/>
      <point x="39.0" y="98.0"/>
      <point x="39.0" y="249.0" type="curve" smooth="yes"/>
      <point x="39.0" y="400.0"/>
      <point x="142.0" y="508.0"/>
      <point x="279.0" y="508.0" type="curve" smooth="yes"/>
      <point x="415.0" y="508.0"/>
      <point x="519.0" y="402.0"/>
      <point x="519.0" y="251.0" type="curve" smooth="yes"/>
      <point x="519.0" y="206.0"/>
      <point x="519.0" y="163.0"/>
      <point x="519.0" y="129.0" type="curve" smooth="yes"/>
      <point x="519.0" y="93.0"/>
      <point x="519.0" y="65.0"/>
      <point x="519.0" y="29.0" type="curve" smooth="yes"/>
      <point x="519.0" y="-39.0"/>
      <point x="429.0" y="-39.0"/>
      <point x="429.0" y="29.0" type="curve" smooth="yes"/>
      <point x="429.0" y="62.0"/>
      <point x="429.0" y="96.0"/>
      <point x="429.0" y="129.0" type="curve" smooth="yes"/>
      <point x="429.0" y="152.0"/>
      <point x="429.0" y="221.0"/>
      <point x="429.0" y="251.0" type="curve" smooth="yes"/>
      <point x="429.0" y="350.0"/>
      <point x="367.0" y="418.0"/>
      <point x="279.0" y="418.0" type="curve" smooth="yes"/>
      <point x="190.0" y="418.0"/>
      <point x="129.0" y="348.0"/>
      <point x="129.0" y="249.0" type="curve" smooth="yes"/>
      <point x="129.0" y="150.0"/>
      <point x="191.0" y="79.0"/>
      <point x="280.0" y="79.0" type="curve" smooth="yes"/>
      <point x="369.0" y="79.0"/>
      <point x="429.0" y="128.0"/>
      <point x="429.0" y="227.0" type="curve" smooth="yes"/>
      <point x="429.0" y="305.0"/>
      <point x="429.0" y="406.0"/>
      <point x="429.0" y="452.0" type="curve" smooth="yes"/>
      <point x="429.0" y="520.0"/>
      <point x="519.0" y="519.0"/>
    </contour>
  </outline>
</glyph>
<glyph name="b" format="2">
  <advance width="584"/>
  <unicode hex="0062"/>
  <outline>
    <contour>
      <point x="65.98324144540805" y="44.01341470325492" type="curve" smooth="yes"/>
      <point x="65.97996058596078" y="88.16908338201632"/>
      <point x="65.97905569285895" y="147.8163470015441"/>
      <point x="65.97905880618907" y="250.020945321696" type="curve" smooth="yes"/>
      <point x="65.97906340898727" y="401.1218974357491"/>
      <point x="167.17499401173467" y="508.0209407067421"/>
      <point x="304.97906233975107" y="508.02094070674207" type="curve" smooth="yes"/>
      <point x="441.64262068121053" y="508.020940706742"/>
      <point x="545.9790574103257" y="399.19744520071106"/>
      <point x="545.9790528052259" y="248.02094261060094" type="curve" smooth="yes"/>
      <point x="545.97904818623" y="96.38825200901753"/>
      <point x="438.20979268686574" y="-10.983473572334244"/>
      <point x="305.9939200895724" y="-10.99126998568049" type="curve" smooth="yes"/>
      <point x="164.71782508489886" y="-10.999600655901569"/>
      <point x="77.44465148897501" y="103.19465224424732"/>
      <point x="71.10308427416564" y="196.96305852361678" type="curve" smooth="yes"/>
      <point x="57.08442396170239" y="404.24737660224275"/>
      <point x="65.97906505280902" y="455.08537973794904"/>
      <point x="65.97906968103084" y="607.0209398842751" type="curve" smooth="yes"/>
      <point x="65.97907032860347" y="628.2794963348668"/>
      <point x="65.98008807647317" y="669.6757154302078"/>
      <point x="65.9815158939729" y="695.0210287681898" type="curve" smooth="yes"/>
      <point x="65.98531847789818" y="762.5210286610813"/>
      <point x="155.98531833508687" y="762.515958549181"/>
      <point x="155.9815157511616" y="695.0159586562895" type="curve" smooth="yes"/>
      <point x="155.97938799546097" y="657.2459810869984"/>
      <point x="155.97907064605351" y="638.7007664502963"/>
      <point x="155.97906968103078" y="607.0209371427184" type="curve" smooth="yes"/>
      <point x="155.9790651107395" y="456.9871236630474"/>
      <point x="147.05477366086052" y="407.7256780090516"/>
      <point x="160.8979652384567" y="203.03589580192443" type="curve" smooth="yes"/>
      <point x="164.6976917564663" y="146.85194508085155"/>
      <point x="221.33910820700393" y="79.00373830489602"/>
      <point x="305.98861303232536" y="79.00872985784808" type="curve" smooth="yes"/>
      <point x="391.68162776501134" y="79.01378294376448"/>
      <point x="455.9790498115181" y="149.74331699769107"/>
      <point x="455.97905280522593" y="248.02094535215772" type="curve" smooth="yes"/>
      <point x="455.9790558123979" y="346.7405773401486"/>
      <point x="394.2216096568948" y="418.020940706742"/>
      <point x="304.97906233975107" y="418.02094070674207" type="curve" smooth="yes"/>
      <point x="214.90171929518115" y="418.0209407067421"/>
      <point x="155.97906181486525" y="348.7899590763782"/>
      <point x="155.97905880618902" y="250.0209425801392" type="curve" smooth="yes"/>
      <point x="155.97905416665625" y="97.7140709090921"/>
      <point x="155.9783520095281" y="109.82156164702074"/>
      <point x="155.9832411969719" y="44.020101893332075" type="curve" smooth="yes"/>
      <point x="155.98825658952984" y="-23.479897920340797"/>
      <point x="65.98825683796599" y="-23.486585110417955"/>
    </contour>
  </outline>
</glyph>
<glyph name="c" format="2">
  <advance width="475"/>
  <unicode hex="0063"/>
  <outline>
    <contour>
      <point x="420.023200429597" y="31.31455493775418" type="curve" smooth="yes"/>
      <point x="381.3561658140062" y="3.88087725569919"/>
      <point x="324.7664779038634" y="-10.329080227362805"/>
      <point x="278.6083617105677" y="-10.974652158789652" type="curve" smooth="yes"/>
      <point x="150.28752738054422" y="-12.7693599088596"/>
      <point x="38.97905342162198" y="87.00603397770644"/>
      <point x="38.97905832641663" y="248.02094535215772" type="curve" smooth="yes"/>
      <point x="38.97906316228721" y="406.7732131467557"/>
      <point x="147.73487782595916" y="507.020940721973"/>
      <point x="274.97906193613295" y="507.020940721973" type="curve" smooth="yes"/>
      <point x="322.5143816020244" y="507.020940721973"/>
      <point x="380.2145481761433" y="494.3316097013793"/>
      <point x="420.2486567438093" y="465.55586544124736" type="curve" smooth="yes"/>
      <point x="475.0588970503869" y="426.15932298464065"/>
      <point x="422.5301737749113" y="353.0790025758705"/>
      <point x="367.7199334683337" y="392.4755450324772" type="curve" smooth="yes"/>
      <point x="343.8636521350735" y="409.62297943790065"/>
      <point x="303.3053067256038" y="417.020940721973"/>
      <point x="274.97906193613295" y="417.020940721973" type="curve" smooth="yes"/>
      <point x="192.3019003735737" y="417.020940721973"/>
      <point x="128.97906146853313" y="351.1705441791272"/>
      <point x="128.97905832641658" y="248.02094261060094" type="curve" smooth="yes"/>
      <point x="128.97905513313637" y="143.19173496434817"/>
      <point x="193.80609849903288" y="77.84809714838269"/>
      <point x="277.34973599506213" y="79.01654664036108" type="curve" smooth="yes"/>
      <point x="305.1032340952858" y="79.40470978153827"/>
      <point x="344.6960335388042" y="88.22181464963519"/>
      <point x="367.94536778916853" y="104.71686653265918" type="curve" smooth="yes"/>
      <point x="422.9971014853473" y="143.77524101298053"/>
      <point x="475.07493412577577" y="70.37292941807551"/>
    </contour>
  </outline>
</glyph>
<glyph name="d" format="2">
  <advance width="584"/>
  <unicode hex="0064"/>
  <outline>
    <contour>
      <point x="518.9807849221552" y="695.9778170567942" type="curve" smooth="yes"/>
      <point x="519" y="654"/>
      <point x="519" y="634"/>
      <point x="519" y="584" type="curve" smooth="yes"/>
      <point x="519" y="433"/>
      <point x="518.9999929890325" y="389.1564732736323"/>
      <point x="518.9999976239841" y="237.0000015687797" type="curve" smooth="yes"/>
      <point x="519.0000022267826" y="85.8990494547267"/>
      <point x="416.5799330999464" y="-11.016721104800347"/>
      <point x="279.9804528542762" y="-11.020940639580395" type="curve" smooth="yes"/>
      <point x="143.31267286848316" y="-11.025162284127834"/>
      <point x="38.97906385298398" y="97.80255210342477"/>
      <point x="38.979059247884315" y="248.9790546935349" type="curve" smooth="yes"/>
      <point x="38.97905464041855" y="400.2332315284739"/>
      <point x="142.24527390026688" y="507.9790528049069"/>
      <point x="278.97904975905175" y="507.9790528049069" type="curve" smooth="yes"/>
      <point x="414.57055407437906" y="507.9790528049069"/>
      <point x="518.9773033079349" y="402.30711599874326"/>
      <point x="518.9773079177046" y="250.97731207538683" type="curve" smooth="yes"/>
      <point x="518.9773092910058" y="205.89447806075682"/>
      <point x="518.9773105947814" y="163.09405318786767"/>
      <point x="518.977311634037" y="128.9773139335531" type="curve" smooth="yes"/>
      <point x="518.9773127387173" y="92.71280684298095"/>
      <point x="518.9778389884268" y="65.2447281435053"/>
      <point x="518.9797580780978" y="28.982139037953676" type="curve" smooth="yes"/>
      <point x="518.9833303148251" y="-38.51786086752132"/>
      <point x="429" y="-39"/>
      <point x="428.9797582041311" y="28.977376055650563" type="curve" smooth="yes"/>
      <point x="429" y="68"/>
      <point x="428.9773125394398" y="99.2546899450159"/>
      <point x="428.9773116340371" y="128.9773111919962" type="curve" smooth="yes"/>
      <point x="428.9773109366511" y="151.87114121571022"/>
      <point x="428.9773088392504" y="220.72474823106506"/>
      <point x="428.9773079177046" y="250.97730933382994" type="curve" smooth="yes"/>
      <point x="428.9773049134978" y="349.59959836414214"/>
      <point x="367.3446207302115" y="417.9790528049069"/>
      <point x="278.97904975905175" y="417.9790528049069" type="curve" smooth="yes"/>
      <point x="189.73650244190796" y="417.9790528049069"/>
      <point x="128.97905624071228" y="347.69868942308256"/>
      <point x="128.97905924788427" y="248.97905743509168" type="curve" smooth="yes"/>
      <point x="128.97906225505625" y="150.25942544710077"/>
      <point x="190.73236868022678" y="78.97630254517243"/>
      <point x="279.9776727695398" y="78.97905931748144" type="curve" smooth="yes"/>
      <point x="369.31228914157083" y="78.9818188486317"/>
      <point x="429.00000063416564" y="138.18157311812934"/>
      <point x="428.99999762398414" y="236.99999882722292" type="curve" smooth="yes"/>
      <point x="428.9999922015552" y="415.00784311628775"/>
      <point x="429" y="455"/>
      <point x="429" y="584" type="curve" smooth="yes"/>
      <point x="429" y="620"/>
      <point x="429" y="653"/>
      <point x="428.9807851191702" y="695.98377211392" type="curve" smooth="yes"/>
      <point x="429" y="763"/>
      <point x="519" y="763"/>
    </contour>
  </outline>
</glyph>
<glyph name="e" format="2">
  <advance width="548"/>
  <unicode hex="0065"/>
  <outline>
    <contour>
      <point x="159.98549933207167" y="294.0087262907906" type="curve" smooth="yes"/>
      <point x="215.57766559126512" y="294.0158615178685"/>
      <point x="304.85087612833223" y="294.00872666144653"/>
      <point x="366.9912719069845" y="294.00872666144653" type="curve" smooth="yes"/>
      <point x="400.18748032928386" y="294.00872666144653"/>
      <point x="416.53446847540266" y="288.777322716135"/>
      <point x="411.7844526137145" y="313.54526716915535" type="curve" smooth="yes"/>
      <point x="399.15101852269606" y="379.419614314183"/>
      <point x="349.32223914933417" y="418.02094070674207"/>
      <point x="281.9790624159054" y="418.02094070674207" type="curve" smooth="yes"/>
      <point x="191.4513326561126" y="418.02094070674207"/>
      <point x="128.9790620028221" y="350.46021575984014"/>
      <point x="128.97905888234334" y="248.02094261060094" type="curve" smooth="yes"/>
      <point x="128.9790555823382" y="139.68816671532267"/>
      <point x="197.09064343483263" y="79.02094724078573"/>
      <point x="290.9790492107404" y="79.02094724078572" type="curve" smooth="yes"/>
      <point x="334.0190699822269" y="79.02094724078572"/>
      <point x="381.5445943971446" y="92.53975018144929"/>
      <point x="428.8931251990582" y="119.22005591928958" type="curve" smooth="yes"/>
      <point x="487.6996432493382" y="152.3567943647385"/>
      <point x="531.8819611766035" y="73.94810363103184"/>
      <point x="473.0754431263234" y="40.811365185582915" type="curve" smooth="yes"/>
      <point x="410.4765273631459" y="5.53765799483334"/>
      <point x="347.8817363498903" y="-10.97905275921429"/>
      <point x="290.9790492107404" y="-10.979052759214284" type="curve" smooth="yes"/>
      <point x="150.8893173204802" y="-10.97905275921427"/>
      <point x="38.979053958446485" y="86.37894701724204"/>
      <point x="38.97905888234339" y="248.02094535215772" type="curve" smooth="yes"/>
      <point x="38.979063618205835" y="403.4901369607474"/>
      <point x="144.58768378505872" y="508.02094070674207"/>
      <point x="281.9790624159054" y="508.02094070674207" type="curve" smooth="yes"/>
      <point x="392.64442814733246" y="508.02094070674207"/>
      <point x="479.4130754156221" y="438.74824955441096"/>
      <point x="500.17365832754206" y="330.49661853943445" type="curve" smooth="yes"/>
      <point x="516.3881609728546" y="245.9495533198004"/>
      <point x="480.30879019552657" y="204.00872666144653"/>
      <point x="366.9912719069845" y="204.00872666144653" type="curve" smooth="yes"/>
      <point x="274.3886939309879" y="204.00872666144653"/>
      <point x="242.84135595104522" y="204.0193600577466"/>
      <point x="159.9970507874779" y="204.00872703210243" type="curve" smooth="yes"/>
      <point x="92.49705134346173" y="204.00006344054782"/>
      <point x="92.48549988805551" y="294.000062699236"/>
    </contour>
  </outline>
</glyph>
<glyph name="f" format="2">
  <advance width="364"/>
  <unicode hex="0066"/>
  <outline>
    <contour>
      <point x="317.68278080501915" y="635.8528312586708" type="curve" smooth="yes"/>
      <point x="259.8806358176732" y="665.0819973265417"/>
      <point x="207.97906837246367" y="645.063212541115"/>
      <point x="207.97906651300963" y="584.0209374930284" type="curve" smooth="yes"/>
      <point x="207.97906131673304" y="413.4372412214555"/>
      <point x="207.97905668083004" y="261.24952312929565"/>
      <point x="207.97905466339213" y="195.02094341783712" type="curve" smooth="yes"/>
      <point x="207.97905273334646" y="131.66128480268145"/>
      <point x="207.97881239243284" y="91.20003329362042"/>
      <point x="207.9830640437429" y="40.020671201890885" type="curve" smooth="yes"/>
      <point x="207.9886715083673" y="-27.47932856519312"/>
      <point x="117.98867181892199" y="-27.486805184692322"/>
      <point x="117.98306435429758" y="40.013194582391684" type="curve" smooth="yes"/>
      <point x="117.98021130958882" y="74.35679370879389"/>
      <point x="117.97905336824682" y="152.50383325821068"/>
      <point x="117.97905466339219" y="195.0209461593939" type="curve" smooth="yes"/>
      <point x="117.9790576698094" y="293.7157990022323"/>
      <point x="117.97906302607997" y="469.55179011601507"/>
      <point x="117.97906651300968" y="584.0209402345852" type="curve" smooth="yes"/>
      <point x="117.97907037208967" y="710.7070613459025"/>
      <point x="238.33468730532994" y="776.829824225978"/>
      <point x="358.2962964457544" y="716.1680997155448" type="curve" smooth="yes"/>
      <point x="418.53274778840995" y="685.7079629849933"/>
      <point x="377.9192321476747" y="605.3926945281193"/>
    </contour>
    <contour>
      <point x="308.98604161568056" y="408.0139595420783" type="curve" smooth="yes"/>
      <point x="267.55857252115595" y="408.0139595420783"/>
      <point x="252.45340197477907" y="408.0131408573065"/>
      <point x="221.99564286090109" y="408.0095965236588" type="curve" smooth="yes"/>
      <point x="183.99376087319405" y="408.0051742892951"/>
      <point x="148.99581945580644" y="408.0050579377652"/>
      <point x="110.98503481915118" y="408.0095965397547" type="curve" smooth="yes"/>
      <point x="90.40281010828507" y="408.0120541192789"/>
      <point x="79.732103862229" y="408.0139595420783"/>
      <point x="56.98604545386001" y="408.0139595420783" type="curve" smooth="yes"/>
      <point x="-10.513954546139992" y="408.0139595420783"/>
      <point x="-10.513954546139978" y="498.0139595420783"/>
      <point x="56.98604545386002" y="498.0139595420783" type="curve" smooth="yes"/>
      <point x="77.98949720989985" y="498.0139595420783"/>
      <point x="91.9903887713899" y="498.01186519918105"/>
      <point x="110.99578108971754" y="498.0095958981862" type="curve" smooth="yes"/>
      <point x="152.32469282945752" y="498.0046611018425"/>
      <point x="180.66593772696137" y="498.00478764380154"/>
      <point x="221.9851696667143" y="498.0095959142821" type="curve" smooth="yes"/>
      <point x="246.9863113595278" y="498.0125052677704"/>
      <point x="274.98045305828276" y="498.0139595420783"/>
      <point x="308.98604161568056" y="498.0139595420783" type="curve" smooth="yes"/>
      <point x="376.48604161568056" y="498.0139595420783"/>
      <point x="376.48604161568056" y="408.0139595420783"/>
    </contour>
  </outline>
</glyph>
<glyph name="i" format="2">
  <advance width="231"/>
  <unicode hex="0069"/>
  <anchor x="115" y="722" name="above"/>
  <anchor x="115" y="0" name="below"/>
  <outline>
    <contour>
      <point x="69.98255319993416" y="39.97974336691162" type="curve" smooth="yes"/>
      <point x="70" y="83"/>
      <point x="69.97905980090212" y="127.07455095149446"/>
      <point x="69.97905864626489" y="164.97905597292808" type="curve" smooth="yes"/>
      <point x="69.9790565677544" y="233.2125344815571"/>
      <point x="69.97905560720285" y="264.7455749055126"/>
      <point x="69.9790535286923" y="332.97905341414173" type="curve" smooth="yes"/>
      <point x="69.97905237347774" y="370.90251068808607"/>
      <point x="70" y="408"/>
      <point x="69.98254047877025" y="457.9855339629213" type="curve" smooth="yes"/>
      <point x="70" y="525"/>
      <point x="160" y="525"/>
      <point x="159.9825402800451" y="457.97955311617375" type="curve" smooth="yes"/>
      <point x="160" y="406"/>
      <point x="159.97905212482436" y="379.0653175193073"/>
      <point x="159.97905352869225" y="332.97905615569846" type="curve" smooth="yes"/>
      <point x="159.97905492346408" y="287.19139610827045"/>
      <point x="159.9790572514931" y="210.76671876191278"/>
      <point x="159.97905864626486" y="164.97905871448475" type="curve" smooth="yes"/>
      <point x="159.9790600501327" y="118.89279735087587"/>
      <point x="159.97967891746995" y="86.06874510519721"/>
      <point x="159.98255302489721" y="39.9853564451915" type="curve" smooth="yes"/>
      <point x="159.98676283360712" y="-27.5146434235308"/>
      <point x="70" y="-28"/>
    </contour>
    <contour>
      <point x="70" y="636" type="curve" smooth="yes"/>
      <point x="70" y="657"/>
      <point x="70" y="664"/>
      <point x="70" y="685" type="curve" smooth="yes"/>
      <point x="70" y="746"/>
      <point x="160" y="746"/>
      <point x="160" y="685" type="curve" smooth="yes"/>
      <point x="160" y="664"/>
      <point x="160" y="657"/>
      <point x="160" y="636" type="curve" smooth="yes"/>
      <point x="160" y="574"/>
      <point x="70" y="574"/>
    </contour>
  </outline>
</glyph>
<glyph name="j" format="2">
  <advance width="245"/>
  <unicode hex="006A"/>
  <outline>
    <contour>
      <point x="173.98393638088749" y="457.98020149319234" type="curve" smooth="yes"/>
      <point x="174" y="402"/>
      <point x="173.9790522766361" y="370.581634969393"/>
      <point x="173.97905509747193" y="277.97905699339645" type="curve" smooth="yes"/>
      <point x="173.9790568160302" y="221.56211872067263"/>
      <point x="173.97906118911067" y="78.00235591028796"/>
      <point x="173.97906408368573" y="-17.020938513496695" type="curve" smooth="yes"/>
      <point x="173.97906825932125" y="-154.09896725350896"/>
      <point x="65.35442774039048" y="-192.7181589834931"/>
      <point x="-31.007355955481103" y="-156.07353743913347" type="curve" smooth="yes"/>
      <point x="-94.09934447318383" y="-132.08080968920754"/>
      <point x="-62.10904080661593" y="-47.95815833227054"/>
      <point x="0.9829477110868066" y="-71.95088608219648" type="curve" smooth="yes"/>
      <point x="46.33713356202334" y="-89.19825233275839"/>
      <point x="83.97906604901421" y="-81.53886685900733"/>
      <point x="83.97906408368578" y="-17.020941255053494" type="curve" smooth="yes"/>
      <point x="83.97905977014524" y="124.58424038489919"/>
      <point x="83.97905765849399" y="193.9056610894216"/>
      <point x="83.97905509747198" y="277.9790542518396" type="curve" smooth="yes"/>
      <point x="83.97905320456731" y="340.11945003049186"/>
      <point x="84" y="400"/>
      <point x="83.98393669144214" y="457.9876781126917" type="curve" smooth="yes"/>
      <point x="84" y="525"/>
      <point x="174" y="525"/>
    </contour>
    <contour>
      <point x="84" y="636" type="curve" smooth="yes"/>
      <point x="84" y="657"/>
      <point x="84" y="664"/>
      <point x="84" y="685" type="curve" smooth="yes"/>
      <point x="84" y="746"/>
      <point x="174" y="746"/>
      <point x="174" y="685" type="curve" smooth="yes"/>
      <point x="174" y="664"/>
      <point x="174" y="657"/>
      <point x="174" y="636" type="curve" smooth="yes"/>
      <point x="174" y="574"/>
      <point x="84" y="574"/>
    </contour>
  </outline>
</glyph>
<glyph name="k" format="2">
  <advance width="501"/>
  <unicode hex="006B"/>
  <outline>
    <contour>
      <point x="159.98256225762012" y="695.0149460109146" type="curve" smooth="yes"/>
      <point x="159.97987426172756" y="646.6407679801652"/>
      <point x="159.9790690908912" y="610.3978023811468"/>
      <point x="159.97906761724778" y="562.0209378281074" type="curve" smooth="yes"/>
      <point x="159.97906282925013" y="404.8402462635869"/>
      <point x="159.97906052516618" y="329.2016353326678"/>
      <point x="159.97905573716852" y="172.02094376814713" type="curve" smooth="yes"/>
      <point x="159.97905426426198" y="123.66826764738428"/>
      <point x="159.97985859926587" y="88.3753152753738"/>
      <point x="159.98254230534698" y="40.01995397558219" type="curve" smooth="yes"/>
      <point x="159.98628853234894" y="-27.480045920460647"/>
      <point x="69.9862886709585" y="-27.4850408897966"/>
      <point x="69.98254244395653" y="40.01495900624624" type="curve" smooth="yes"/>
      <point x="69.98034176154893" y="79.66713763996647"/>
      <point x="69.97905452936125" y="132.3709697662322"/>
      <point x="69.97905573716858" y="172.02094650970392" type="curve" smooth="yes"/>
      <point x="69.97905895012518" y="277.4960919761005"/>
      <point x="69.97906440429118" y="456.54579510326766"/>
      <point x="69.97906761724784" y="562.0209405696644" type="curve" smooth="yes"/>
      <point x="69.97906882384827" y="601.6312970540625"/>
      <point x="69.9803614999894" y="655.4117902240835"/>
      <point x="69.98256239656499" y="695.019947018473" type="curve" smooth="yes"/>
      <point x="69.98631315223362" y="762.5199469142643"/>
      <point x="159.98631301328874" y="762.514945906706"/>
    </contour>
    <contour>
      <point x="441.08723803145404" y="422.10232892034094" type="curve" smooth="yes"/>
      <point x="387.75868577554826" y="381.85467403229444"/>
      <point x="327.54205891295356" y="339.6677149994623"/>
      <point x="267.5905405516591" y="295.72070373477965" type="curve" smooth="yes"/>
      <point x="220.3625625875392" y="261.1005884094378"/>
      <point x="221.0615962014128" y="272.66377781860916"/>
      <point x="266.9483833792175" y="236.27168780729556" type="curve" smooth="yes"/>
      <point x="329.6806953307345" y="186.51967674774443"/>
      <point x="396.5504320229953" y="125.95594454243889"/>
      <point x="454.3073417817363" y="73.26541339915951" type="curve" smooth="yes"/>
      <point x="504.17404115637487" y="27.772971241374428"/>
      <point x="443.5174516126614" y="-38.71596125814362"/>
      <point x="393.6507522380228" y="6.776480899641463" type="curve" smooth="yes"/>
      <point x="337.40892008770146" y="58.084835533748425"/>
      <point x="272.1104084531504" y="117.30932122786966"/>
      <point x="211.02368871837703" y="165.7562389532199" type="curve" smooth="yes"/>
      <point x="101.8488652198745" y="252.3410762906343"/>
      <point x="102.01572622121276" y="285.93830169317226"/>
      <point x="214.38153946598828" y="368.30721903524767" type="curve" smooth="yes"/>
      <point x="275.0913768535651" y="412.8101103793875"/>
      <point x="334.20983220215425" y="454.1956695107088"/>
      <point x="386.8708817589385" y="493.93955264545195" type="curve" smooth="yes"/>
      <point x="440.74879955277174" y="534.6018198498386"/>
      <point x="494.9651558252873" y="462.7645961247277"/>
    </contour>
  </outline>
</glyph>
<glyph name="l" format="2">
  <advance width="231"/>
  <unicode hex="006C"/>
  <outline>
    <contour>
      <point x="69.98428593899554" y="40.01059095338534" type="curve" smooth="yes"/>
      <point x="69.97955463135612" y="81.5926576420705"/>
      <point x="69.97905259725341" y="136.4436123038631"/>
      <point x="69.97905386377144" y="178.0209464183187" type="curve" smooth="yes"/>
      <point x="69.97905710163467" y="284.3137286712767"/>
      <point x="69.97906247552562" y="460.728158240552"/>
      <point x="69.97906571338896" y="567.02094049351" type="curve" smooth="yes"/>
      <point x="69.97906680153038" y="602.7425155001447"/>
      <point x="69.97944195410724" y="656.623525360224"/>
      <point x="69.98256041933277" y="695.0211011968353" type="curve" smooth="yes"/>
      <point x="69.98804244254497" y="762.5211009742236"/>
      <point x="159.9880421457294" y="762.5137916099407"/>
      <point x="159.98256012251719" y="695.0137918325523" type="curve" smooth="yes"/>
      <point x="159.97869580321185" y="647.4325353958767"/>
      <point x="159.97906706178486" y="611.2861650138266"/>
      <point x="159.9790657133889" y="567.020937751953" type="curve" smooth="yes"/>
      <point x="159.97906088827483" y="408.6217912140641"/>
      <point x="159.97905868888537" y="336.4200902146508"/>
      <point x="159.9790538637714" y="178.0209436767619" type="curve" smooth="yes"/>
      <point x="159.9790523277392" y="127.5959773744931"/>
      <point x="159.97854722929011" y="90.45153733546115"/>
      <point x="159.9842853564059" y="40.02083136995682" type="curve" smooth="yes"/>
      <point x="159.9919656688345" y="-27.479168193100968"/>
      <point x="69.99196625142413" y="-27.489408609672445"/>
    </contour>
  </outline>
</glyph>
<glyph name="m" format="2">
  <advance width="828"/>
  <unicode hex="006D"/>
  <outline>
    <contour>
      <point x="156" y="458" type="curve" smooth="yes"/>
      <point x="156" y="414"/>
      <point x="156" y="382"/>
      <point x="156" y="338" type="curve" smooth="yes"/>
      <point x="156" y="306"/>
      <point x="156" y="98"/>
      <point x="156" y="40" type="curve" smooth="yes"/>
      <point x="156" y="-28"/>
      <point x="66" y="-28"/>
      <point x="66" y="40" type="curve" smooth="yes"/>
      <point x="66" y="96"/>
      <point x="66" y="190"/>
      <point x="66" y="258" type="curve" smooth="yes"/>
      <point x="66" y="404"/>
      <point x="161" y="508"/>
      <point x="285" y="508" type="curve" smooth="yes"/>
      <point x="381" y="508"/>
      <point x="463" y="444"/>
      <point x="463" y="303" type="curve" smooth="yes"/>
      <point x="463" y="272"/>
      <point x="463" y="92"/>
      <point x="463" y="40" type="curve" smooth="yes"/>
      <point x="463" y="-28"/>
      <point x="373" y="-28"/>
      <point x="373" y="40" type="curve" smooth="yes"/>
      <point x="373" y="91"/>
      <point x="373" y="219"/>
      <point x="373" y="258" type="curve" smooth="yes"/>
      <point x="373" y="404"/>
      <point x="468" y="508"/>
      <point x="592" y="508" type="curve" smooth="yes"/>
      <point x="688" y="508"/>
      <point x="770" y="444"/>
      <point x="770" y="303" type="curve" smooth="yes"/>
      <point x="770" y="272"/>
      <point x="770" y="207"/>
      <point x="770" y="175" type="curve" smooth="yes"/>
      <point x="770" y="126"/>
      <point x="770" y="89"/>
      <point x="770" y="40" type="curve" smooth="yes"/>
      <point x="770" y="-28"/>
      <point x="680" y="-28"/>
      <point x="680" y="40" type="curve" smooth="yes"/>
      <point x="680" y="81"/>
      <point x="680" y="134"/>
      <point x="680" y="175" type="curve" smooth="yes"/>
      <point x="680" y="222"/>
      <point x="680" y="257"/>
      <point x="680" y="303" type="curve" smooth="yes"/>
      <point x="680" y="384"/>
      <point x="647" y="418"/>
      <point x="592" y="418" type="curve" smooth="yes"/>
      <point x="514" y="418"/>
      <point x="463" y="370"/>
      <point x="463" y="278" type="curve" smooth="yes"/>
      <point x="463" y="220"/>
      <point x="463" y="88"/>
      <point x="463" y="40" type="curve" smooth="yes"/>
      <point x="463" y="-28"/>
      <point x="373" y="-28"/>
      <point x="373" y="40" type="curve" smooth="yes"/>
      <point x="373" y="87"/>
      <point x="373" y="257"/>
      <point x="373" y="303" type="curve" smooth="yes"/>
      <point x="373" y="384"/>
      <point x="340" y="418"/>
      <point x="285" y="418" type="curve" smooth="yes"/>
      <point x="207" y="418"/>
      <point x="156" y="370"/>
      <point x="156" y="278" type="curve" smooth="yes"/>
      <point x="156" y="232"/>
      <point x="156" y="98"/>
      <point x="156" y="40" type="curve" smooth="yes"/>
      <point x="156" y="-28"/>
      <point x="66" y="-28"/>
      <point x="66" y="40" type="curve" smooth="yes"/>
      <point x="66" y="96"/>
      <point x="66" y="317"/>
      <point x="66" y="338" type="curve" smooth="yes"/>
      <point x="66" y="378"/>
      <point x="66" y="418"/>
      <point x="66" y="458" type="curve" smooth="yes"/>
      <point x="66" y="525"/>
      <point x="156" y="525"/>
    </contour>
  </outline>
</glyph>
<glyph name="n" format="2">
  <advance width="568"/>
  <unicode hex="006E"/>
  <outline>
    <contour>
      <point x="421.0" y="40.0" type="curve" smooth="yes"/>
      <point x="421.0" y="81.0"/>
      <point x="421.0" y="134.0"/>
      <point x="421.0" y="175.0" type="curve" smooth="yes"/>
      <point x="421.0" y="207.0"/>
      <point x="421.0" y="247.0"/>
      <point x="421.0" y="293.0" type="curve" smooth="yes"/>
      <point x="421.0" y="377.0"/>
      <point x="379.0" y="418.0"/>
      <point x="304.0" y="418.0" type="curve" smooth="yes"/>
      <point x="217.0" y="418.0"/>
      <point x="156.0" y="363.0"/>
      <point x="156.0" y="258.0" type="curve" smooth="yes"/>
      <point x="156.0" y="212.0"/>
      <point x="156.0" y="102.0"/>
      <point x="156.0" y="40.0" type="curve" smooth="yes"/>
      <point x="156.0" y="-28.0"/>
      <point x="66.0" y="-28.0"/>
      <point x="66.0" y="40.0" type="curve" smooth="yes"/>
      <point x="66.0" y="102.0"/>
      <point x="66.0" y="306.0"/>
      <point x="66.0" y="338.0" type="curve" smooth="yes"/>
      <point x="66.0" y="378.0"/>
      <point x="66.0" y="418.0"/>
      <point x="66.0" y="458.0" type="curve" smooth="yes"/>
      <point x="66.0" y="525.0"/>
      <point x="156.0" y="525.0"/>
      <point x="156.0" y="458.0" type="curve" smooth="yes"/>
      <point x="156.0" y="414.0"/>
      <point x="156.0" y="382.0"/>
      <point x="156.0" y="338.0" type="curve" smooth="yes"/>
      <point x="156.0" y="317.0"/>
      <point x="156.0" y="101.0"/>
      <point x="156.0" y="40.0" type="curve" smooth="yes"/>
      <point x="156.0" y="-28.0"/>
      <point x="66.0" y="-28.0"/>
      <point x="66.0" y="40.0" type="curve" smooth="yes"/>
      <point x="66.0" y="101.0"/>
      <point x="66.0" y="180.0"/>
      <point x="66.0" y="248.0" type="curve" smooth="yes"/>
      <point x="66.0" y="385.0"/>
      <point x="172.0" y="508.0"/>
      <point x="311.0" y="508.0" type="curve" smooth="yes"/>
      <point x="426.0" y="508.0"/>
      <point x="511.0" y="431.0"/>
      <point x="511.0" y="293.0" type="curve" smooth="yes"/>
      <point x="511.0" y="262.0"/>
      <point x="511.0" y="222.0"/>
      <point x="511.0" y="175.0" type="curve" smooth="yes"/>
      <point x="511.0" y="126.0"/>
      <point x="511.0" y="89.0"/>
      <point x="511.0" y="40.0" type="curve" smooth="yes"/>
      <point x="511.0" y="-28.0"/>
      <point x="421.0" y="-28.0"/>
    </contour>
  </outline>
</glyph>
<glyph name="o" format="2">
  <advance width="577"/>
  <unicode hex="006F"/>
  <outline>
    <contour>
      <point x="213.4816302363601" y="-0.5836125718639096" type="curve" smooth="yes"/>
      <point x="156.83487199816597" y="18.702332766433376"/>
      <point x="115.80042941353138" y="46.664484059212484"/>
      <point x="83.53691137230297" y="95.05925713629247" type="curve" smooth="yes"/>
      <point x="55.80344535718344" y="136.65902293763892"/>
      <point x="38.97905731544873" y="189.33282688130473"/>
      <point x="38.979059133652775" y="249.02094533692687" type="curve" smooth="yes"/>
      <point x="38.979063688230745" y="398.53892091324354"/>
      <point x="145.69582772274387" y="508.020940706742"/>
      <point x="287.9790625453678" y="508.02094070674207" type="curve" smooth="yes"/>
      <point x="431.32470601372796" y="508.0209407067421"/>
      <point x="537.9790574542534" y="398.3895122598797"/>
      <point x="537.9790529042265" y="249.02094259537003" type="curve" smooth="yes"/>
      <point x="537.9790511197124" y="190.43880109665173"/>
      <point x="521.6169167296678" y="138.0782093697366"/>
      <point x="493.34609641578373" y="95.94697913887546" type="curve" smooth="yes"/>
      <point x="460.62653166694366" y="47.18590676171659"/>
      <point x="422.2775942894931" y="19.748765757836413"/>
      <point x="362.47293216542886" y="-0.5887356386794025" type="curve" smooth="yes"/>
      <point x="298.5670474087551" y="-22.320921296517337"/>
      <point x="269.59079986497125" y="62.88692504571429"/>
      <point x="333.496684621645" y="84.61911070355222" type="curve" smooth="yes"/>
      <point x="373.63804525720377" y="98.2698019538457"/>
      <point x="396.6503729459787" y="113.36609654759503"/>
      <point x="418.612002721548" y="146.09491269252442" type="curve" smooth="yes"/>
      <point x="437.6160872968541" y="174.4161801223121"/>
      <point x="447.97905170464844" y="209.64111980362077"/>
      <point x="447.97905290422653" y="249.02094533692693" type="curve" smooth="yes"/>
      <point x="447.97905590826025" y="347.63755498736293"/>
      <point x="382.61919600022156" y="418.0209407067421"/>
      <point x="287.9790625453678" y="418.02094070674207" type="curve" smooth="yes"/>
      <point x="194.27492121505588" y="418.020940706742"/>
      <point x="128.97906213318265" y="347.48970128146055"/>
      <point x="128.97905913365273" y="249.0209425953701" type="curve" smooth="yes"/>
      <point x="128.9790579065455" y="208.73738979774424"/>
      <point x="139.70386234204838" y="173.0583456943"/>
      <point x="158.42119790878874" y="144.98263472556917" type="curve" smooth="yes"/>
      <point x="179.65850594483206" y="113.12700441708866"/>
      <point x="205.2005297248913" y="97.3088698684984"/>
      <point x="242.4879902061228" y="84.61398763673674" type="curve" smooth="yes"/>
      <point x="306.38619036257325" y="62.85921765941467"/>
      <point x="277.37983039281056" y="-22.338382549185983"/>
    </contour>
  </outline>
</glyph>
<glyph name="p" format="2">
  <advance width="584"/>
  <unicode hex="0070"/>
  <outline>
    <contour>
      <point x="65.98428367507265" y="-124.98952033314627" type="curve" smooth="yes"/>
      <point x="65.97954523934833" y="-84.25026090276351"/>
      <point x="65.97905022406484" y="-31.713570761405897"/>
      <point x="65.9790514649093" y="9.020948992335914" type="curve" smooth="yes"/>
      <point x="65.97905443421021" y="106.4973468618061"/>
      <point x="65.97905681365773" y="184.61000239679893"/>
      <point x="65.97905880618907" y="250.02094532169602" type="curve" smooth="yes"/>
      <point x="65.97906340898741" y="401.1218974357491"/>
      <point x="167.17499401173467" y="508.0209407067421"/>
      <point x="304.97906233975107" y="508.02094070674207" type="curve" smooth="yes"/>
      <point x="441.64262068121053" y="508.020940706742"/>
      <point x="545.9790574103257" y="399.19744520071106"/>
      <point x="545.9790528052259" y="248.02094261060094" type="curve" smooth="yes"/>
      <point x="545.97904818623" y="96.38825200901753"/>
      <point x="438.20979268686574" y="-10.983473572334244"/>
      <point x="305.9939200895724" y="-10.99126998568049" type="curve" smooth="yes"/>
      <point x="168.92601311659055" y="-10.999352510405197"/>
      <point x="66.00526279070554" y="99.21216652995223"/>
      <point x="65.99825735697186" y="245.99959776407215" type="curve" smooth="yes"/>
      <point x="65.99513546829368" y="311.4136801896308"/>
      <point x="65.99572645128245" y="402.76770294301883"/>
      <point x="66.00000905695578" y="451.00399221388363" type="curve" smooth="yes"/>
      <point x="66.0060019698888" y="518.5039919478465"/>
      <point x="156.00600161517266" y="518.4960013972692"/>
      <point x="156.00000870223965" y="450.9960016633063" type="curve" smooth="yes"/>
      <point x="155.9936266970909" y="379.1135380499587"/>
      <point x="155.99360496772877" y="343.48496941812834"/>
      <point x="155.99825725447636" y="246.00389301626106" type="curve" smooth="yes"/>
      <point x="156.002797683128" y="150.86662046176994"/>
      <point x="217.1508514165947" y="79.00349133469116"/>
      <point x="305.98861303232536" y="79.00872985784808" type="curve" smooth="yes"/>
      <point x="391.68162776501134" y="79.01378294376448"/>
      <point x="455.9790498115181" y="149.74331699769107"/>
      <point x="455.97905280522593" y="248.02094535215772" type="curve" smooth="yes"/>
      <point x="455.9790558123979" y="346.7405773401486"/>
      <point x="394.2216096568948" y="418.020940706742"/>
      <point x="304.97906233975107" y="418.02094070674207" type="curve" smooth="yes"/>
      <point x="214.90171929518115" y="418.0209407067421"/>
      <point x="155.97906181486536" y="348.7899590763782"/>
      <point x="155.97905880618902" y="250.02094258013918" type="curve" smooth="yes"/>
      <point x="155.97905583688808" y="152.5445447106691"/>
      <point x="155.97905345744059" y="74.43188917567626"/>
      <point x="155.97905146490925" y="9.02094625077908" type="curve" smooth="yes"/>
      <point x="155.97904996377122" y="-40.25850869268536"/>
      <point x="155.97855064251658" y="-75.69386344885244"/>
      <point x="155.98428306629845" y="-124.9790523173241" type="curve" smooth="yes"/>
      <point x="155.9921340781651" y="-192.47905186074345"/>
      <point x="65.9921346869393" y="-192.48951987656562"/>
    </contour>
  </outline>
</glyph>
<glyph name="q" format="2">
  <advance width="584"/>
  <unicode hex="0071"/>
  <outline>
    <contour>
      <point x="428.9964952618681" y="-124.99327988204121" type="curve" smooth="yes"/>
      <point x="428.9995607825896" y="-82.20195854729536"/>
      <point x="428.9999880652607" y="-50.794380251579454"/>
      <point x="428.9999893688522" y="-7.999994699656879" type="curve" smooth="yes"/>
      <point x="428.99999126178153" y="54.1412089421303"/>
      <point x="429.0004165176637" y="115.21191424530875"/>
      <point x="428.99912365294597" y="220.00031791782035" type="curve" smooth="yes"/>
      <point x="428.99743115159595" y="357.1798017673519"/>
      <point x="372.2480524602023" y="418.0181568749141"/>
      <point x="279.975108567348" y="418.02268609019524" type="curve" smooth="yes"/>
      <point x="192.52555274401507" y="418.02697854958643"/>
      <point x="128.9790621562017" y="346.4953721617566"/>
      <point x="128.97905915649903" y="248.02094261060094" type="curve" smooth="yes"/>
      <point x="128.97905614932708" y="149.3013106226101"/>
      <point x="189.73650235052276" y="79.02094724078573"/>
      <point x="278.9790496676665" y="79.02094724078572" type="curve" smooth="yes"/>
      <point x="367.30043785334067" y="79.0209472407857"/>
      <point x="428.9790502137549" y="149.44796746636064"/>
      <point x="428.9790532164594" y="248.0209453521577" type="curve" smooth="yes"/>
      <point x="428.979055458057" y="321.608256142667"/>
      <point x="428.97969498741986" y="415.5062136498649"/>
      <point x="428.98255037335286" y="458.02047246021687" type="curve" smooth="yes"/>
      <point x="428.9870838770629" y="525.520472307975"/>
      <point x="518.9870836740737" y="525.5144276363616"/>
      <point x="518.9825501703637" y="458.0144277886035" type="curve" smooth="yes"/>
      <point x="518.9782950301249" y="394.6590223837056"/>
      <point x="518.9790565569226" y="357.6818902137551"/>
      <point x="518.9790532164594" y="248.02094261060097" type="curve" smooth="yes"/>
      <point x="518.97904860669" y="96.69113868724452"/>
      <point x="414.57055398299383" y="-10.979052759214298"/>
      <point x="278.9790496676665" y="-10.979052759214284" type="curve" smooth="yes"/>
      <point x="142.24527380888168" y="-10.97905275921427"/>
      <point x="38.97905454903335" y="96.76676851721871"/>
      <point x="38.97905915649908" y="248.02094535215772" type="curve" smooth="yes"/>
      <point x="38.97906376857344" y="399.4264141774758"/>
      <point x="145.52491644121275" y="508.0292856831341"/>
      <point x="279.9795262152645" y="508.02268598177517" type="curve" smooth="yes"/>
      <point x="413.3355614634242" y="508.0161402039211"/>
      <point x="518.9966775848761" y="418.25794114234503"/>
      <point x="518.999123646096" y="220.00142832527504" type="curve" smooth="yes"/>
      <point x="518.9999912150882" y="149.68380845392625"/>
      <point x="518.9999906390909" y="33.6994786734082"/>
      <point x="518.9999893688522" y="-7.999997441213752" type="curve" smooth="yes"/>
      <point x="518.9999882966889" y="-43.197037818259304"/>
      <point x="518.9990163256023" y="-89.80520722334244"/>
      <point x="518.9964950309226" y="-124.99972737783307" type="curve" smooth="yes"/>
      <point x="518.9916594090787" y="-192.4997272046239"/>
      <point x="428.99165964002424" y="-192.49327970883203"/>
    </contour>
  </outline>
</glyph>
<glyph name="r" format="2">
  <advance width="389"/>
  <unicode hex="0072"/>
  <outline>
    <contour>
      <point x="322.8661138119771" y="411.4297933773501" type="curve" smooth="yes"/>
      <point x="200.68865109908563" y="428.20886767046204"/>
      <point x="155.97923505927835" y="355.24053980260015"/>
      <point x="155.9792321891799" y="261.02076787967525" type="curve" smooth="yes"/>
      <point x="155.979231417074" y="235.67402749627763"/>
      <point x="155.97818245919422" y="177.8861960528034"/>
      <point x="155.9781811230088" y="134.02181701154174" type="curve" smooth="yes"/>
      <point x="155.97818084272316" y="124.8205830662276"/>
      <point x="65.99877822863665" y="121.02710946319459"/>
      <point x="65.99895042712186" y="130.0019124349382" type="curve" smooth="yes"/>
      <point x="66.0000024325488" y="184.83132293420107"/>
      <point x="65.99999384741425" y="222.82396100987722"/>
      <point x="65.99895481460442" y="274.0001331943796" type="curve" smooth="yes"/>
      <point x="65.99783482008732" y="329.163966049848"/>
      <point x="65.9940827266468" y="398.8473139940321"/>
      <point x="65.9991350101404" y="454.0049914271682" type="curve" smooth="yes"/>
      <point x="66.00531781460677" y="521.5049911440047"/>
      <point x="156.00531743705545" y="521.4967474047162"/>
      <point x="155.9991346325891" y="453.99674768787963" type="curve" smooth="yes"/>
      <point x="155.99301335049077" y="387.1684107827383"/>
      <point x="155.99759782501457" y="340.83775520578524"/>
      <point x="155.99895479605476" y="274.0019604696304" type="curve" smooth="yes"/>
      <point x="155.99965203269156" y="239.6605019110388"/>
      <point x="155.9996563523882" y="166.79312748827732"/>
      <point x="155.99895041055572" y="130.00018561556257" type="curve" smooth="yes"/>
      <point x="155.9951686895086" y="-67.09911670391868"/>
      <point x="65.97817496754227" y="-68.05022537252586"/>
      <point x="65.97818112300882" y="134.02181975309864" type="curve" smooth="yes"/>
      <point x="65.9781820196479" y="163.4567440693024"/>
      <point x="65.97923103857585" y="223.24866644681256"/>
      <point x="65.97923218917995" y="261.0207706212322" type="curve" smooth="yes"/>
      <point x="65.97923650386049" y="402.6633751790672"/>
      <point x="151.43920442423138" y="525.8172319970403"/>
      <point x="335.1112053613411" y="500.5928896276918" type="curve" smooth="yes"/>
      <point x="401.98352754909735" y="491.4090709656689"/>
      <point x="389.7384359997333" y="402.2459747153272"/>
    </contour>
  </outline>
</glyph>
<glyph name="s" format="2">
  <advance width="462"/>
  <unicode hex="0073"/>
  <outline>
    <contour>
      <point x="335.0" y="392.0" type="curve" smooth="yes"/>
      <point x="299.0" y="409.0"/>
      <point x="262.0" y="418.0"/>
      <point x="229.0" y="418.0" type="curve" smooth="yes"/>
      <point x="183.0" y="418.0"/>
      <point x="141.0" y="401.0"/>
      <point x="141.0" y="361.0" type="curve" smooth="yes"/>
      <point x="141.0" y="325.0"/>
      <point x="210.0" y="306.0"/>
      <point x="247.0" y="294.0" type="curve" smooth="yes"/>
      <point x="342.0" y="262.0"/>
      <point x="421.0" y="227.0"/>
      <point x="421.0" y="132.0" type="curve" smooth="yes"/>
      <point x="421.0" y="45.0"/>
      <point x="347.0" y="-11.0"/>
      <point x="244.0" y="-11.0" type="curve" smooth="yes"/>
      <point x="190.0" y="-11.0"/>
      <point x="130.0" y="5.0"/>
      <point x="73.0" y="36.0" type="curve" smooth="yes"/>
      <point x="13.0" y="68.0"/>
      <point x="56.0" y="148.0"/>
      <point x="115.0" y="116.0" type="curve" smooth="yes"/>
      <point x="158.0" y="93.0"/>
      <point x="204.0" y="79.0"/>
      <point x="244.0" y="79.0" type="curve" smooth="yes"/>
      <point x="289.0" y="79.0"/>
      <point x="331.0" y="94.0"/>
      <point x="331.0" y="132.0" type="curve" smooth="yes"/>
      <point x="331.0" y="175.0"/>
      <point x="261.0" y="194.0"/>
      <point x="219.0" y="208.0" type="curve" smooth="yes"/>
      <point x="125.0" y="240.0"/>
      <point x="51.0" y="272.0"/>
      <point x="51.0" y="361.0" type="curve" smooth="yes"/>
      <point x="51.0" y="450.0"/>
      <point x="126.0" y="507.0"/>
      <point x="229.0" y="508.0" type="curve" smooth="yes"/>
      <point x="274.0" y="508.0"/>
      <point x="325.0" y="497.0"/>
      <point x="375.0" y="472.0" type="curve" smooth="yes"/>
      <point x="435.0" y="443.0"/>
      <point x="396.0" y="362.0"/>
    </contour>
  </outline>
</glyph>
<glyph name="t" format="2">
  <advance width="336"/>
  <unicode hex="0074"/>
  <outline>
    <contour>
      <point x="117.98428598682857" y="40.01077628543613" type="curve" smooth="yes"/>
      <point x="117.98114735869453" y="68.63120331499299"/>
      <point x="117.97905201700272" y="115.14510263608592"/>
      <point x="117.97905353630773" y="165.02094661632" type="curve" smooth="yes"/>
      <point x="117.97905625113152" y="254.14335635149254"/>
      <point x="117.97905815995549" y="316.8063452733153"/>
      <point x="117.97906261390676" y="463.0209420775205" type="curve" smooth="yes"/>
      <point x="117.9790638841454" y="504.72041819214246"/>
      <point x="117.97990743280077" y="557.7696599862214"/>
      <point x="117.98133539974032" y="588.0207940435705" type="curve" smooth="yes"/>
      <point x="117.98452165279552" y="655.5207939683689"/>
      <point x="207.98452155252681" y="655.5165456309621"/>
      <point x="207.9813352994716" y="588.0165457061637" type="curve" smooth="yes"/>
      <point x="207.97920732107337" y="542.9358382966623"/>
      <point x="207.97906450683598" y="525.1621429777502"/>
      <point x="207.9790626139067" y="463.02093933596365" type="curve" smooth="yes"/>
      <point x="207.9790596251098" y="364.904524948618"/>
      <point x="207.97905758198004" y="297.8325359719162"/>
      <point x="207.97905353630767" y="165.02094387476322" type="curve" smooth="yes"/>
      <point x="207.97905127221574" y="90.69519049929224"/>
      <point x="207.97960821350756" y="82.67124863708267"/>
      <point x="207.9842854456507" y="40.020646037906026" type="curve" smooth="yes"/>
      <point x="207.99168776000306" y="-27.47935355621059"/>
      <point x="117.99168830118091" y="-27.489223308680486"/>
    </contour>
    <contour>
      <point x="278.98691452398276" y="408.01308687745666" type="curve" smooth="yes"/>
      <point x="257.2047961310617" y="408.01308687745666"/>
      <point x="242.6860467824241" y="408.0118537416898"/>
      <point x="221.99531532463553" y="408.00959648675905" type="curve" smooth="yes"/>
      <point x="184.99324857868635" y="408.00555974703406"/>
      <point x="147.99550181049852" y="408.00505149185943"/>
      <point x="110.98488154397177" y="408.00959655829104" type="curve" smooth="yes"/>
      <point x="90.26859506966572" y="408.0121406090951"/>
      <point x="82.57447234597204" y="408.01308687745666"/>
      <point x="56.986917905236105" y="408.01308687745666" type="curve" smooth="yes"/>
      <point x="-10.513082094763895" y="408.01308687745666"/>
      <point x="-10.513082094763881" y="498.01308687745666"/>
      <point x="56.98691790523612" y="498.01308687745666" type="curve" smooth="yes"/>
      <point x="77.99036966127593" y="498.01308687745666"/>
      <point x="93.99104491955174" y="498.01168415457477"/>
      <point x="110.99593393843259" y="498.00959587964985" type="curve" smooth="yes"/>
      <point x="151.33812727813117" y="498.00464168143833"/>
      <point x="181.6526269168988" y="498.0051958375584"/>
      <point x="221.98549677651548" y="498.00959595118184" type="curve" smooth="yes"/>
      <point x="240.98652505693204" y="498.01166886797876"/>
      <point x="258.98362713727823" y="498.01308687745666"/>
      <point x="278.98691452398276" y="498.01308687745666" type="curve" smooth="yes"/>
      <point x="346.48691452398276" y="498.01308687745666"/>
      <point x="346.48691452398276" y="408.01308687745666"/>
    </contour>
  </outline>
</glyph>
<glyph name="u" format="2">
  <advance width="568"/>
  <unicode hex="0075"/>
  <outline>
    <contour>
      <point x="146.9825557551079" y="458.0151111376158" type="curve" smooth="yes"/>
      <point x="146.97775077685247" y="365.5716558258702"/>
      <point x="146.97906032769998" y="299.4692007090061"/>
      <point x="146.97905751156497" y="207.02094323506665" type="curve" smooth="yes"/>
      <point x="146.97905495436842" y="123.07313344740511"/>
      <point x="185.3755386979605" y="79.02094724078573"/>
      <point x="257.97904986566783" y="79.02094724078572" type="curve" smooth="yes"/>
      <point x="346.66019180561307" y="79.0209472407857"/>
      <point x="412.97905021121625" y="145.3646285187906"/>
      <point x="412.9790526072246" y="224.02094571769862" type="curve" smooth="yes"/>
      <point x="412.9790535785838" y="255.908780393586"/>
      <point x="412.9790561995718" y="341.9507455589727"/>
      <point x="412.9790571460241" y="373.0209434482989" type="curve" smooth="yes"/>
      <point x="412.97906306660406" y="567.3821170866718"/>
      <point x="503.00000701720273" y="567.3611703941974"/>
      <point x="503.00000109662267" y="372.9999967558245" type="curve" smooth="yes"/>
      <point x="502.99999905522844" y="305.98497322056363"/>
      <point x="502.99999714164306" y="243.16566813587607"/>
      <point x="502.9999943950395" y="153.00000010661608" type="curve" smooth="yes"/>
      <point x="502.9999929475057" y="105.48025614524937"/>
      <point x="502.99961076786684" y="77.64855113054982"/>
      <point x="503.00173607389434" y="35.00050045752779" type="curve" smooth="yes"/>
      <point x="503.00509984209486" y="-32.499499458657866"/>
      <point x="413.0050999538473" y="-32.50398448292525"/>
      <point x="413.0017361856468" y="34.99601543326041" type="curve" smooth="yes"/>
      <point x="413.0003100119853" y="63.614730008318524"/>
      <point x="412.99999342368034" y="121.11216817228546"/>
      <point x="412.9999943950395" y="153.00000284817287" type="curve" smooth="yes"/>
      <point x="412.99999623813085" y="213.50512505370273"/>
      <point x="412.9999997267574" y="328.0299762365146"/>
      <point x="413.00000109662267" y="372.9999994973812" type="curve" smooth="yes"/>
      <point x="413.0000013631236" y="381.7487137404668"/>
      <point x="502.979057412525" y="381.7696549498276"/>
      <point x="502.9790571460241" y="373.02094070674207" type="curve" smooth="yes"/>
      <point x="502.97905573560615" y="326.719651718744"/>
      <point x="502.9790540547584" y="271.5406869375085"/>
      <point x="502.9790526072246" y="224.0209429761419" type="curve" smooth="yes"/>
      <point x="502.97904878803257" y="98.64426128010386"/>
      <point x="399.3351125621812" y="-10.979052759214298"/>
      <point x="257.97904986566783" y="-10.979052759214284" type="curve" smooth="yes"/>
      <point x="138.72894652067347" y="-10.97905275921427"/>
      <point x="56.97905331141071" y="69.13801398397365"/>
      <point x="56.979057511565024" y="207.02094597662344" type="curve" smooth="yes"/>
      <point x="56.97905981277323" y="282.5651543524101"/>
      <point x="56.97862948273547" y="382.47950482821653"/>
      <point x="56.98255587668256" y="458.01978911120455" type="curve" smooth="yes"/>
      <point x="56.98606435687418" y="525.5197890200236"/>
      <point x="146.98606423529952" y="525.5151110464349"/>
    </contour>
  </outline>
</glyph>
